<svg id="visual" viewBox="0 0 960 540" width="960" height="540" xmlns="http://www.w3.org/2000/svg" xmlns:xlink="http://www.w3.org/1999/xlink" version="1.1"><rect x="0" y="0" width="960" height="540" fill="#071119"></rect><defs><linearGradient id="grad1_0" x1="43.8%" y1="0%" x2="100%" y2="100%"><stop offset="14.444444444444446%" stop-color="#3c7bfa" stop-opacity="1"></stop><stop offset="85.55555555555554%" stop-color="#3c7bfa" stop-opacity="1"></stop></linearGradient></defs><defs><linearGradient id="grad1_1" x1="43.8%" y1="0%" x2="100%" y2="100%"><stop offset="14.444444444444446%" stop-color="#3c7bfa" stop-opacity="1"></stop><stop offset="85.55555555555554%" stop-color="#116dd8" stop-opacity="1"></stop></linearGradient></defs><defs><linearGradient id="grad1_2" x1="43.8%" y1="0%" x2="100%" y2="100%"><stop offset="14.444444444444446%" stop-color="#005eb5" stop-opacity="1"></stop><stop offset="85.55555555555554%" stop-color="#116dd8" stop-opacity="1"></stop></linearGradient></defs><defs><linearGradient id="grad1_3" x1="43.8%" y1="0%" x2="100%" y2="100%"><stop offset="14.444444444444446%" stop-color="#005eb5" stop-opacity="1"></stop><stop offset="85.55555555555554%" stop-color="#004f93" stop-opacity="1"></stop></linearGradient></defs><defs><linearGradient id="grad1_4" x1="43.8%" y1="0%" x2="100%" y2="100%"><stop offset="14.444444444444446%" stop-color="#004072" stop-opacity="1"></stop><stop offset="85.55555555555554%" stop-color="#004f93" stop-opacity="1"></stop></linearGradient></defs><defs><linearGradient id="grad1_5" x1="43.8%" y1="0%" x2="100%" y2="100%"><stop offset="14.444444444444446%" stop-color="#004072" stop-opacity="1"></stop><stop offset="85.55555555555554%" stop-color="#003052" stop-opacity="1"></stop></linearGradient></defs><defs><linearGradient id="grad1_6" x1="43.8%" y1="0%" x2="100%" y2="100%"><stop offset="14.444444444444446%" stop-color="#062134" stop-opacity="1"></stop><stop offset="85.55555555555554%" stop-color="#003052" stop-opacity="1"></stop></linearGradient></defs><defs><linearGradient id="grad1_7" x1="43.8%" y1="0%" x2="100%" y2="100%"><stop offset="14.444444444444446%" stop-color="#062134" stop-opacity="1"></stop><stop offset="85.55555555555554%" stop-color="#071119" stop-opacity="1"></stop></linearGradient></defs><defs><linearGradient id="grad2_0" x1="0%" y1="0%" x2="56.3%" y2="100%"><stop offset="14.444444444444446%" stop-color="#3c7bfa" stop-opacity="1"></stop><stop offset="85.55555555555554%" stop-color="#3c7bfa" stop-opacity="1"></stop></linearGradient></defs><defs><linearGradient id="grad2_1" x1="0%" y1="0%" x2="56.3%" y2="100%"><stop offset="14.444444444444446%" stop-color="#116dd8" stop-opacity="1"></stop><stop offset="85.55555555555554%" stop-color="#3c7bfa" stop-opacity="1"></stop></linearGradient></defs><defs><linearGradient id="grad2_2" x1="0%" y1="0%" x2="56.3%" y2="100%"><stop offset="14.444444444444446%" stop-color="#116dd8" stop-opacity="1"></stop><stop offset="85.55555555555554%" stop-color="#005eb5" stop-opacity="1"></stop></linearGradient></defs><defs><linearGradient id="grad2_3" x1="0%" y1="0%" x2="56.3%" y2="100%"><stop offset="14.444444444444446%" stop-color="#004f93" stop-opacity="1"></stop><stop offset="85.55555555555554%" stop-color="#005eb5" stop-opacity="1"></stop></linearGradient></defs><defs><linearGradient id="grad2_4" x1="0%" y1="0%" x2="56.3%" y2="100%"><stop offset="14.444444444444446%" stop-color="#004f93" stop-opacity="1"></stop><stop offset="85.55555555555554%" stop-color="#004072" stop-opacity="1"></stop></linearGradient></defs><defs><linearGradient id="grad2_5" x1="0%" y1="0%" x2="56.3%" y2="100%"><stop offset="14.444444444444446%" stop-color="#003052" stop-opacity="1"></stop><stop offset="85.55555555555554%" stop-color="#004072" stop-opacity="1"></stop></linearGradient></defs><defs><linearGradient id="grad2_6" x1="0%" y1="0%" x2="56.3%" y2="100%"><stop offset="14.444444444444446%" stop-color="#003052" stop-opacity="1"></stop><stop offset="85.55555555555554%" stop-color="#062134" stop-opacity="1"></stop></linearGradient></defs><defs><linearGradient id="grad2_7" x1="0%" y1="0%" x2="56.3%" y2="100%"><stop offset="14.444444444444446%" stop-color="#071119" stop-opacity="1"></stop><stop offset="85.55555555555554%" stop-color="#062134" stop-opacity="1"></stop></linearGradient></defs><g transform="translate(960, 0)"><path d="M0 459C-24.4 457.3 -48.8 455.5 -71 448.4C-93.3 441.3 -113.4 428.7 -137.8 424.2C-162.2 419.6 -190.9 423 -207 406.3C-223.1 389.6 -226.7 352.8 -244.5 336.6C-262.3 320.3 -294.4 324.4 -311.8 311.8C-329.3 299.2 -332.2 269.9 -341.4 248C-350.6 226.2 -366 211.9 -384.9 196.1C-403.9 180.4 -426.3 163.2 -436.5 141.8C-446.8 120.5 -444.7 95 -446.4 70.7C-448.1 46.4 -453.6 23.2 -459 0L0 0Z" fill="#091926"></path><path d="M0 401.6C-21.3 400.1 -42.7 398.6 -62.1 392.4C-81.6 386.1 -99.2 375.2 -120.6 371.1C-141.9 367.1 -167 370.1 -181.1 355.5C-195.2 340.9 -198.4 308.7 -214 294.5C-229.5 280.2 -257.6 283.9 -272.9 272.9C-288.1 261.8 -290.7 236.1 -298.7 217C-306.8 197.9 -320.2 185.4 -336.8 171.6C-353.4 157.8 -373 142.8 -382 124.1C-390.9 105.4 -389.1 83.2 -390.6 61.9C-392.1 40.6 -396.9 20.3 -401.6 0L0 0Z" fill="#012843"></path><path d="M0 344.3C-18.3 343 -36.6 341.7 -53.3 336.3C-70 331 -85.1 321.6 -103.4 318.1C-121.7 314.7 -143.2 317.2 -155.3 304.7C-167.4 292.2 -170 264.6 -183.4 252.4C-196.7 240.2 -220.8 243.3 -233.9 233.9C-247 224.4 -249.2 202.4 -256.1 186C-262.9 169.7 -274.5 158.9 -288.7 147.1C-302.9 135.3 -319.7 122.4 -327.4 106.4C-335.1 90.4 -333.5 71.3 -334.8 53C-336.1 34.8 -340.2 17.4 -344.2 0L0 0Z" fill="#003862"></path><path d="M0 286.9C-15.2 285.8 -30.5 284.7 -44.4 280.3C-58.3 275.8 -70.9 268 -86.1 265.1C-101.4 262.2 -119.3 264.4 -129.4 253.9C-139.5 243.5 -141.7 220.5 -152.8 210.3C-164 200.2 -184 202.8 -194.9 194.9C-205.8 187 -207.6 168.7 -213.4 155C-219.1 141.4 -228.7 132.4 -240.6 122.6C-252.4 112.7 -266.4 102 -272.8 88.6C-279.2 75.3 -278 59.4 -279 44.2C-280.1 29 -283.5 14.5 -286.9 0L0 0Z" fill="#004783"></path><path d="M0 229.5C-12.2 228.6 -24.4 227.8 -35.5 224.2C-46.6 220.6 -56.7 214.4 -68.9 212.1C-81.1 209.8 -95.4 211.5 -103.5 203.1C-111.6 194.8 -113.4 176.4 -122.3 168.3C-131.2 160.1 -147.2 162.2 -155.9 155.9C-164.7 149.6 -166.1 134.9 -170.7 124C-175.3 113.1 -183 105.9 -192.5 98.1C-201.9 90.2 -213.2 81.6 -218.3 70.9C-223.4 60.3 -222.4 47.5 -223.2 35.4C-224.1 23.2 -226.8 11.6 -229.5 0L0 0Z" fill="#0057a4"></path><path d="M0 172.1C-9.1 171.5 -18.3 170.8 -26.6 168.2C-35 165.5 -42.5 160.8 -51.7 159.1C-60.8 157.3 -71.6 158.6 -77.6 152.4C-83.7 146.1 -85 132.3 -91.7 126.2C-98.4 120.1 -110.4 121.7 -116.9 116.9C-123.5 112.2 -124.6 101.2 -128 93C-131.5 84.8 -137.2 79.5 -144.3 73.5C-151.4 67.6 -159.9 61.2 -163.7 53.2C-167.5 45.2 -166.8 35.6 -167.4 26.5C-168.1 17.4 -170.1 8.7 -172.1 0L0 0Z" fill="#0066c7"></path><path d="M0 114.8C-6.1 114.3 -12.2 113.9 -17.8 112.1C-23.3 110.3 -28.4 107.2 -34.5 106C-40.6 104.9 -47.7 105.7 -51.8 101.6C-55.8 97.4 -56.7 88.2 -61.1 84.1C-65.6 80.1 -73.6 81.1 -78 78C-82.3 74.8 -83.1 67.5 -85.4 62C-87.6 56.6 -91.5 53 -96.2 49C-101 45.1 -106.6 40.8 -109.1 35.5C-111.7 30.1 -111.2 23.8 -111.6 17.7C-112 11.6 -113.4 5.8 -114.7 0L0 0Z" fill="#2974e9"></path><path d="M0 57.4C-3 57.2 -6.1 56.9 -8.9 56.1C-11.7 55.2 -14.2 53.6 -17.2 53C-20.3 52.4 -23.9 52.9 -25.9 50.8C-27.9 48.7 -28.3 44.1 -30.6 42.1C-32.8 40 -36.8 40.6 -39 39C-41.2 37.4 -41.5 33.7 -42.7 31C-43.8 28.3 -45.7 26.5 -48.1 24.5C-50.5 22.5 -53.3 20.4 -54.6 17.7C-55.8 15.1 -55.6 11.9 -55.8 8.8C-56 5.8 -56.7 2.9 -57.4 0L0 0Z" fill="#3c7bfa"></path></g><g transform="translate(0, 540)"><path d="M0 -459C20.5 -436.2 41 -413.5 65.2 -411.9C89.4 -410.3 117.4 -429.9 138.4 -426.1C159.5 -422.3 173.7 -395 195.7 -384C217.6 -373 247.3 -378.2 266.9 -367.3C286.4 -356.4 295.9 -329.4 309.7 -309.7C323.5 -290 341.7 -277.7 362.4 -263.3C383.2 -248.9 406.6 -232.5 409 -208.4C411.4 -184.3 392.8 -152.5 396.6 -128.9C400.3 -105.3 426.4 -89.9 440.5 -69.8C454.6 -49.7 456.8 -24.8 459 0L0 0Z" fill="#091926"></path><path d="M0 -401.6C17.9 -381.7 35.9 -361.8 57.1 -360.4C78.3 -359 102.7 -376.1 121.1 -372.8C139.6 -369.5 152 -345.7 171.2 -336C190.4 -326.4 216.4 -330.9 233.5 -321.4C250.6 -311.8 258.9 -288.2 271 -271C283.1 -253.8 299 -243 317.1 -230.4C335.3 -217.8 355.7 -203.4 357.9 -182.3C360 -161.2 343.7 -133.4 347 -112.8C350.3 -92.1 373.1 -78.6 385.4 -61C397.8 -43.5 399.7 -21.7 401.6 0L0 0Z" fill="#012843"></path><path d="M0 -344.2C15.4 -327.2 30.8 -310.1 48.9 -308.9C67.1 -307.7 88 -322.4 103.8 -319.6C119.6 -316.7 130.3 -296.3 146.8 -288C163.2 -279.8 185.5 -283.7 200.1 -275.5C214.8 -267.3 221.9 -247 232.3 -232.3C242.6 -217.5 256.3 -208.3 271.8 -197.5C287.4 -186.7 304.9 -174.4 306.7 -156.3C308.5 -138.2 294.6 -114.3 297.4 -96.6C300.3 -78.9 319.8 -67.4 330.4 -52.3C341 -37.2 342.6 -18.6 344.3 0L0 0Z" fill="#003862"></path><path d="M0 -286.9C12.8 -272.6 25.6 -258.4 40.8 -257.4C55.9 -256.4 73.4 -268.7 86.5 -266.3C99.7 -263.9 108.6 -246.9 122.3 -240C136 -233.1 154.6 -236.4 166.8 -229.6C179 -222.7 184.9 -205.9 193.6 -193.6C202.2 -181.3 213.6 -173.6 226.5 -164.6C239.5 -155.6 254.1 -145.3 255.6 -130.2C257.1 -115.2 245.5 -95.3 247.9 -80.5C250.2 -65.8 266.5 -56.2 275.3 -43.6C284.1 -31 285.5 -15.5 286.9 0L0 0Z" fill="#004783"></path><path d="M0 -229.5C10.3 -218.1 20.5 -206.7 32.6 -205.9C44.7 -205.1 58.7 -214.9 69.2 -213C79.8 -211.1 86.9 -197.5 97.8 -192C108.8 -186.5 123.6 -189.1 133.4 -183.6C143.2 -178.2 147.9 -164.7 154.9 -154.9C161.8 -145 170.8 -138.9 181.2 -131.7C191.6 -124.5 203.3 -116.3 204.5 -104.2C205.7 -92.1 196.4 -76.2 198.3 -64.4C200.2 -52.6 213.2 -44.9 220.3 -34.9C227.3 -24.8 228.4 -12.4 229.5 0L0 0Z" fill="#0057a4"></path><path d="M0 -172.1C7.7 -163.6 15.4 -155 24.5 -154.4C33.5 -153.9 44 -161.2 51.9 -159.8C59.8 -158.3 65.1 -148.1 73.4 -144C81.6 -139.9 92.7 -141.8 100.1 -137.7C107.4 -133.6 111 -123.5 116.1 -116.1C121.3 -108.8 128.1 -104.1 135.9 -98.7C143.7 -93.4 152.5 -87.2 153.4 -78.1C154.3 -69.1 147.3 -57.2 148.7 -48.3C150.1 -39.5 159.9 -33.7 165.2 -26.2C170.5 -18.6 171.3 -9.3 172.1 0L0 0Z" fill="#0066c7"></path><path d="M0 -114.7C5.1 -109.1 10.3 -103.4 16.3 -103C22.4 -102.6 29.3 -107.5 34.6 -106.5C39.9 -105.6 43.4 -98.8 48.9 -96C54.4 -93.3 61.8 -94.6 66.7 -91.8C71.6 -89.1 74 -82.3 77.4 -77.4C80.9 -72.5 85.4 -69.4 90.6 -65.8C95.8 -62.2 101.6 -58.1 102.2 -52.1C102.8 -46.1 98.2 -38.1 99.1 -32.2C100.1 -26.3 106.6 -22.5 110.1 -17.4C113.7 -12.4 114.2 -6.2 114.8 0L0 0Z" fill="#2974e9"></path><path d="M0 -57.4C2.6 -54.5 5.1 -51.7 8.2 -51.5C11.2 -51.3 14.7 -53.7 17.3 -53.3C19.9 -52.8 21.7 -49.4 24.5 -48C27.2 -46.6 30.9 -47.3 33.4 -45.9C35.8 -44.5 37 -41.2 38.7 -38.7C40.4 -36.3 42.7 -34.7 45.3 -32.9C47.9 -31.1 50.8 -29.1 51.1 -26C51.4 -23 49.1 -19.1 49.6 -16.1C50 -13.2 53.3 -11.2 55.1 -8.7C56.8 -6.2 57.1 -3.1 57.4 0L0 0Z" fill="#3c7bfa"></path></g></svg>