<svg id="visual" viewBox="0 0 900 600" width="900" height="600" xmlns="http://www.w3.org/2000/svg" xmlns:xlink="http://www.w3.org/1999/xlink" version="1.1"><rect x="0" y="0" width="900" height="600" fill="#001220"></rect><defs><linearGradient id="grad1_0" x1="33.3%" y1="100%" x2="100%" y2="0%"><stop offset="20%" stop-color="#001220" stop-opacity="1"></stop><stop offset="80%" stop-color="#001220" stop-opacity="1"></stop></linearGradient></defs><defs><linearGradient id="grad2_0" x1="0%" y1="100%" x2="66.7%" y2="0%"><stop offset="20%" stop-color="#001220" stop-opacity="1"></stop><stop offset="80%" stop-color="#001220" stop-opacity="1"></stop></linearGradient></defs><g transform="translate(900, 600)"><path d="M-324.5 0C-300.8 -27.7 -277 -55.4 -266.3 -86.5C-255.6 -117.6 -257.9 -152.1 -244.3 -177.5C-230.7 -202.9 -201.2 -219.2 -175.7 -241.9C-150.3 -264.6 -128.9 -293.8 -100.3 -308.6C-71.7 -323.5 -35.8 -324 0 -324.5L0 0Z" fill="#5d00ff"></path></g><g transform="translate(0, 0)"><path d="M324.5 0C303.2 28.4 281.8 56.9 272 88.4C262.2 119.9 263.8 154.5 250.8 182.2C237.8 209.9 210.2 230.8 183.4 252.4C156.6 274 130.7 296.5 100.3 308.6C69.9 320.8 34.9 322.6 0 324.5L0 0Z" fill="#5d00ff"></path></g></svg>