<svg id="visual" viewBox="0 0 900 600" width="900" height="600" xmlns="http://www.w3.org/2000/svg" xmlns:xlink="http://www.w3.org/1999/xlink" version="1.1"><rect x="0" y="0" width="900" height="600" fill="#001220"></rect><defs><linearGradient id="grad1_0" x1="33.3%" y1="100%" x2="100%" y2="0%"><stop offset="20%" stop-color="#001220" stop-opacity="1"></stop><stop offset="80%" stop-color="#001220" stop-opacity="1"></stop></linearGradient></defs><defs><linearGradient id="grad2_0" x1="0%" y1="100%" x2="66.7%" y2="0%"><stop offset="20%" stop-color="#001220" stop-opacity="1"></stop><stop offset="80%" stop-color="#001220" stop-opacity="1"></stop></linearGradient></defs><g transform="translate(900, 600)"><path d="M-324.5 0C-310.1 -29.7 -295.8 -59.3 -289.1 -93.9C-282.5 -128.6 -283.6 -168.1 -262.5 -190.7C-241.5 -213.3 -198.3 -218.9 -166.3 -229C-134.4 -239 -113.6 -253.4 -87.8 -270.1C-61.9 -286.8 -31 -305.6 0 -324.5L0 0Z" fill="#5d00ff"></path></g><g transform="translate(0, 0)"><path d="M324.5 0C322.2 35.6 319.9 71.2 302.4 98.3C285 125.3 252.3 143.9 230.6 167.5C208.8 191.1 198 219.7 178.7 245.9C159.3 272.1 131.5 295.9 100.3 308.6C69.1 321.3 34.5 322.9 0 324.5L0 0Z" fill="#5d00ff"></path></g></svg>