<svg id="visual" viewBox="0 0 960 540" width="960" height="540" xmlns="http://www.w3.org/2000/svg" xmlns:xlink="http://www.w3.org/1999/xlink" version="1.1"><rect x="0" y="0" width="960" height="540" fill="#001220"></rect><defs><linearGradient id="grad1_0" x1="43.8%" y1="100%" x2="100%" y2="0%"><stop offset="14.444444444444446%" stop-color="#3c7bfa" stop-opacity="1"></stop><stop offset="85.55555555555554%" stop-color="#3c7bfa" stop-opacity="1"></stop></linearGradient></defs><defs><linearGradient id="grad1_1" x1="43.8%" y1="100%" x2="100%" y2="0%"><stop offset="14.444444444444446%" stop-color="#3c7bfa" stop-opacity="1"></stop><stop offset="85.55555555555554%" stop-color="#0059ad" stop-opacity="1"></stop></linearGradient></defs><defs><linearGradient id="grad1_2" x1="43.8%" y1="100%" x2="100%" y2="0%"><stop offset="14.444444444444446%" stop-color="#003562" stop-opacity="1"></stop><stop offset="85.55555555555554%" stop-color="#0059ad" stop-opacity="1"></stop></linearGradient></defs><defs><linearGradient id="grad1_3" x1="43.8%" y1="100%" x2="100%" y2="0%"><stop offset="14.444444444444446%" stop-color="#003562" stop-opacity="1"></stop><stop offset="85.55555555555554%" stop-color="#001220" stop-opacity="1"></stop></linearGradient></defs><defs><linearGradient id="grad2_0" x1="0%" y1="100%" x2="56.3%" y2="0%"><stop offset="14.444444444444446%" stop-color="#3c7bfa" stop-opacity="1"></stop><stop offset="85.55555555555554%" stop-color="#3c7bfa" stop-opacity="1"></stop></linearGradient></defs><defs><linearGradient id="grad2_1" x1="0%" y1="100%" x2="56.3%" y2="0%"><stop offset="14.444444444444446%" stop-color="#0059ad" stop-opacity="1"></stop><stop offset="85.55555555555554%" stop-color="#3c7bfa" stop-opacity="1"></stop></linearGradient></defs><defs><linearGradient id="grad2_2" x1="0%" y1="100%" x2="56.3%" y2="0%"><stop offset="14.444444444444446%" stop-color="#0059ad" stop-opacity="1"></stop><stop offset="85.55555555555554%" stop-color="#003562" stop-opacity="1"></stop></linearGradient></defs><defs><linearGradient id="grad2_3" x1="0%" y1="100%" x2="56.3%" y2="0%"><stop offset="14.444444444444446%" stop-color="#001220" stop-opacity="1"></stop><stop offset="85.55555555555554%" stop-color="#003562" stop-opacity="1"></stop></linearGradient></defs><g transform="translate(960, 540)"><path d="M-378 0C-377.3 -54.4 -376.5 -108.7 -349.2 -144.7C-321.9 -180.6 -268 -198.2 -231.9 -231.9C-195.9 -265.7 -177.7 -315.7 -142 -342.8C-106.3 -369.8 -53.1 -373.9 0 -378L0 0Z" fill="#002440"></path><path d="M-283.5 0C-283 -40.8 -282.4 -81.5 -261.9 -108.5C-241.4 -135.5 -201 -148.6 -173.9 -173.9C-146.9 -199.3 -133.2 -236.8 -106.5 -257.1C-79.7 -277.4 -39.9 -280.4 0 -283.5L0 0Z" fill="#004787"></path><path d="M-189 0C-188.6 -27.2 -188.3 -54.4 -174.6 -72.3C-161 -90.3 -134 -99.1 -116 -116C-97.9 -132.9 -88.8 -157.9 -71 -171.4C-53.1 -184.9 -26.6 -187 0 -189L0 0Z" fill="#096ad3"></path><path d="M-94.5 0C-94.3 -13.6 -94.1 -27.2 -87.3 -36.2C-80.5 -45.2 -67 -49.5 -58 -58C-49 -66.4 -44.4 -78.9 -35.5 -85.7C-26.6 -92.5 -13.3 -93.5 0 -94.5L0 0Z" fill="#3c7bfa"></path></g><g transform="translate(0, 0)"><path d="M378 0C346.4 37.5 314.8 75 302.1 125.1C289.4 175.3 295.5 238.1 267.3 267.3C239.1 296.5 176.6 292 126.3 304.9C76 317.7 38 347.9 0 378L0 0Z" fill="#002440"></path><path d="M283.5 0C259.8 28.1 236.1 56.2 226.6 93.9C217 131.5 221.6 178.6 200.5 200.5C179.3 222.4 132.4 219 94.7 228.7C57 238.3 28.5 260.9 0 283.5L0 0Z" fill="#004787"></path><path d="M189 0C173.2 18.7 157.4 37.5 151.1 62.6C144.7 87.6 147.7 119.1 133.6 133.6C119.5 148.2 88.3 146 63.1 152.4C38 158.9 19 173.9 0 189L0 0Z" fill="#096ad3"></path><path d="M94.5 0C86.6 9.4 78.7 18.7 75.5 31.3C72.3 43.8 73.9 59.5 66.8 66.8C59.8 74.1 44.1 73 31.6 76.2C19 79.4 9.5 87 0 94.5L0 0Z" fill="#3c7bfa"></path></g></svg>