<svg id="visual" viewBox="0 0 900 600" width="900" height="600" xmlns="http://www.w3.org/2000/svg" xmlns:xlink="http://www.w3.org/1999/xlink" version="1.1"><rect x="0" y="0" width="900" height="600" fill="#001220"></rect><defs><linearGradient id="grad1_0" x1="33.3%" y1="0%" x2="100%" y2="100%"><stop offset="20%" stop-color="#001220" stop-opacity="1"></stop><stop offset="80%" stop-color="#001220" stop-opacity="1"></stop></linearGradient></defs><defs><linearGradient id="grad2_0" x1="0%" y1="0%" x2="66.7%" y2="100%"><stop offset="20%" stop-color="#001220" stop-opacity="1"></stop><stop offset="80%" stop-color="#001220" stop-opacity="1"></stop></linearGradient></defs><g transform="translate(900, 0)"><path d="M0 324.5C-27.7 300.8 -55.4 277 -86.5 266.3C-117.6 255.6 -152.1 257.9 -177.5 244.3C-202.9 230.7 -219.2 201.2 -241.9 175.7C-264.6 150.3 -293.8 128.9 -308.6 100.3C-323.5 71.7 -324 35.8 -324.5 0L0 0Z" fill="#5d00ff"></path></g><g transform="translate(0, 600)"><path d="M0 -324.5C28.4 -303.2 56.9 -281.8 88.4 -272C119.9 -262.2 154.5 -263.8 182.2 -250.8C209.9 -237.8 230.8 -210.2 252.4 -183.4C274 -156.6 296.5 -130.7 308.6 -100.3C320.8 -69.9 322.6 -34.9 324.5 0L0 0Z" fill="#5d00ff"></path></g></svg>