<svg id="visual" viewBox="0 0 960 540" width="960" height="540" xmlns="http://www.w3.org/2000/svg" xmlns:xlink="http://www.w3.org/1999/xlink" version="1.1"><rect x="0" y="0" width="960" height="540" fill="#071119"></rect><defs><linearGradient id="grad1_0" x1="43.8%" y1="0%" x2="100%" y2="100%"><stop offset="14.444444444444446%" stop-color="#3c7bfa" stop-opacity="1"></stop><stop offset="85.55555555555554%" stop-color="#3c7bfa" stop-opacity="1"></stop></linearGradient></defs><defs><linearGradient id="grad1_1" x1="43.8%" y1="0%" x2="100%" y2="100%"><stop offset="14.444444444444446%" stop-color="#3c7bfa" stop-opacity="1"></stop><stop offset="85.55555555555554%" stop-color="#116dd8" stop-opacity="1"></stop></linearGradient></defs><defs><linearGradient id="grad1_2" x1="43.8%" y1="0%" x2="100%" y2="100%"><stop offset="14.444444444444446%" stop-color="#005eb5" stop-opacity="1"></stop><stop offset="85.55555555555554%" stop-color="#116dd8" stop-opacity="1"></stop></linearGradient></defs><defs><linearGradient id="grad1_3" x1="43.8%" y1="0%" x2="100%" y2="100%"><stop offset="14.444444444444446%" stop-color="#005eb5" stop-opacity="1"></stop><stop offset="85.55555555555554%" stop-color="#004f93" stop-opacity="1"></stop></linearGradient></defs><defs><linearGradient id="grad1_4" x1="43.8%" y1="0%" x2="100%" y2="100%"><stop offset="14.444444444444446%" stop-color="#004072" stop-opacity="1"></stop><stop offset="85.55555555555554%" stop-color="#004f93" stop-opacity="1"></stop></linearGradient></defs><defs><linearGradient id="grad1_5" x1="43.8%" y1="0%" x2="100%" y2="100%"><stop offset="14.444444444444446%" stop-color="#004072" stop-opacity="1"></stop><stop offset="85.55555555555554%" stop-color="#003052" stop-opacity="1"></stop></linearGradient></defs><defs><linearGradient id="grad1_6" x1="43.8%" y1="0%" x2="100%" y2="100%"><stop offset="14.444444444444446%" stop-color="#062134" stop-opacity="1"></stop><stop offset="85.55555555555554%" stop-color="#003052" stop-opacity="1"></stop></linearGradient></defs><defs><linearGradient id="grad1_7" x1="43.8%" y1="0%" x2="100%" y2="100%"><stop offset="14.444444444444446%" stop-color="#062134" stop-opacity="1"></stop><stop offset="85.55555555555554%" stop-color="#071119" stop-opacity="1"></stop></linearGradient></defs><defs><linearGradient id="grad2_0" x1="0%" y1="0%" x2="56.3%" y2="100%"><stop offset="14.444444444444446%" stop-color="#3c7bfa" stop-opacity="1"></stop><stop offset="85.55555555555554%" stop-color="#3c7bfa" stop-opacity="1"></stop></linearGradient></defs><defs><linearGradient id="grad2_1" x1="0%" y1="0%" x2="56.3%" y2="100%"><stop offset="14.444444444444446%" stop-color="#116dd8" stop-opacity="1"></stop><stop offset="85.55555555555554%" stop-color="#3c7bfa" stop-opacity="1"></stop></linearGradient></defs><defs><linearGradient id="grad2_2" x1="0%" y1="0%" x2="56.3%" y2="100%"><stop offset="14.444444444444446%" stop-color="#116dd8" stop-opacity="1"></stop><stop offset="85.55555555555554%" stop-color="#005eb5" stop-opacity="1"></stop></linearGradient></defs><defs><linearGradient id="grad2_3" x1="0%" y1="0%" x2="56.3%" y2="100%"><stop offset="14.444444444444446%" stop-color="#004f93" stop-opacity="1"></stop><stop offset="85.55555555555554%" stop-color="#005eb5" stop-opacity="1"></stop></linearGradient></defs><defs><linearGradient id="grad2_4" x1="0%" y1="0%" x2="56.3%" y2="100%"><stop offset="14.444444444444446%" stop-color="#004f93" stop-opacity="1"></stop><stop offset="85.55555555555554%" stop-color="#004072" stop-opacity="1"></stop></linearGradient></defs><defs><linearGradient id="grad2_5" x1="0%" y1="0%" x2="56.3%" y2="100%"><stop offset="14.444444444444446%" stop-color="#003052" stop-opacity="1"></stop><stop offset="85.55555555555554%" stop-color="#004072" stop-opacity="1"></stop></linearGradient></defs><defs><linearGradient id="grad2_6" x1="0%" y1="0%" x2="56.3%" y2="100%"><stop offset="14.444444444444446%" stop-color="#003052" stop-opacity="1"></stop><stop offset="85.55555555555554%" stop-color="#062134" stop-opacity="1"></stop></linearGradient></defs><defs><linearGradient id="grad2_7" x1="0%" y1="0%" x2="56.3%" y2="100%"><stop offset="14.444444444444446%" stop-color="#071119" stop-opacity="1"></stop><stop offset="85.55555555555554%" stop-color="#062134" stop-opacity="1"></stop></linearGradient></defs><g transform="translate(960, 0)"><path d="M0 459C-23.4 451.8 -46.8 444.7 -69 435.6C-91.1 426.5 -112 415.5 -131 403.2C-150 391 -167.1 377.6 -189.8 372.4C-212.5 367.3 -240.8 370.4 -264.5 364.1C-288.2 357.7 -307.2 341.8 -324.6 324.6C-341.9 307.4 -357.7 288.9 -368.9 268C-380.1 247.2 -386.8 224 -397.4 202.5C-408 181 -422.5 161.2 -428 139.1C-433.5 116.9 -429.9 92.3 -433.6 68.7C-437.3 45.1 -448.1 22.5 -459 0L0 0Z" fill="#091926"></path><path d="M0 401.6C-20.5 395.4 -41 389.1 -60.4 381.1C-79.8 373.2 -98 363.5 -114.6 352.8C-131.3 342.1 -146.2 330.4 -166 325.9C-185.9 321.4 -210.7 324.1 -231.4 318.6C-252.2 313 -268.8 299 -284 284C-299.2 268.9 -313 252.8 -322.8 234.5C-332.6 216.3 -338.4 196 -347.7 177.2C-357 158.4 -369.7 141.1 -374.5 121.7C-379.3 102.3 -376.2 80.7 -379.4 60.1C-382.6 39.5 -392.1 19.7 -401.6 0L0 0Z" fill="#012843"></path><path d="M0 344.3C-17.6 338.9 -35.1 333.5 -51.7 326.7C-68.4 319.9 -84 311.6 -98.3 302.4C-112.5 293.3 -125.3 283.2 -142.3 279.3C-159.4 275.5 -180.6 277.8 -198.4 273C-216.1 268.3 -230.4 256.3 -243.4 243.4C-256.5 230.5 -268.3 216.7 -276.7 201C-285.1 185.4 -290.1 168 -298 151.9C-306 135.7 -316.9 120.9 -321 104.3C-325.1 87.7 -322.4 69.2 -325.2 51.5C-327.9 33.8 -336.1 16.9 -344.2 0L0 0Z" fill="#003862"></path><path d="M0 286.9C-14.6 282.4 -29.3 277.9 -43.1 272.2C-57 266.6 -70 259.7 -81.9 252C-93.8 244.4 -104.4 236 -118.6 232.8C-132.8 229.6 -150.5 231.5 -165.3 227.5C-180.1 223.5 -192 213.6 -202.9 202.9C-213.7 192.1 -223.6 180.5 -230.6 167.5C-237.6 154.5 -241.7 140 -248.4 126.5C-255 113.1 -264.1 100.8 -267.5 86.9C-270.9 73 -268.7 57.7 -271 42.9C-273.3 28.2 -280.1 14.1 -286.9 0L0 0Z" fill="#004783"></path><path d="M0 229.5C-11.7 225.9 -23.4 222.3 -34.5 217.8C-45.6 213.2 -56 207.7 -65.5 201.6C-75 195.5 -83.5 188.8 -94.9 186.2C-106.2 183.6 -120.4 185.2 -132.3 182C-144.1 178.8 -153.6 170.9 -162.3 162.3C-171 153.7 -178.8 144.4 -184.5 134C-190.1 123.6 -193.4 112 -198.7 101.2C-204 90.5 -211.2 80.6 -214 69.5C-216.7 58.4 -215 46.1 -216.8 34.3C-218.6 22.5 -224.1 11.3 -229.5 0L0 0Z" fill="#0057a4"></path><path d="M0 172.1C-8.8 169.4 -17.6 166.7 -25.9 163.3C-34.2 159.9 -42 155.8 -49.1 151.2C-56.3 146.6 -62.6 141.6 -71.2 139.7C-79.7 137.7 -90.3 138.9 -99.2 136.5C-108.1 134.1 -115.2 128.2 -121.7 121.7C-128.2 115.3 -134.1 108.3 -138.3 100.5C-142.5 92.7 -145 84 -149 75.9C-153 67.9 -158.4 60.5 -160.5 52.1C-162.5 43.8 -161.2 34.6 -162.6 25.8C-164 16.9 -168 8.5 -172.1 0L0 0Z" fill="#0066c7"></path><path d="M0 114.8C-5.9 113 -11.7 111.2 -17.2 108.9C-22.8 106.6 -28 103.9 -32.8 100.8C-37.5 97.8 -41.8 94.4 -47.4 93.1C-53.1 91.8 -60.2 92.6 -66.1 91C-72 89.4 -76.8 85.4 -81.1 81.1C-85.5 76.8 -89.4 72.2 -92.2 67C-95 61.8 -96.7 56 -99.3 50.6C-102 45.2 -105.6 40.3 -107 34.8C-108.4 29.2 -107.5 23.1 -108.4 17.2C-109.3 11.3 -112 5.6 -114.7 0L0 0Z" fill="#2974e9"></path><path d="M0 57.4C-2.9 56.5 -5.9 55.6 -8.6 54.4C-11.4 53.3 -14 51.9 -16.4 50.4C-18.8 48.9 -20.9 47.2 -23.7 46.6C-26.6 45.9 -30.1 46.3 -33.1 45.5C-36 44.7 -38.4 42.7 -40.6 40.6C-42.7 38.4 -44.7 36.1 -46.1 33.5C-47.5 30.9 -48.3 28 -49.7 25.3C-51 22.6 -52.8 20.2 -53.5 17.4C-54.2 14.6 -53.7 11.5 -54.2 8.6C-54.7 5.6 -56 2.8 -57.4 0L0 0Z" fill="#3c7bfa"></path></g><g transform="translate(0, 540)"><path d="M0 -459C25.5 -463 50.9 -467 71.8 -453.3C92.7 -439.7 109 -408.4 127.6 -392.8C146.3 -377.2 167.3 -377.3 192.5 -377.8C217.7 -378.3 246.9 -379.2 266.3 -366.5C285.6 -353.8 295 -327.4 304.1 -304.1C313.1 -280.7 321.9 -260.4 334.1 -242.8C346.4 -225.1 362.1 -210 380.5 -193.9C398.8 -177.7 419.8 -160.3 428 -139.1C436.2 -117.8 431.5 -92.7 434.6 -68.8C437.6 -45 448.3 -22.5 459 0L0 0Z" fill="#091926"></path><path d="M0 -401.6C22.3 -405.1 44.6 -408.6 62.8 -396.7C81.1 -384.7 95.3 -357.3 111.7 -343.7C128 -330 146.4 -330.1 168.4 -330.6C190.4 -331 216.1 -331.8 233 -320.7C249.9 -309.5 258.1 -286.5 266 -266C274 -245.6 281.6 -227.9 292.4 -212.4C303.1 -197 316.8 -183.8 332.9 -169.6C349 -155.5 367.3 -140.3 374.5 -121.7C381.6 -103.1 377.6 -81.1 380.3 -60.2C382.9 -39.4 392.3 -19.7 401.6 0L0 0Z" fill="#012843"></path><path d="M0 -344.2C19.1 -347.3 38.2 -350.3 53.9 -340C69.5 -329.8 81.7 -306.3 95.7 -294.6C109.7 -282.9 125.5 -283 144.4 -283.3C163.2 -283.7 185.2 -284.4 199.7 -274.9C214.2 -265.3 221.2 -245.5 228 -228C234.8 -210.5 241.4 -195.3 250.6 -182.1C259.8 -168.8 271.6 -157.5 285.3 -145.4C299.1 -133.2 314.8 -120.2 321 -104.3C327.1 -88.4 323.7 -69.5 325.9 -51.6C328.2 -33.8 336.2 -16.9 344.3 0L0 0Z" fill="#003862"></path><path d="M0 -286.9C15.9 -289.4 31.8 -291.9 44.9 -283.3C57.9 -274.8 68.1 -255.2 79.8 -245.5C91.4 -235.7 104.6 -235.8 120.3 -236.1C136 -236.4 154.3 -237 166.4 -229.1C178.5 -221.1 184.4 -204.6 190 -190C195.7 -175.5 201.2 -162.8 208.8 -151.7C216.5 -140.7 226.3 -131.3 237.8 -121.2C249.3 -111 262.4 -100.2 267.5 -86.9C272.6 -73.6 269.7 -57.9 271.6 -43C273.5 -28.1 280.2 -14.1 286.9 0L0 0Z" fill="#004783"></path><path d="M0 -229.5C12.7 -231.5 25.5 -233.5 35.9 -226.7C46.3 -219.8 54.5 -204.2 63.8 -196.4C73.1 -188.6 83.7 -188.6 96.2 -188.9C108.8 -189.1 123.5 -189.6 133.1 -183.2C142.8 -176.9 147.5 -163.7 152 -152C156.6 -140.4 160.9 -130.2 167.1 -121.4C173.2 -112.5 181.1 -105 190.2 -96.9C199.4 -88.8 209.9 -80.2 214 -69.5C218.1 -58.9 215.8 -46.3 217.3 -34.4C218.8 -22.5 224.2 -11.3 229.5 0L0 0Z" fill="#0057a4"></path><path d="M0 -172.1C9.5 -173.6 19.1 -175.1 26.9 -170C34.8 -164.9 40.9 -153.1 47.9 -147.3C54.9 -141.4 62.7 -141.5 72.2 -141.7C81.6 -141.9 92.6 -142.2 99.9 -137.4C107.1 -132.7 110.6 -122.8 114 -114C117.4 -105.3 120.7 -97.7 125.3 -91C129.9 -84.4 135.8 -78.8 142.7 -72.7C149.6 -66.6 157.4 -60.1 160.5 -52.1C163.6 -44.2 161.8 -34.7 163 -25.8C164.1 -16.9 168.1 -8.4 172.1 0L0 0Z" fill="#0066c7"></path><path d="M0 -114.7C6.4 -115.8 12.7 -116.8 18 -113.3C23.2 -109.9 27.2 -102.1 31.9 -98.2C36.6 -94.3 41.8 -94.3 48.1 -94.4C54.4 -94.6 61.7 -94.8 66.6 -91.6C71.4 -88.4 73.7 -81.8 76 -76C78.3 -70.2 80.5 -65.1 83.5 -60.7C86.6 -56.3 90.5 -52.5 95.1 -48.5C99.7 -44.4 104.9 -40.1 107 -34.8C109 -29.5 107.9 -23.2 108.6 -17.2C109.4 -11.3 112.1 -5.6 114.8 0L0 0Z" fill="#2974e9"></path><path d="M0 -57.4C3.2 -57.9 6.4 -58.4 9 -56.7C11.6 -55 13.6 -51 16 -49.1C18.3 -47.1 20.9 -47.2 24.1 -47.2C27.2 -47.3 30.9 -47.4 33.3 -45.8C35.7 -44.2 36.9 -40.9 38 -38C39.1 -35.1 40.2 -32.6 41.8 -30.3C43.3 -28.1 45.3 -26.3 47.6 -24.2C49.9 -22.2 52.5 -20 53.5 -17.4C54.5 -14.7 53.9 -11.6 54.3 -8.6C54.7 -5.6 56 -2.8 57.4 0L0 0Z" fill="#3c7bfa"></path></g></svg>