<svg id="visual" viewBox="0 0 960 540" width="960" height="540" xmlns="http://www.w3.org/2000/svg" xmlns:xlink="http://www.w3.org/1999/xlink" version="1.1"><rect x="0" y="0" width="960" height="540" fill="#071119"></rect><defs><linearGradient id="grad1_0" x1="43.8%" y1="100%" x2="100%" y2="0%"><stop offset="14.444444444444446%" stop-color="#3c7bfa" stop-opacity="1"></stop><stop offset="85.55555555555554%" stop-color="#3c7bfa" stop-opacity="1"></stop></linearGradient></defs><defs><linearGradient id="grad1_1" x1="43.8%" y1="100%" x2="100%" y2="0%"><stop offset="14.444444444444446%" stop-color="#3c7bfa" stop-opacity="1"></stop><stop offset="85.55555555555554%" stop-color="#0059aa" stop-opacity="1"></stop></linearGradient></defs><defs><linearGradient id="grad1_2" x1="43.8%" y1="100%" x2="100%" y2="0%"><stop offset="14.444444444444446%" stop-color="#00355d" stop-opacity="1"></stop><stop offset="85.55555555555554%" stop-color="#0059aa" stop-opacity="1"></stop></linearGradient></defs><defs><linearGradient id="grad1_3" x1="43.8%" y1="100%" x2="100%" y2="0%"><stop offset="14.444444444444446%" stop-color="#00355d" stop-opacity="1"></stop><stop offset="85.55555555555554%" stop-color="#071119" stop-opacity="1"></stop></linearGradient></defs><defs><linearGradient id="grad2_0" x1="0%" y1="100%" x2="56.3%" y2="0%"><stop offset="14.444444444444446%" stop-color="#3c7bfa" stop-opacity="1"></stop><stop offset="85.55555555555554%" stop-color="#3c7bfa" stop-opacity="1"></stop></linearGradient></defs><defs><linearGradient id="grad2_1" x1="0%" y1="100%" x2="56.3%" y2="0%"><stop offset="14.444444444444446%" stop-color="#0059aa" stop-opacity="1"></stop><stop offset="85.55555555555554%" stop-color="#3c7bfa" stop-opacity="1"></stop></linearGradient></defs><defs><linearGradient id="grad2_2" x1="0%" y1="100%" x2="56.3%" y2="0%"><stop offset="14.444444444444446%" stop-color="#0059aa" stop-opacity="1"></stop><stop offset="85.55555555555554%" stop-color="#00355d" stop-opacity="1"></stop></linearGradient></defs><defs><linearGradient id="grad2_3" x1="0%" y1="100%" x2="56.3%" y2="0%"><stop offset="14.444444444444446%" stop-color="#071119" stop-opacity="1"></stop><stop offset="85.55555555555554%" stop-color="#00355d" stop-opacity="1"></stop></linearGradient></defs><g transform="translate(960, 540)"><path d="M-432 0C-421.5 -21.7 -410.9 -43.4 -402 -63.7C-393.1 -83.9 -385.8 -102.6 -383.3 -124.5C-380.8 -146.4 -383.1 -171.5 -374.2 -190.7C-365.4 -209.8 -345.4 -223 -333.3 -242.2C-321.2 -261.3 -316.9 -286.4 -302.6 -302.6C-288.3 -318.9 -264 -326.2 -243.3 -334.9C-222.7 -343.7 -205.7 -353.9 -188.9 -370.7C-172 -387.4 -155.4 -410.8 -133.5 -410.9C-111.6 -410.9 -84.4 -387.5 -61.3 -387.2C-38.2 -386.8 -19.1 -409.4 0 -432L0 0Z" fill="#052339"></path><path d="M-324 0C-316.1 -16.3 -308.2 -32.6 -301.5 -47.8C-294.8 -62.9 -289.3 -77 -287.5 -93.4C-285.6 -109.8 -287.3 -128.6 -280.7 -143C-274 -157.4 -259.1 -167.3 -250 -181.6C-240.9 -196 -237.7 -214.8 -227 -227C-216.3 -239.1 -198 -244.6 -182.5 -251.2C-167 -257.8 -154.3 -265.4 -141.6 -278C-129 -290.6 -116.5 -308.1 -100.1 -308.1C-83.7 -308.2 -63.3 -290.7 -46 -290.4C-28.6 -290.1 -14.3 -307.1 0 -324L0 0Z" fill="#004783"></path><path d="M-216 0C-210.7 -10.9 -205.5 -21.7 -201 -31.8C-196.5 -41.9 -192.9 -51.3 -191.6 -62.3C-190.4 -73.2 -191.5 -85.8 -187.1 -95.3C-182.7 -104.9 -172.7 -111.5 -166.7 -121.1C-160.6 -130.7 -158.5 -143.2 -151.3 -151.3C-144.2 -159.4 -132 -163.1 -121.7 -167.5C-111.3 -171.8 -102.8 -176.9 -94.4 -185.3C-86 -193.7 -77.7 -205.4 -66.7 -205.4C-55.8 -205.4 -42.2 -193.8 -30.7 -193.6C-19.1 -193.4 -9.5 -204.7 0 -216L0 0Z" fill="#066bd2"></path><path d="M-108 0C-105.4 -5.4 -102.7 -10.9 -100.5 -15.9C-98.3 -21 -96.4 -25.7 -95.8 -31.1C-95.2 -36.6 -95.8 -42.9 -93.6 -47.7C-91.3 -52.5 -86.4 -55.8 -83.3 -60.5C-80.3 -65.3 -79.2 -71.6 -75.7 -75.7C-72.1 -79.7 -66 -81.5 -60.8 -83.7C-55.7 -85.9 -51.4 -88.5 -47.2 -92.7C-43 -96.9 -38.8 -102.7 -33.4 -102.7C-27.9 -102.7 -21.1 -96.9 -15.3 -96.8C-9.5 -96.7 -4.8 -102.4 0 -108L0 0Z" fill="#3c7bfa"></path></g><g transform="translate(0, 0)"><path d="M432 0C413.1 19.6 394.2 39.1 394.1 62.4C394 85.7 412.8 112.8 406.1 132C399.4 151.1 367.2 162.4 351.1 178.9C334.9 195.3 334.8 217 331.7 241C328.5 265 322.3 291.4 304.1 304.1C285.8 316.7 255.5 315.5 232.8 320.4C210 325.2 194.8 336.1 180.2 353.7C165.6 371.3 151.7 395.6 132.9 409C114.1 422.3 90.5 424.7 67.6 426.7C44.6 428.7 22.3 430.3 0 432L0 0Z" fill="#052339"></path><path d="M324 0C309.8 14.7 295.6 29.3 295.6 46.8C295.5 64.3 309.6 84.6 304.6 99C299.5 113.3 275.4 121.8 263.3 134.2C251.2 146.5 251.1 162.7 248.8 180.7C246.4 198.8 241.7 218.6 228 228C214.3 237.5 191.6 236.6 174.6 240.3C157.5 243.9 146.1 252.1 135.2 265.3C124.2 278.5 113.7 296.7 99.7 306.7C85.6 316.7 67.9 318.5 50.7 320C33.5 321.5 16.7 322.8 0 324L0 0Z" fill="#004783"></path><path d="M216 0C206.5 9.8 197.1 19.6 197 31.2C197 42.9 206.4 56.4 203.1 66C199.7 75.6 183.6 81.2 175.5 89.4C167.5 97.7 167.4 108.5 165.8 120.5C164.3 132.5 161.2 145.7 152 152C142.9 158.3 127.8 157.8 116.4 160.2C105 162.6 97.4 168.1 90.1 176.9C82.8 185.7 75.8 197.8 66.4 204.5C57 211.1 45.3 212.3 33.8 213.3C22.3 214.3 11.2 215.2 0 216L0 0Z" fill="#066bd2"></path><path d="M108 0C103.3 4.9 98.5 9.8 98.5 15.6C98.5 21.4 103.2 28.2 101.5 33C99.8 37.8 91.8 40.6 87.8 44.7C83.7 48.8 83.7 54.2 82.9 60.2C82.1 66.3 80.6 72.9 76 76C71.4 79.2 63.9 78.9 58.2 80.1C52.5 81.3 48.7 84 45.1 88.4C41.4 92.8 37.9 98.9 33.2 102.2C28.5 105.6 22.6 106.2 16.9 106.7C11.2 107.2 5.6 107.6 0 108L0 0Z" fill="#3c7bfa"></path></g></svg>