<svg id="visual" viewBox="0 0 960 540" width="960" height="540" xmlns="http://www.w3.org/2000/svg" xmlns:xlink="http://www.w3.org/1999/xlink" version="1.1"><rect x="0" y="0" width="960" height="540" fill="#0d0817"></rect><defs><linearGradient id="grad1_0" x1="43.8%" y1="100%" x2="100%" y2="0%"><stop offset="14.444444444444446%" stop-color="#11118c" stop-opacity="1"></stop><stop offset="85.55555555555554%" stop-color="#11118c" stop-opacity="1"></stop></linearGradient></defs><defs><linearGradient id="grad1_1" x1="43.8%" y1="100%" x2="100%" y2="0%"><stop offset="14.444444444444446%" stop-color="#11118c" stop-opacity="1"></stop><stop offset="85.55555555555554%" stop-color="#13127a" stop-opacity="1"></stop></linearGradient></defs><defs><linearGradient id="grad1_2" x1="43.8%" y1="100%" x2="100%" y2="0%"><stop offset="14.444444444444446%" stop-color="#141369" stop-opacity="1"></stop><stop offset="85.55555555555554%" stop-color="#13127a" stop-opacity="1"></stop></linearGradient></defs><defs><linearGradient id="grad1_3" x1="43.8%" y1="100%" x2="100%" y2="0%"><stop offset="14.444444444444446%" stop-color="#141369" stop-opacity="1"></stop><stop offset="85.55555555555554%" stop-color="#151257" stop-opacity="1"></stop></linearGradient></defs><defs><linearGradient id="grad1_4" x1="43.8%" y1="100%" x2="100%" y2="0%"><stop offset="14.444444444444446%" stop-color="#151146" stop-opacity="1"></stop><stop offset="85.55555555555554%" stop-color="#151257" stop-opacity="1"></stop></linearGradient></defs><defs><linearGradient id="grad1_5" x1="43.8%" y1="100%" x2="100%" y2="0%"><stop offset="14.444444444444446%" stop-color="#151146" stop-opacity="1"></stop><stop offset="85.55555555555554%" stop-color="#141036" stop-opacity="1"></stop></linearGradient></defs><defs><linearGradient id="grad1_6" x1="43.8%" y1="100%" x2="100%" y2="0%"><stop offset="14.444444444444446%" stop-color="#130c26" stop-opacity="1"></stop><stop offset="85.55555555555554%" stop-color="#141036" stop-opacity="1"></stop></linearGradient></defs><defs><linearGradient id="grad1_7" x1="43.8%" y1="100%" x2="100%" y2="0%"><stop offset="14.444444444444446%" stop-color="#130c26" stop-opacity="1"></stop><stop offset="85.55555555555554%" stop-color="#0d0817" stop-opacity="1"></stop></linearGradient></defs><defs><linearGradient id="grad2_0" x1="0%" y1="100%" x2="56.3%" y2="0%"><stop offset="14.444444444444446%" stop-color="#11118c" stop-opacity="1"></stop><stop offset="85.55555555555554%" stop-color="#11118c" stop-opacity="1"></stop></linearGradient></defs><defs><linearGradient id="grad2_1" x1="0%" y1="100%" x2="56.3%" y2="0%"><stop offset="14.444444444444446%" stop-color="#13127a" stop-opacity="1"></stop><stop offset="85.55555555555554%" stop-color="#11118c" stop-opacity="1"></stop></linearGradient></defs><defs><linearGradient id="grad2_2" x1="0%" y1="100%" x2="56.3%" y2="0%"><stop offset="14.444444444444446%" stop-color="#13127a" stop-opacity="1"></stop><stop offset="85.55555555555554%" stop-color="#141369" stop-opacity="1"></stop></linearGradient></defs><defs><linearGradient id="grad2_3" x1="0%" y1="100%" x2="56.3%" y2="0%"><stop offset="14.444444444444446%" stop-color="#151257" stop-opacity="1"></stop><stop offset="85.55555555555554%" stop-color="#141369" stop-opacity="1"></stop></linearGradient></defs><defs><linearGradient id="grad2_4" x1="0%" y1="100%" x2="56.3%" y2="0%"><stop offset="14.444444444444446%" stop-color="#151257" stop-opacity="1"></stop><stop offset="85.55555555555554%" stop-color="#151146" stop-opacity="1"></stop></linearGradient></defs><defs><linearGradient id="grad2_5" x1="0%" y1="100%" x2="56.3%" y2="0%"><stop offset="14.444444444444446%" stop-color="#141036" stop-opacity="1"></stop><stop offset="85.55555555555554%" stop-color="#151146" stop-opacity="1"></stop></linearGradient></defs><defs><linearGradient id="grad2_6" x1="0%" y1="100%" x2="56.3%" y2="0%"><stop offset="14.444444444444446%" stop-color="#141036" stop-opacity="1"></stop><stop offset="85.55555555555554%" stop-color="#130c26" stop-opacity="1"></stop></linearGradient></defs><defs><linearGradient id="grad2_7" x1="0%" y1="100%" x2="56.3%" y2="0%"><stop offset="14.444444444444446%" stop-color="#0d0817" stop-opacity="1"></stop><stop offset="85.55555555555554%" stop-color="#130c26" stop-opacity="1"></stop></linearGradient></defs><g transform="translate(960, 540)"><path d="M-459 0C-451.8 -23.4 -444.7 -46.8 -435.6 -69C-426.5 -91.1 -415.5 -112 -403.2 -131C-391 -150 -377.6 -167.1 -372.4 -189.8C-367.3 -212.5 -370.4 -240.8 -364.1 -264.5C-357.7 -288.2 -341.8 -307.2 -324.6 -324.6C-307.4 -341.9 -288.9 -357.7 -268 -368.9C-247.2 -380.1 -224 -386.8 -202.5 -397.4C-181 -408 -161.2 -422.5 -139.1 -428C-116.9 -433.5 -92.3 -429.9 -68.7 -433.6C-45.1 -437.3 -22.5 -448.1 0 -459L0 0Z" fill="#110a1e"></path><path d="M-401.6 0C-395.4 -20.5 -389.1 -41 -381.1 -60.4C-373.2 -79.8 -363.5 -98 -352.8 -114.6C-342.1 -131.3 -330.4 -146.2 -325.9 -166C-321.4 -185.9 -324.1 -210.7 -318.6 -231.4C-313 -252.2 -299 -268.8 -284 -284C-268.9 -299.2 -252.8 -313 -234.5 -322.8C-216.3 -332.6 -196 -338.4 -177.2 -347.7C-158.4 -357 -141.1 -369.7 -121.7 -374.5C-102.3 -379.3 -80.7 -376.2 -60.1 -379.4C-39.5 -382.6 -19.7 -392.1 0 -401.6L0 0Z" fill="#140e2e"></path><path d="M-344.2 0C-338.9 -17.6 -333.5 -35.1 -326.7 -51.7C-319.9 -68.4 -311.6 -84 -302.4 -98.3C-293.3 -112.5 -283.2 -125.3 -279.3 -142.3C-275.5 -159.4 -277.8 -180.6 -273 -198.4C-268.3 -216.1 -256.3 -230.4 -243.4 -243.4C-230.5 -256.5 -216.7 -268.3 -201 -276.7C-185.4 -285.1 -168 -290.1 -151.9 -298C-135.7 -306 -120.9 -316.9 -104.3 -321C-87.7 -325.1 -69.2 -322.4 -51.5 -325.2C-33.8 -327.9 -16.9 -336.1 0 -344.2L0 0Z" fill="#15113e"></path><path d="M-286.9 0C-282.4 -14.6 -277.9 -29.3 -272.2 -43.1C-266.6 -57 -259.7 -70 -252 -81.9C-244.4 -93.8 -236 -104.4 -232.8 -118.6C-229.6 -132.8 -231.5 -150.5 -227.5 -165.3C-223.5 -180.1 -213.6 -192 -202.9 -202.9C-192.1 -213.7 -180.5 -223.6 -167.5 -230.6C-154.5 -237.6 -140 -241.7 -126.5 -248.4C-113.1 -255 -100.8 -264.1 -86.9 -267.5C-73 -270.9 -57.7 -268.7 -42.9 -271C-28.2 -273.3 -14.1 -280.1 0 -286.9L0 0Z" fill="#15124f"></path><path d="M-229.5 0C-225.9 -11.7 -222.3 -23.4 -217.8 -34.5C-213.2 -45.6 -207.7 -56 -201.6 -65.5C-195.5 -75 -188.8 -83.5 -186.2 -94.9C-183.6 -106.2 -185.2 -120.4 -182 -132.3C-178.8 -144.1 -170.9 -153.6 -162.3 -162.3C-153.7 -171 -144.4 -178.8 -134 -184.5C-123.6 -190.1 -112 -193.4 -101.2 -198.7C-90.5 -204 -80.6 -211.2 -69.5 -214C-58.4 -216.7 -46.1 -215 -34.3 -216.8C-22.5 -218.6 -11.3 -224.1 0 -229.5L0 0Z" fill="#151360"></path><path d="M-172.1 0C-169.4 -8.8 -166.7 -17.6 -163.3 -25.9C-159.9 -34.2 -155.8 -42 -151.2 -49.1C-146.6 -56.3 -141.6 -62.6 -139.7 -71.2C-137.7 -79.7 -138.9 -90.3 -136.5 -99.2C-134.1 -108.1 -128.2 -115.2 -121.7 -121.7C-115.3 -128.2 -108.3 -134.1 -100.5 -138.3C-92.7 -142.5 -84 -145 -75.9 -149C-67.9 -153 -60.5 -158.4 -52.1 -160.5C-43.8 -162.5 -34.6 -161.2 -25.8 -162.6C-16.9 -164 -8.5 -168 0 -172.1L0 0Z" fill="#131371"></path><path d="M-114.7 0C-113 -5.9 -111.2 -11.7 -108.9 -17.2C-106.6 -22.8 -103.9 -28 -100.8 -32.8C-97.8 -37.5 -94.4 -41.8 -93.1 -47.4C-91.8 -53.1 -92.6 -60.2 -91 -66.1C-89.4 -72 -85.4 -76.8 -81.1 -81.1C-76.8 -85.5 -72.2 -89.4 -67 -92.2C-61.8 -95 -56 -96.7 -50.6 -99.3C-45.2 -102 -40.3 -105.6 -34.8 -107C-29.2 -108.4 -23.1 -107.5 -17.2 -108.4C-11.3 -109.3 -5.6 -112 0 -114.7L0 0Z" fill="#121283"></path><path d="M-57.4 0C-56.5 -2.9 -55.6 -5.9 -54.4 -8.6C-53.3 -11.4 -51.9 -14 -50.4 -16.4C-48.9 -18.8 -47.2 -20.9 -46.6 -23.7C-45.9 -26.6 -46.3 -30.1 -45.5 -33.1C-44.7 -36 -42.7 -38.4 -40.6 -40.6C-38.4 -42.7 -36.1 -44.7 -33.5 -46.1C-30.9 -47.5 -28 -48.3 -25.3 -49.7C-22.6 -51 -20.2 -52.8 -17.4 -53.5C-14.6 -54.2 -11.5 -53.7 -8.6 -54.2C-5.6 -54.7 -2.8 -56 0 -57.4L0 0Z" fill="#11118c"></path></g><g transform="translate(0, 0)"><path d="M459 0C463 25.5 467 50.9 453.3 71.8C439.7 92.7 408.4 109 392.8 127.6C377.2 146.3 377.3 167.3 377.8 192.5C378.3 217.7 379.2 246.9 366.5 266.3C353.8 285.6 327.4 295 304.1 304.1C280.7 313.1 260.4 321.9 242.8 334.1C225.1 346.4 210 362.1 193.9 380.5C177.7 398.8 160.3 419.8 139.1 428C117.8 436.2 92.7 431.5 68.8 434.6C45 437.6 22.5 448.3 0 459L0 0Z" fill="#110a1e"></path><path d="M401.6 0C405.1 22.3 408.6 44.6 396.7 62.8C384.7 81.1 357.3 95.3 343.7 111.7C330 128 330.1 146.4 330.6 168.4C331 190.4 331.8 216.1 320.7 233C309.5 249.9 286.5 258.1 266 266C245.6 274 227.9 281.6 212.4 292.4C197 303.1 183.8 316.8 169.6 332.9C155.5 349 140.3 367.3 121.7 374.5C103.1 381.6 81.1 377.6 60.2 380.3C39.4 382.9 19.7 392.3 0 401.6L0 0Z" fill="#140e2e"></path><path d="M344.3 0C347.3 19.1 350.3 38.2 340 53.9C329.8 69.5 306.3 81.7 294.6 95.7C282.9 109.7 283 125.5 283.3 144.4C283.7 163.2 284.4 185.2 274.9 199.7C265.3 214.2 245.5 221.2 228 228C210.5 234.8 195.3 241.4 182.1 250.6C168.8 259.8 157.5 271.6 145.4 285.3C133.2 299.1 120.2 314.8 104.3 321C88.4 327.1 69.5 323.7 51.6 325.9C33.8 328.2 16.9 336.2 0 344.3L0 0Z" fill="#15113e"></path><path d="M286.9 0C289.4 15.9 291.9 31.8 283.3 44.9C274.8 57.9 255.2 68.1 245.5 79.8C235.7 91.4 235.8 104.6 236.1 120.3C236.4 136 237 154.3 229.1 166.4C221.1 178.5 204.6 184.4 190 190C175.5 195.7 162.8 201.2 151.7 208.8C140.7 216.5 131.3 226.3 121.2 237.8C111 249.3 100.2 262.4 86.9 267.5C73.6 272.6 57.9 269.7 43 271.6C28.1 273.5 14.1 280.2 0 286.9L0 0Z" fill="#15124f"></path><path d="M229.5 0C231.5 12.7 233.5 25.5 226.7 35.9C219.8 46.3 204.2 54.5 196.4 63.8C188.6 73.1 188.6 83.7 188.9 96.2C189.1 108.8 189.6 123.5 183.2 133.1C176.9 142.8 163.7 147.5 152 152C140.4 156.6 130.2 160.9 121.4 167.1C112.5 173.2 105 181.1 96.9 190.2C88.8 199.4 80.2 209.9 69.5 214C58.9 218.1 46.3 215.8 34.4 217.3C22.5 218.8 11.3 224.2 0 229.5L0 0Z" fill="#151360"></path><path d="M172.1 0C173.6 9.5 175.1 19.1 170 26.9C164.9 34.8 153.1 40.9 147.3 47.9C141.4 54.9 141.5 62.7 141.7 72.2C141.9 81.6 142.2 92.6 137.4 99.9C132.7 107.1 122.8 110.6 114 114C105.3 117.4 97.7 120.7 91 125.3C84.4 129.9 78.8 135.8 72.7 142.7C66.6 149.6 60.1 157.4 52.1 160.5C44.2 163.6 34.7 161.8 25.8 163C16.9 164.1 8.4 168.1 0 172.1L0 0Z" fill="#131371"></path><path d="M114.8 0C115.8 6.4 116.8 12.7 113.3 18C109.9 23.2 102.1 27.2 98.2 31.9C94.3 36.6 94.3 41.8 94.4 48.1C94.6 54.4 94.8 61.7 91.6 66.6C88.4 71.4 81.8 73.7 76 76C70.2 78.3 65.1 80.5 60.7 83.5C56.3 86.6 52.5 90.5 48.5 95.1C44.4 99.7 40.1 104.9 34.8 107C29.5 109 23.2 107.9 17.2 108.6C11.3 109.4 5.6 112.1 0 114.8L0 0Z" fill="#121283"></path><path d="M57.4 0C57.9 3.2 58.4 6.4 56.7 9C55 11.6 51 13.6 49.1 16C47.1 18.3 47.2 20.9 47.2 24.1C47.3 27.2 47.4 30.9 45.8 33.3C44.2 35.7 40.9 36.9 38 38C35.1 39.1 32.6 40.2 30.3 41.8C28.1 43.3 26.3 45.3 24.2 47.6C22.2 49.9 20 52.5 17.4 53.5C14.7 54.5 11.6 53.9 8.6 54.3C5.6 54.7 2.8 56 0 57.4L0 0Z" fill="#11118c"></path></g></svg>