<svg id="visual" viewBox="0 0 960 540" width="960" height="540" xmlns="http://www.w3.org/2000/svg" xmlns:xlink="http://www.w3.org/1999/xlink" version="1.1"><rect x="0" y="0" width="960" height="540" fill="#001220"></rect><path d="M0 379L20 383.7C40 388.3 80 397.7 120 406.2C160 414.7 200 422.3 240 411.5C280 400.7 320 371.3 360 371.3C400 371.3 440 400.7 480 410.3C520 420 560 410 600 403.3C640 396.7 680 393.3 720 383C760 372.7 800 355.3 840 359.7C880 364 920 390 940 403L960 416L960 541L940 541C920 541 880 541 840 541C800 541 760 541 720 541C680 541 640 541 600 541C560 541 520 541 480 541C440 541 400 541 360 541C320 541 280 541 240 541C200 541 160 541 120 541C80 541 40 541 20 541L0 541Z" fill="#8c69fa"></path><path d="M0 420L20 420.3C40 420.7 80 421.3 120 414.7C160 408 200 394 240 396.2C280 398.3 320 416.7 360 419.7C400 422.7 440 410.3 480 410.7C520 411 560 424 600 417.8C640 411.7 680 386.3 720 376.2C760 366 800 371 840 381.2C880 391.3 920 406.7 940 414.3L960 422L960 541L940 541C920 541 880 541 840 541C800 541 760 541 720 541C680 541 640 541 600 541C560 541 520 541 480 541C440 541 400 541 360 541C320 541 280 541 240 541C200 541 160 541 120 541C80 541 40 541 20 541L0 541Z" fill="#8163f3"></path><path d="M0 453L20 449.2C40 445.3 80 437.7 120 441.2C160 444.7 200 459.3 240 451.2C280 443 320 412 360 397.3C400 382.7 440 384.3 480 395C520 405.7 560 425.3 600 439.7C640 454 680 463 720 461.7C760 460.3 800 448.7 840 435C880 421.3 920 405.7 940 397.8L960 390L960 541L940 541C920 541 880 541 840 541C800 541 760 541 720 541C680 541 640 541 600 541C560 541 520 541 480 541C440 541 400 541 360 541C320 541 280 541 240 541C200 541 160 541 120 541C80 541 40 541 20 541L0 541Z" fill="#775ded"></path><path d="M0 416L20 425.7C40 435.3 80 454.7 120 452.8C160 451 200 428 240 428.5C280 429 320 453 360 451.5C400 450 440 423 480 408.2C520 393.3 560 390.7 600 394.2C640 397.7 680 407.3 720 415.2C760 423 800 429 840 424.3C880 419.7 920 404.3 940 396.7L960 389L960 541L940 541C920 541 880 541 840 541C800 541 760 541 720 541C680 541 640 541 600 541C560 541 520 541 480 541C440 541 400 541 360 541C320 541 280 541 240 541C200 541 160 541 120 541C80 541 40 541 20 541L0 541Z" fill="#6c58e6"></path><path d="M0 475L20 478.5C40 482 80 489 120 481.5C160 474 200 452 240 443.3C280 434.7 320 439.3 360 437.3C400 435.3 440 426.7 480 428.3C520 430 560 442 600 449.2C640 456.3 680 458.7 720 460.7C760 462.7 800 464.3 840 464.5C880 464.7 920 463.3 940 462.7L960 462L960 541L940 541C920 541 880 541 840 541C800 541 760 541 720 541C680 541 640 541 600 541C560 541 520 541 480 541C440 541 400 541 360 541C320 541 280 541 240 541C200 541 160 541 120 541C80 541 40 541 20 541L0 541Z" fill="#6052e0"></path><path d="M0 489L20 491C40 493 80 497 120 491.7C160 486.3 200 471.7 240 472C280 472.3 320 487.7 360 490.5C400 493.3 440 483.7 480 478.2C520 472.7 560 471.3 600 467.8C640 464.3 680 458.7 720 453.7C760 448.7 800 444.3 840 445.2C880 446 920 452 940 455L960 458L960 541L940 541C920 541 880 541 840 541C800 541 760 541 720 541C680 541 640 541 600 541C560 541 520 541 480 541C440 541 400 541 360 541C320 541 280 541 240 541C200 541 160 541 120 541C80 541 40 541 20 541L0 541Z" fill="#544dda"></path><path d="M0 491L20 491C40 491 80 491 120 491.7C160 492.3 200 493.7 240 487.8C280 482 320 469 360 469.3C400 469.7 440 483.3 480 490.8C520 498.3 560 499.7 600 496.7C640 493.7 680 486.3 720 487.5C760 488.7 800 498.3 840 496.5C880 494.7 920 481.3 940 474.7L960 468L960 541L940 541C920 541 880 541 840 541C800 541 760 541 720 541C680 541 640 541 600 541C560 541 520 541 480 541C440 541 400 541 360 541C320 541 280 541 240 541C200 541 160 541 120 541C80 541 40 541 20 541L0 541Z" fill="#4647d3"></path><path d="M0 483L20 488.5C40 494 80 505 120 506.3C160 507.7 200 499.3 240 499.5C280 499.7 320 508.3 360 507.2C400 506 440 495 480 492.7C520 490.3 560 496.7 600 497.7C640 498.7 680 494.3 720 493.3C760 492.3 800 494.7 840 493C880 491.3 920 485.7 940 482.8L960 480L960 541L940 541C920 541 880 541 840 541C800 541 760 541 720 541C680 541 640 541 600 541C560 541 520 541 480 541C440 541 400 541 360 541C320 541 280 541 240 541C200 541 160 541 120 541C80 541 40 541 20 541L0 541Z" fill="#3742cd"></path><path d="M0 516L20 513.3C40 510.7 80 505.3 120 509.2C160 513 200 526 240 526.5C280 527 320 515 360 512.3C400 509.7 440 516.3 480 517.3C520 518.3 560 513.7 600 514.8C640 516 680 523 720 521.2C760 519.3 800 508.7 840 506.2C880 503.7 920 509.3 940 512.2L960 515L960 541L940 541C920 541 880 541 840 541C800 541 760 541 720 541C680 541 640 541 600 541C560 541 520 541 480 541C440 541 400 541 360 541C320 541 280 541 240 541C200 541 160 541 120 541C80 541 40 541 20 541L0 541Z" fill="#243dc7"></path></svg>