<svg id="visual" viewBox="0 0 960 540" width="960" height="540" xmlns="http://www.w3.org/2000/svg" xmlns:xlink="http://www.w3.org/1999/xlink" version="1.1"><rect x="0" y="0" width="960" height="540" fill="#931C1C"></rect><path d="M0 429L74 378L148 419L222 445L295 465L369 398L443 472L517 429L591 389L665 401L738 386L812 470L886 380L960 382L960 541L886 541L812 541L738 541L665 541L591 541L517 541L443 541L369 541L295 541L222 541L148 541L74 541L0 541Z" fill="#f5730a"></path><path d="M0 452L74 471L148 398L222 413L295 434L369 438L443 446L517 481L591 400L665 429L738 432L812 472L886 445L960 405L960 541L886 541L812 541L738 541L665 541L591 541L517 541L443 541L369 541L295 541L222 541L148 541L74 541L0 541Z" fill="#e7670a"></path><path d="M0 441L74 473L148 456L222 423L295 417L369 457L443 451L517 420L591 422L665 424L738 472L812 477L886 424L960 476L960 541L886 541L812 541L738 541L665 541L591 541L517 541L443 541L369 541L295 541L222 541L148 541L74 541L0 541Z" fill="#da5b09"></path><path d="M0 460L74 445L148 458L222 498L295 437L369 493L443 459L517 443L591 427L665 456L738 489L812 465L886 467L960 454L960 541L886 541L812 541L738 541L665 541L591 541L517 541L443 541L369 541L295 541L222 541L148 541L74 541L0 541Z" fill="#cc4f08"></path><path d="M0 460L74 449L148 469L222 448L295 486L369 445L443 497L517 472L591 502L665 497L738 484L812 478L886 495L960 447L960 541L886 541L812 541L738 541L665 541L591 541L517 541L443 541L369 541L295 541L222 541L148 541L74 541L0 541Z" fill="#be4407"></path><path d="M0 497L74 481L148 502L222 477L295 496L369 482L443 488L517 467L591 469L665 505L738 494L812 481L886 474L960 502L960 541L886 541L812 541L738 541L665 541L591 541L517 541L443 541L369 541L295 541L222 541L148 541L74 541L0 541Z" fill="#b03806"></path><path d="M0 502L74 499L148 515L222 487L295 506L369 485L443 508L517 500L591 518L665 474L738 505L812 492L886 494L960 513L960 541L886 541L812 541L738 541L665 541L591 541L517 541L443 541L369 541L295 541L222 541L148 541L74 541L0 541Z" fill="#a32d04"></path><path d="M0 528L74 493L148 530L222 493L295 527L369 516L443 519L517 494L591 506L665 521L738 504L812 498L886 523L960 513L960 541L886 541L812 541L738 541L665 541L591 541L517 541L443 541L369 541L295 541L222 541L148 541L74 541L0 541Z" fill="#952103"></path><path d="M0 527L74 538L148 517L222 532L295 515L369 521L443 526L517 519L591 520L665 507L738 523L812 527L886 537L960 510L960 541L886 541L812 541L738 541L665 541L591 541L517 541L443 541L369 541L295 541L222 541L148 541L74 541L0 541Z" fill="#871400"></path></svg>