<svg id="visual" viewBox="0 0 960 540" width="960" height="540" xmlns="http://www.w3.org/2000/svg" xmlns:xlink="http://www.w3.org/1999/xlink" version="1.1"><rect x="0" y="0" width="960" height="540" fill="#001220"></rect><path d="M0 419L20 422.5C40 426 80 433 120 439.3C160 445.7 200 451.3 240 443.2C280 435 320 413 360 413.2C400 413.3 440 435.7 480 443C520 450.3 560 442.7 600 437.5C640 432.3 680 429.7 720 422C760 414.3 800 401.7 840 405C880 408.3 920 427.7 940 437.3L960 447L960 541L940 541C920 541 880 541 840 541C800 541 760 541 720 541C680 541 640 541 600 541C560 541 520 541 480 541C440 541 400 541 360 541C320 541 280 541 240 541C200 541 160 541 120 541C80 541 40 541 20 541L0 541Z" fill="#8c69fa"></path><path d="M0 450L20 450.2C40 450.3 80 450.7 120 445.5C160 440.3 200 429.7 240 431.3C280 433 320 447 360 449.3C400 451.7 440 442.3 480 442.5C520 442.7 560 452.3 600 447.8C640 443.3 680 424.7 720 417.2C760 409.7 800 413.3 840 420.8C880 428.3 920 439.7 940 445.3L960 451L960 541L940 541C920 541 880 541 840 541C800 541 760 541 720 541C680 541 640 541 600 541C560 541 520 541 480 541C440 541 400 541 360 541C320 541 280 541 240 541C200 541 160 541 120 541C80 541 40 541 20 541L0 541Z" fill="#8163f3"></path><path d="M0 475L20 472C40 469 80 463 120 465.5C160 468 200 479 240 472.8C280 466.7 320 443.3 360 432.3C400 421.3 440 422.7 480 430.8C520 439 560 454 600 464.8C640 475.7 680 482.3 720 481.3C760 480.3 800 471.7 840 461.3C880 451 920 439 940 433L960 427L960 541L940 541C920 541 880 541 840 541C800 541 760 541 720 541C680 541 640 541 600 541C560 541 520 541 480 541C440 541 400 541 360 541C320 541 280 541 240 541C200 541 160 541 120 541C80 541 40 541 20 541L0 541Z" fill="#775ded"></path><path d="M0 447L20 454.2C40 461.3 80 475.7 120 474.3C160 473 200 456 240 456.5C280 457 320 475 360 473.8C400 472.7 440 452.3 480 441.2C520 430 560 428 600 430.5C640 433 680 440 720 445.8C760 451.7 800 456.3 840 452.8C880 449.3 920 437.7 940 431.8L960 426L960 541L940 541C920 541 880 541 840 541C800 541 760 541 720 541C680 541 640 541 600 541C560 541 520 541 480 541C440 541 400 541 360 541C320 541 280 541 240 541C200 541 160 541 120 541C80 541 40 541 20 541L0 541Z" fill="#6c58e6"></path><path d="M0 491L20 493.7C40 496.3 80 501.7 120 496C160 490.3 200 473.7 240 467C280 460.3 320 463.7 360 462.3C400 461 440 455 480 456.3C520 457.7 560 466.3 600 471.5C640 476.7 680 478.3 720 479.8C760 481.3 800 482.7 840 482.8C880 483 920 482 940 481.5L960 481L960 541L940 541C920 541 880 541 840 541C800 541 760 541 720 541C680 541 640 541 600 541C560 541 520 541 480 541C440 541 400 541 360 541C320 541 280 541 240 541C200 541 160 541 120 541C80 541 40 541 20 541L0 541Z" fill="#6052e0"></path><path d="M0 501L20 502.7C40 504.3 80 507.7 120 503.8C160 500 200 489 240 489.2C280 489.3 320 500.7 360 502.7C400 504.7 440 497.3 480 493.2C520 489 560 488 600 485.5C640 483 680 479 720 475.3C760 471.7 800 468.3 840 469C880 469.7 920 474.3 940 476.7L960 479L960 541L940 541C920 541 880 541 840 541C800 541 760 541 720 541C680 541 640 541 600 541C560 541 520 541 480 541C440 541 400 541 360 541C320 541 280 541 240 541C200 541 160 541 120 541C80 541 40 541 20 541L0 541Z" fill="#544dda"></path><path d="M0 503L20 503C40 503 80 503 120 503.5C160 504 200 505 240 500.7C280 496.3 320 486.7 360 487C400 487.3 440 497.7 480 503.2C520 508.7 560 509.3 600 507C640 504.7 680 499.3 720 500.3C760 501.3 800 508.7 840 507.3C880 506 920 496 940 491L960 486L960 541L940 541C920 541 880 541 840 541C800 541 760 541 720 541C680 541 640 541 600 541C560 541 520 541 480 541C440 541 400 541 360 541C320 541 280 541 240 541C200 541 160 541 120 541C80 541 40 541 20 541L0 541Z" fill="#4647d3"></path><path d="M0 497L20 501.2C40 505.3 80 513.7 120 514.7C160 515.7 200 509.3 240 509.5C280 509.7 320 516.3 360 515.5C400 514.7 440 506.3 480 504.5C520 502.7 560 507.3 600 508C640 508.7 680 505.3 720 504.5C760 503.7 800 505.3 840 504.2C880 503 920 499 940 497L960 495L960 541L940 541C920 541 880 541 840 541C800 541 760 541 720 541C680 541 640 541 600 541C560 541 520 541 480 541C440 541 400 541 360 541C320 541 280 541 240 541C200 541 160 541 120 541C80 541 40 541 20 541L0 541Z" fill="#3742cd"></path><path d="M0 522L20 520C40 518 80 514 120 516.8C160 519.7 200 529.3 240 529.7C280 530 320 521 360 519C400 517 440 522 480 522.8C520 523.7 560 520.3 600 521.2C640 522 680 527 720 525.5C760 524 800 516 840 514.2C880 512.3 920 516.7 940 518.8L960 521L960 541L940 541C920 541 880 541 840 541C800 541 760 541 720 541C680 541 640 541 600 541C560 541 520 541 480 541C440 541 400 541 360 541C320 541 280 541 240 541C200 541 160 541 120 541C80 541 40 541 20 541L0 541Z" fill="#243dc7"></path></svg>