<svg id="visual" viewBox="0 0 900 600" width="900" height="600" xmlns="http://www.w3.org/2000/svg" xmlns:xlink="http://www.w3.org/1999/xlink" version="1.1"><rect x="0" y="0" width="900" height="600" fill="#001220"></rect><path d="M0 512L16.7 504.2C33.3 496.3 66.7 480.7 100 469.5C133.3 458.3 166.7 451.7 200 439C233.3 426.3 266.7 407.7 300 397C333.3 386.3 366.7 383.7 400 374.3C433.3 365 466.7 349 500 349.7C533.3 350.3 566.7 367.7 600 377.3C633.3 387 666.7 389 700 379.5C733.3 370 766.7 349 800 350C833.3 351 866.7 374 883.3 385.5L900 397L900 0L883.3 0C866.7 0 833.3 0 800 0C766.7 0 733.3 0 700 0C666.7 0 633.3 0 600 0C566.7 0 533.3 0 500 0C466.7 0 433.3 0 400 0C366.7 0 333.3 0 300 0C266.7 0 233.3 0 200 0C166.7 0 133.3 0 100 0C66.7 0 33.3 0 16.7 0L0 0Z" fill="#d100ff"></path><path d="M0 454L16.7 428.2C33.3 402.3 66.7 350.7 100 320.2C133.3 289.7 166.7 280.3 200 305C233.3 329.7 266.7 388.3 300 402C333.3 415.7 366.7 384.3 400 381.7C433.3 379 466.7 405 500 398.3C533.3 391.7 566.7 352.3 600 329C633.3 305.7 666.7 298.3 700 314.3C733.3 330.3 766.7 369.7 800 372.3C833.3 375 866.7 341 883.3 324L900 307L900 0L883.3 0C866.7 0 833.3 0 800 0C766.7 0 733.3 0 700 0C666.7 0 633.3 0 600 0C566.7 0 533.3 0 500 0C466.7 0 433.3 0 400 0C366.7 0 333.3 0 300 0C266.7 0 233.3 0 200 0C166.7 0 133.3 0 100 0C66.7 0 33.3 0 16.7 0L0 0Z" fill="#a82ff0"></path><path d="M0 337L16.7 326C33.3 315 66.7 293 100 280C133.3 267 166.7 263 200 265.2C233.3 267.3 266.7 275.7 300 272.2C333.3 268.7 366.7 253.3 400 248.5C433.3 243.7 466.7 249.3 500 264C533.3 278.7 566.7 302.3 600 330.5C633.3 358.7 666.7 391.3 700 378.7C733.3 366 766.7 308 800 276.2C833.3 244.3 866.7 238.7 883.3 235.8L900 233L900 0L883.3 0C866.7 0 833.3 0 800 0C766.7 0 733.3 0 700 0C666.7 0 633.3 0 600 0C566.7 0 533.3 0 500 0C466.7 0 433.3 0 400 0C366.7 0 333.3 0 300 0C266.7 0 233.3 0 200 0C166.7 0 133.3 0 100 0C66.7 0 33.3 0 16.7 0L0 0Z" fill="#813bde"></path><path d="M0 311L16.7 312.5C33.3 314 66.7 317 100 320.2C133.3 323.3 166.7 326.7 200 333.5C233.3 340.3 266.7 350.7 300 349.2C333.3 347.7 366.7 334.3 400 323.2C433.3 312 466.7 303 500 299.7C533.3 296.3 566.7 298.7 600 292.8C633.3 287 666.7 273 700 260.5C733.3 248 766.7 237 800 234C833.3 231 866.7 236 883.3 238.5L900 241L900 0L883.3 0C866.7 0 833.3 0 800 0C766.7 0 733.3 0 700 0C666.7 0 633.3 0 600 0C566.7 0 533.3 0 500 0C466.7 0 433.3 0 400 0C366.7 0 333.3 0 300 0C266.7 0 233.3 0 200 0C166.7 0 133.3 0 100 0C66.7 0 33.3 0 16.7 0L0 0Z" fill="#5d3fc9"></path><path d="M0 255L16.7 241.2C33.3 227.3 66.7 199.7 100 197.8C133.3 196 166.7 220 200 234C233.3 248 266.7 252 300 244.8C333.3 237.7 366.7 219.3 400 221.3C433.3 223.3 466.7 245.7 500 254.3C533.3 263 566.7 258 600 265.7C633.3 273.3 666.7 293.7 700 301.3C733.3 309 766.7 304 800 294.2C833.3 284.3 866.7 269.7 883.3 262.3L900 255L900 0L883.3 0C866.7 0 833.3 0 800 0C766.7 0 733.3 0 700 0C666.7 0 633.3 0 600 0C566.7 0 533.3 0 500 0C466.7 0 433.3 0 400 0C366.7 0 333.3 0 300 0C266.7 0 233.3 0 200 0C166.7 0 133.3 0 100 0C66.7 0 33.3 0 16.7 0L0 0Z" fill="#3b3eb1"></path><path d="M0 144L16.7 158.8C33.3 173.7 66.7 203.3 100 212.3C133.3 221.3 166.7 209.7 200 210.3C233.3 211 266.7 224 300 219.8C333.3 215.7 366.7 194.3 400 177.7C433.3 161 466.7 149 500 140.7C533.3 132.3 566.7 127.7 600 143.5C633.3 159.3 666.7 195.7 700 215.5C733.3 235.3 766.7 238.7 800 234.8C833.3 231 866.7 220 883.3 214.5L900 209L900 0L883.3 0C866.7 0 833.3 0 800 0C766.7 0 733.3 0 700 0C666.7 0 633.3 0 600 0C566.7 0 533.3 0 500 0C466.7 0 433.3 0 400 0C366.7 0 333.3 0 300 0C266.7 0 233.3 0 200 0C166.7 0 133.3 0 100 0C66.7 0 33.3 0 16.7 0L0 0Z" fill="#1b3a97"></path><path d="M0 175L16.7 163.2C33.3 151.3 66.7 127.7 100 115.5C133.3 103.3 166.7 102.7 200 107.2C233.3 111.7 266.7 121.3 300 123.3C333.3 125.3 366.7 119.7 400 126.2C433.3 132.7 466.7 151.3 500 162.5C533.3 173.7 566.7 177.3 600 167.2C633.3 157 666.7 133 700 123.8C733.3 114.7 766.7 120.3 800 122.3C833.3 124.3 866.7 122.7 883.3 121.8L900 121L900 0L883.3 0C866.7 0 833.3 0 800 0C766.7 0 733.3 0 700 0C666.7 0 633.3 0 600 0C566.7 0 533.3 0 500 0C466.7 0 433.3 0 400 0C366.7 0 333.3 0 300 0C266.7 0 233.3 0 200 0C166.7 0 133.3 0 100 0C66.7 0 33.3 0 16.7 0L0 0Z" fill="#00337c"></path><path d="M0 57L16.7 65.8C33.3 74.7 66.7 92.3 100 94.3C133.3 96.3 166.7 82.7 200 76.2C233.3 69.7 266.7 70.3 300 75.7C333.3 81 366.7 91 400 102.7C433.3 114.3 466.7 127.7 500 134.2C533.3 140.7 566.7 140.3 600 131.8C633.3 123.3 666.7 106.7 700 98.7C733.3 90.7 766.7 91.3 800 102C833.3 112.7 866.7 133.3 883.3 143.7L900 154L900 0L883.3 0C866.7 0 833.3 0 800 0C766.7 0 733.3 0 700 0C666.7 0 633.3 0 600 0C566.7 0 533.3 0 500 0C466.7 0 433.3 0 400 0C366.7 0 333.3 0 300 0C266.7 0 233.3 0 200 0C166.7 0 133.3 0 100 0C66.7 0 33.3 0 16.7 0L0 0Z" fill="#002b60"></path><path d="M0 74L16.7 66.7C33.3 59.3 66.7 44.7 100 43.5C133.3 42.3 166.7 54.7 200 59.3C233.3 64 266.7 61 300 62.8C333.3 64.7 366.7 71.3 400 69.3C433.3 67.3 466.7 56.7 500 50.7C533.3 44.7 566.7 43.3 600 40.5C633.3 37.7 666.7 33.3 700 35C733.3 36.7 766.7 44.3 800 46C833.3 47.7 866.7 43.3 883.3 41.2L900 39L900 0L883.3 0C866.7 0 833.3 0 800 0C766.7 0 733.3 0 700 0C666.7 0 633.3 0 600 0C566.7 0 533.3 0 500 0C466.7 0 433.3 0 400 0C366.7 0 333.3 0 300 0C266.7 0 233.3 0 200 0C166.7 0 133.3 0 100 0C66.7 0 33.3 0 16.7 0L0 0Z" fill="#022244"></path></svg>