<svg id="visual" viewBox="0 0 960 540" width="960" height="540" xmlns="http://www.w3.org/2000/svg" xmlns:xlink="http://www.w3.org/1999/xlink" version="1.1"><rect x="0" y="0" width="960" height="540" fill="#931C1C"></rect><path d="M0 400L74 411L148 433L222 452L295 390L369 467L443 442L517 418L591 420L665 441L738 432L812 447L886 451L960 377L960 541L886 541L812 541L738 541L665 541L591 541L517 541L443 541L369 541L295 541L222 541L148 541L74 541L0 541Z" fill="#f5730a"></path><path d="M0 407L74 436L148 397L222 436L295 453L369 452L443 467L517 415L591 454L665 406L738 457L812 429L886 463L960 458L960 541L886 541L812 541L738 541L665 541L591 541L517 541L443 541L369 541L295 541L222 541L148 541L74 541L0 541Z" fill="#e7670a"></path><path d="M0 417L74 468L148 463L222 435L295 470L369 436L443 432L517 424L591 433L665 475L738 433L812 474L886 485L960 413L960 541L886 541L812 541L738 541L665 541L591 541L517 541L443 541L369 541L295 541L222 541L148 541L74 541L0 541Z" fill="#da5b09"></path><path d="M0 431L74 450L148 457L222 457L295 493L369 444L443 463L517 495L591 469L665 440L738 468L812 497L886 437L960 462L960 541L886 541L812 541L738 541L665 541L591 541L517 541L443 541L369 541L295 541L222 541L148 541L74 541L0 541Z" fill="#cc4f08"></path><path d="M0 458L74 478L148 458L222 444L295 482L369 467L443 458L517 457L591 476L665 499L738 455L812 452L886 466L960 486L960 541L886 541L812 541L738 541L665 541L591 541L517 541L443 541L369 541L295 541L222 541L148 541L74 541L0 541Z" fill="#be4407"></path><path d="M0 500L74 508L148 514L222 460L295 464L369 497L443 490L517 476L591 492L665 497L738 475L812 470L886 502L960 485L960 541L886 541L812 541L738 541L665 541L591 541L517 541L443 541L369 541L295 541L222 541L148 541L74 541L0 541Z" fill="#b03806"></path><path d="M0 512L74 499L148 492L222 507L295 508L369 493L443 522L517 474L591 515L665 490L738 477L812 496L886 519L960 486L960 541L886 541L812 541L738 541L665 541L591 541L517 541L443 541L369 541L295 541L222 541L148 541L74 541L0 541Z" fill="#a32d04"></path><path d="M0 501L74 516L148 519L222 497L295 492L369 495L443 522L517 493L591 499L665 508L738 495L812 502L886 505L960 501L960 541L886 541L812 541L738 541L665 541L591 541L517 541L443 541L369 541L295 541L222 541L148 541L74 541L0 541Z" fill="#952103"></path><path d="M0 522L74 538L148 534L222 536L295 534L369 510L443 510L517 516L591 518L665 507L738 523L812 508L886 537L960 536L960 541L886 541L812 541L738 541L665 541L591 541L517 541L443 541L369 541L295 541L222 541L148 541L74 541L0 541Z" fill="#871400"></path></svg>