<svg id="visual" viewBox="0 0 900 600" width="900" height="600" xmlns="http://www.w3.org/2000/svg" xmlns:xlink="http://www.w3.org/1999/xlink" version="1.1"><rect x="0" y="0" width="900" height="600" fill="#001220"></rect><path d="M0 178L16.7 172C33.3 166 66.7 154 100 145C133.3 136 166.7 130 200 141.7C233.3 153.3 266.7 182.7 300 192.8C333.3 203 366.7 194 400 193.5C433.3 193 466.7 201 500 193.3C533.3 185.7 566.7 162.3 600 149.2C633.3 136 666.7 133 700 144.8C733.3 156.7 766.7 183.3 800 195C833.3 206.7 866.7 203.3 883.3 201.7L900 200L900 0L883.3 0C866.7 0 833.3 0 800 0C766.7 0 733.3 0 700 0C666.7 0 633.3 0 600 0C566.7 0 533.3 0 500 0C466.7 0 433.3 0 400 0C366.7 0 333.3 0 300 0C266.7 0 233.3 0 200 0C166.7 0 133.3 0 100 0C66.7 0 33.3 0 16.7 0L0 0Z" fill="#d100ff"></path><path d="M0 146L16.7 149.8C33.3 153.7 66.7 161.3 100 161.2C133.3 161 166.7 153 200 148.7C233.3 144.3 266.7 143.7 300 145C333.3 146.3 366.7 149.7 400 142.2C433.3 134.7 466.7 116.3 500 117.7C533.3 119 566.7 140 600 137.8C633.3 135.7 666.7 110.3 700 96C733.3 81.7 766.7 78.3 800 84.5C833.3 90.7 866.7 106.3 883.3 114.2L900 122L900 0L883.3 0C866.7 0 833.3 0 800 0C766.7 0 733.3 0 700 0C666.7 0 633.3 0 600 0C566.7 0 533.3 0 500 0C466.7 0 433.3 0 400 0C366.7 0 333.3 0 300 0C266.7 0 233.3 0 200 0C166.7 0 133.3 0 100 0C66.7 0 33.3 0 16.7 0L0 0Z" fill="#683ed0"></path><path d="M0 94L16.7 87C33.3 80 66.7 66 100 65C133.3 64 166.7 76 200 88C233.3 100 266.7 112 300 116.7C333.3 121.3 366.7 118.7 400 113.5C433.3 108.3 466.7 100.7 500 98C533.3 95.3 566.7 97.7 600 90.8C633.3 84 666.7 68 700 65.5C733.3 63 766.7 74 800 80.5C833.3 87 866.7 89 883.3 90L900 91L900 0L883.3 0C866.7 0 833.3 0 800 0C766.7 0 733.3 0 700 0C666.7 0 633.3 0 600 0C566.7 0 533.3 0 500 0C466.7 0 433.3 0 400 0C366.7 0 333.3 0 300 0C266.7 0 233.3 0 200 0C166.7 0 133.3 0 100 0C66.7 0 33.3 0 16.7 0L0 0Z" fill="#10388e"></path><path d="M0 52L16.7 48.5C33.3 45 66.7 38 100 37.7C133.3 37.3 166.7 43.7 200 43.2C233.3 42.7 266.7 35.3 300 37.5C333.3 39.7 366.7 51.3 400 50.3C433.3 49.3 466.7 35.7 500 37.7C533.3 39.7 566.7 57.3 600 58C633.3 58.7 666.7 42.3 700 37.8C733.3 33.3 766.7 40.7 800 38.7C833.3 36.7 866.7 25.3 883.3 19.7L900 14L900 0L883.3 0C866.7 0 833.3 0 800 0C766.7 0 733.3 0 700 0C666.7 0 633.3 0 600 0C566.7 0 533.3 0 500 0C466.7 0 433.3 0 400 0C366.7 0 333.3 0 300 0C266.7 0 233.3 0 200 0C166.7 0 133.3 0 100 0C66.7 0 33.3 0 16.7 0L0 0Z" fill="#022244"></path></svg>