<svg id="visual" viewBox="0 0 960 540" width="960" height="540" xmlns="http://www.w3.org/2000/svg" xmlns:xlink="http://www.w3.org/1999/xlink" version="1.1"><rect x="0" y="0" width="960" height="540" fill="#001220"></rect><path d="M0 217L17.8 205.3C35.7 193.7 71.3 170.3 106.8 176.8C142.3 183.3 177.7 219.7 213.2 206.3C248.7 193 284.3 130 320 113.3C355.7 96.7 391.3 126.3 426.8 125.3C462.3 124.3 497.7 92.7 533.2 97C568.7 101.3 604.3 141.7 640 145.7C675.7 149.7 711.3 117.3 746.8 114C782.3 110.7 817.7 136.3 853.2 160.2C888.7 184 924.3 206 942.2 217L960 228L960 541L942.2 541C924.3 541 888.7 541 853.2 541C817.7 541 782.3 541 746.8 541C711.3 541 675.7 541 640 541C604.3 541 568.7 541 533.2 541C497.7 541 462.3 541 426.8 541C391.3 541 355.7 541 320 541C284.3 541 248.7 541 213.2 541C177.7 541 142.3 541 106.8 541C71.3 541 35.7 541 17.8 541L0 541Z" fill="#d100ff"></path><path d="M0 223L17.8 219.3C35.7 215.7 71.3 208.3 106.8 190.7C142.3 173 177.7 145 213.2 132.5C248.7 120 284.3 123 320 142.5C355.7 162 391.3 198 426.8 220.3C462.3 242.7 497.7 251.3 533.2 256.8C568.7 262.3 604.3 264.7 640 259.7C675.7 254.7 711.3 242.3 746.8 234.7C782.3 227 817.7 224 853.2 212.2C888.7 200.3 924.3 179.7 942.2 169.3L960 159L960 541L942.2 541C924.3 541 888.7 541 853.2 541C817.7 541 782.3 541 746.8 541C711.3 541 675.7 541 640 541C604.3 541 568.7 541 533.2 541C497.7 541 462.3 541 426.8 541C391.3 541 355.7 541 320 541C284.3 541 248.7 541 213.2 541C177.7 541 142.3 541 106.8 541C71.3 541 35.7 541 17.8 541L0 541Z" fill="#a82ff0"></path><path d="M0 264L17.8 246.3C35.7 228.7 71.3 193.3 106.8 190.2C142.3 187 177.7 216 213.2 216C248.7 216 284.3 187 320 172.2C355.7 157.3 391.3 156.7 426.8 168.8C462.3 181 497.7 206 533.2 214.3C568.7 222.7 604.3 214.3 640 217.5C675.7 220.7 711.3 235.3 746.8 252.7C782.3 270 817.7 290 853.2 279.5C888.7 269 924.3 228 942.2 207.5L960 187L960 541L942.2 541C924.3 541 888.7 541 853.2 541C817.7 541 782.3 541 746.8 541C711.3 541 675.7 541 640 541C604.3 541 568.7 541 533.2 541C497.7 541 462.3 541 426.8 541C391.3 541 355.7 541 320 541C284.3 541 248.7 541 213.2 541C177.7 541 142.3 541 106.8 541C71.3 541 35.7 541 17.8 541L0 541Z" fill="#813bde"></path><path d="M0 305L17.8 295.5C35.7 286 71.3 267 106.8 251.5C142.3 236 177.7 224 213.2 243.8C248.7 263.7 284.3 315.3 320 320.7C355.7 326 391.3 285 426.8 280.5C462.3 276 497.7 308 533.2 327.8C568.7 347.7 604.3 355.3 640 344C675.7 332.7 711.3 302.3 746.8 274.8C782.3 247.3 817.7 222.7 853.2 219.7C888.7 216.7 924.3 235.3 942.2 244.7L960 254L960 541L942.2 541C924.3 541 888.7 541 853.2 541C817.7 541 782.3 541 746.8 541C711.3 541 675.7 541 640 541C604.3 541 568.7 541 533.2 541C497.7 541 462.3 541 426.8 541C391.3 541 355.7 541 320 541C284.3 541 248.7 541 213.2 541C177.7 541 142.3 541 106.8 541C71.3 541 35.7 541 17.8 541L0 541Z" fill="#5d3fc9"></path><path d="M0 319L17.8 319.5C35.7 320 71.3 321 106.8 329.2C142.3 337.3 177.7 352.7 213.2 362C248.7 371.3 284.3 374.7 320 361.5C355.7 348.3 391.3 318.7 426.8 300.5C462.3 282.3 497.7 275.7 533.2 287.5C568.7 299.3 604.3 329.7 640 329.3C675.7 329 711.3 298 746.8 285.3C782.3 272.7 817.7 278.3 853.2 289C888.7 299.7 924.3 315.3 942.2 323.2L960 331L960 541L942.2 541C924.3 541 888.7 541 853.2 541C817.7 541 782.3 541 746.8 541C711.3 541 675.7 541 640 541C604.3 541 568.7 541 533.2 541C497.7 541 462.3 541 426.8 541C391.3 541 355.7 541 320 541C284.3 541 248.7 541 213.2 541C177.7 541 142.3 541 106.8 541C71.3 541 35.7 541 17.8 541L0 541Z" fill="#3b3eb1"></path><path d="M0 426L17.8 412.2C35.7 398.3 71.3 370.7 106.8 358.5C142.3 346.3 177.7 349.7 213.2 349C248.7 348.3 284.3 343.7 320 355C355.7 366.3 391.3 393.7 426.8 401.2C462.3 408.7 497.7 396.3 533.2 394C568.7 391.7 604.3 399.3 640 401.8C675.7 404.3 711.3 401.7 746.8 393.8C782.3 386 817.7 373 853.2 364.8C888.7 356.7 924.3 353.3 942.2 351.7L960 350L960 541L942.2 541C924.3 541 888.7 541 853.2 541C817.7 541 782.3 541 746.8 541C711.3 541 675.7 541 640 541C604.3 541 568.7 541 533.2 541C497.7 541 462.3 541 426.8 541C391.3 541 355.7 541 320 541C284.3 541 248.7 541 213.2 541C177.7 541 142.3 541 106.8 541C71.3 541 35.7 541 17.8 541L0 541Z" fill="#1b3a97"></path><path d="M0 349L17.8 362.2C35.7 375.3 71.3 401.7 106.8 418C142.3 434.3 177.7 440.7 213.2 444.2C248.7 447.7 284.3 448.3 320 447.2C355.7 446 391.3 443 426.8 429C462.3 415 497.7 390 533.2 382.7C568.7 375.3 604.3 385.7 640 386.5C675.7 387.3 711.3 378.7 746.8 384.5C782.3 390.3 817.7 410.7 853.2 416.2C888.7 421.7 924.3 412.3 942.2 407.7L960 403L960 541L942.2 541C924.3 541 888.7 541 853.2 541C817.7 541 782.3 541 746.8 541C711.3 541 675.7 541 640 541C604.3 541 568.7 541 533.2 541C497.7 541 462.3 541 426.8 541C391.3 541 355.7 541 320 541C284.3 541 248.7 541 213.2 541C177.7 541 142.3 541 106.8 541C71.3 541 35.7 541 17.8 541L0 541Z" fill="#00337c"></path><path d="M0 479L17.8 477.7C35.7 476.3 71.3 473.7 106.8 463C142.3 452.3 177.7 433.7 213.2 436.8C248.7 440 284.3 465 320 467.8C355.7 470.7 391.3 451.3 426.8 446.5C462.3 441.7 497.7 451.3 533.2 455.2C568.7 459 604.3 457 640 449C675.7 441 711.3 427 746.8 421.8C782.3 416.7 817.7 420.3 853.2 425.5C888.7 430.7 924.3 437.3 942.2 440.7L960 444L960 541L942.2 541C924.3 541 888.7 541 853.2 541C817.7 541 782.3 541 746.8 541C711.3 541 675.7 541 640 541C604.3 541 568.7 541 533.2 541C497.7 541 462.3 541 426.8 541C391.3 541 355.7 541 320 541C284.3 541 248.7 541 213.2 541C177.7 541 142.3 541 106.8 541C71.3 541 35.7 541 17.8 541L0 541Z" fill="#002b60"></path><path d="M0 511L17.8 510C35.7 509 71.3 507 106.8 505.8C142.3 504.7 177.7 504.3 213.2 507.2C248.7 510 284.3 516 320 508.8C355.7 501.7 391.3 481.3 426.8 470.8C462.3 460.3 497.7 459.7 533.2 468.5C568.7 477.3 604.3 495.7 640 494.3C675.7 493 711.3 472 746.8 467.7C782.3 463.3 817.7 475.7 853.2 484.3C888.7 493 924.3 498 942.2 500.5L960 503L960 541L942.2 541C924.3 541 888.7 541 853.2 541C817.7 541 782.3 541 746.8 541C711.3 541 675.7 541 640 541C604.3 541 568.7 541 533.2 541C497.7 541 462.3 541 426.8 541C391.3 541 355.7 541 320 541C284.3 541 248.7 541 213.2 541C177.7 541 142.3 541 106.8 541C71.3 541 35.7 541 17.8 541L0 541Z" fill="#022244"></path></svg>