<svg id="visual" viewBox="0 0 960 540" width="960" height="540" xmlns="http://www.w3.org/2000/svg" xmlns:xlink="http://www.w3.org/1999/xlink" version="1.1"><rect x="0" y="0" width="960" height="540" fill="#931C1C"></rect><path d="M0 447L74 397L148 462L222 387L295 454L369 396L443 455L517 465L591 439L665 453L738 416L812 411L886 459L960 465L960 541L886 541L812 541L738 541L665 541L591 541L517 541L443 541L369 541L295 541L222 541L148 541L74 541L0 541Z" fill="#f5730a"></path><path d="M0 422L74 421L148 467L222 482L295 467L369 435L443 425L517 398L591 397L665 406L738 397L812 460L886 426L960 476L960 541L886 541L812 541L738 541L665 541L591 541L517 541L443 541L369 541L295 541L222 541L148 541L74 541L0 541Z" fill="#e7670a"></path><path d="M0 423L74 487L148 486L222 449L295 483L369 463L443 418L517 434L591 435L665 466L738 482L812 481L886 455L960 461L960 541L886 541L812 541L738 541L665 541L591 541L517 541L443 541L369 541L295 541L222 541L148 541L74 541L0 541Z" fill="#da5b09"></path><path d="M0 492L74 434L148 441L222 471L295 454L369 455L443 429L517 484L591 457L665 429L738 462L812 484L886 450L960 487L960 541L886 541L812 541L738 541L665 541L591 541L517 541L443 541L369 541L295 541L222 541L148 541L74 541L0 541Z" fill="#cc4f08"></path><path d="M0 443L74 474L148 454L222 444L295 443L369 486L443 446L517 494L591 487L665 471L738 487L812 447L886 459L960 462L960 541L886 541L812 541L738 541L665 541L591 541L517 541L443 541L369 541L295 541L222 541L148 541L74 541L0 541Z" fill="#be4407"></path><path d="M0 492L74 481L148 490L222 515L295 484L369 472L443 501L517 509L591 507L665 469L738 460L812 504L886 479L960 466L960 541L886 541L812 541L738 541L665 541L591 541L517 541L443 541L369 541L295 541L222 541L148 541L74 541L0 541Z" fill="#b03806"></path><path d="M0 482L74 508L148 510L222 504L295 488L369 518L443 505L517 477L591 499L665 515L738 503L812 514L886 505L960 476L960 541L886 541L812 541L738 541L665 541L591 541L517 541L443 541L369 541L295 541L222 541L148 541L74 541L0 541Z" fill="#a32d04"></path><path d="M0 512L74 499L148 525L222 502L295 508L369 498L443 530L517 524L591 513L665 499L738 495L812 521L886 497L960 498L960 541L886 541L812 541L738 541L665 541L591 541L517 541L443 541L369 541L295 541L222 541L148 541L74 541L0 541Z" fill="#952103"></path><path d="M0 508L74 532L148 538L222 527L295 507L369 534L443 508L517 514L591 538L665 511L738 517L812 513L886 525L960 507L960 541L886 541L812 541L738 541L665 541L591 541L517 541L443 541L369 541L295 541L222 541L148 541L74 541L0 541Z" fill="#871400"></path></svg>