<svg id="visual" viewBox="0 0 960 540" width="960" height="540" xmlns="http://www.w3.org/2000/svg" xmlns:xlink="http://www.w3.org/1999/xlink" version="1.1"><rect x="0" y="0" width="960" height="540" fill="#931C1C"></rect><path d="M0 454L74 401L148 383L222 412L295 428L369 455L443 447L517 382L591 419L665 451L738 396L812 457L886 412L960 446L960 541L886 541L812 541L738 541L665 541L591 541L517 541L443 541L369 541L295 541L222 541L148 541L74 541L0 541Z" fill="#f5730a"></path><path d="M0 429L74 429L148 420L222 424L295 397L369 432L443 455L517 405L591 434L665 436L738 428L812 463L886 480L960 400L960 541L886 541L812 541L738 541L665 541L591 541L517 541L443 541L369 541L295 541L222 541L148 541L74 541L0 541Z" fill="#e7670a"></path><path d="M0 479L74 452L148 421L222 489L295 429L369 460L443 415L517 471L591 427L665 477L738 468L812 428L886 483L960 437L960 541L886 541L812 541L738 541L665 541L591 541L517 541L443 541L369 541L295 541L222 541L148 541L74 541L0 541Z" fill="#da5b09"></path><path d="M0 433L74 467L148 491L222 442L295 470L369 434L443 435L517 454L591 468L665 484L738 481L812 432L886 471L960 431L960 541L886 541L812 541L738 541L665 541L591 541L517 541L443 541L369 541L295 541L222 541L148 541L74 541L0 541Z" fill="#cc4f08"></path><path d="M0 463L74 492L148 478L222 485L295 444L369 491L443 481L517 460L591 448L665 473L738 491L812 453L886 469L960 496L960 541L886 541L812 541L738 541L665 541L591 541L517 541L443 541L369 541L295 541L222 541L148 541L74 541L0 541Z" fill="#be4407"></path><path d="M0 464L74 496L148 482L222 494L295 462L369 490L443 478L517 471L591 513L665 490L738 462L812 465L886 496L960 465L960 541L886 541L812 541L738 541L665 541L591 541L517 541L443 541L369 541L295 541L222 541L148 541L74 541L0 541Z" fill="#b03806"></path><path d="M0 518L74 497L148 518L222 477L295 475L369 489L443 488L517 488L591 522L665 511L738 486L812 509L886 479L960 487L960 541L886 541L812 541L738 541L665 541L591 541L517 541L443 541L369 541L295 541L222 541L148 541L74 541L0 541Z" fill="#a32d04"></path><path d="M0 493L74 506L148 493L222 504L295 504L369 519L443 516L517 522L591 503L665 530L738 501L812 528L886 494L960 505L960 541L886 541L812 541L738 541L665 541L591 541L517 541L443 541L369 541L295 541L222 541L148 541L74 541L0 541Z" fill="#952103"></path><path d="M0 509L74 529L148 521L222 534L295 515L369 531L443 520L517 512L591 538L665 519L738 536L812 539L886 532L960 526L960 541L886 541L812 541L738 541L665 541L591 541L517 541L443 541L369 541L295 541L222 541L148 541L74 541L0 541Z" fill="#871400"></path></svg>