<svg id="visual" viewBox="0 0 900 600" width="900" height="600" xmlns="http://www.w3.org/2000/svg" xmlns:xlink="http://www.w3.org/1999/xlink" version="1.1"><rect x="0" y="0" width="900" height="600" fill="#001220"></rect><path d="M0 466L18.8 469.8C37.7 473.7 75.3 481.3 112.8 488.3C150.3 495.3 187.7 501.7 225.2 492.7C262.7 483.7 300.3 459.3 337.8 459.3C375.3 459.3 412.7 483.7 450.2 491.7C487.7 499.7 525.3 491.3 562.8 485.8C600.3 480.3 637.7 477.7 675.2 469.2C712.7 460.7 750.3 446.3 787.8 450C825.3 453.7 862.7 475.3 881.3 486.2L900 497L900 601L881.3 601C862.7 601 825.3 601 787.8 601C750.3 601 712.7 601 675.2 601C637.7 601 600.3 601 562.8 601C525.3 601 487.7 601 450.2 601C412.7 601 375.3 601 337.8 601C300.3 601 262.7 601 225.2 601C187.7 601 150.3 601 112.8 601C75.3 601 37.7 601 18.8 601L0 601Z" fill="#8c69fa"></path><path d="M0 500L18.8 500.2C37.7 500.3 75.3 500.7 112.8 495C150.3 489.3 187.7 477.7 225.2 479.5C262.7 481.3 300.3 496.7 337.8 499.3C375.3 502 412.7 492 450.2 492.3C487.7 492.7 525.3 503.3 562.8 498.2C600.3 493 637.7 472 675.2 463.5C712.7 455 750.3 459 787.8 467.3C825.3 475.7 862.7 488.3 881.3 494.7L900 501L900 601L881.3 601C862.7 601 825.3 601 787.8 601C750.3 601 712.7 601 675.2 601C637.7 601 600.3 601 562.8 601C525.3 601 487.7 601 450.2 601C412.7 601 375.3 601 337.8 601C300.3 601 262.7 601 225.2 601C187.7 601 150.3 601 112.8 601C75.3 601 37.7 601 18.8 601L0 601Z" fill="#8163f3"></path><path d="M0 528L18.8 524.7C37.7 521.3 75.3 514.7 112.8 517.5C150.3 520.3 187.7 532.7 225.2 525.8C262.7 519 300.3 493 337.8 480.8C375.3 468.7 412.7 470.3 450.2 479.3C487.7 488.3 525.3 504.7 562.8 516.5C600.3 528.3 637.7 535.7 675.2 534.5C712.7 533.3 750.3 523.7 787.8 512.3C825.3 501 862.7 488 881.3 481.5L900 475L900 601L881.3 601C862.7 601 825.3 601 787.8 601C750.3 601 712.7 601 675.2 601C637.7 601 600.3 601 562.8 601C525.3 601 487.7 601 450.2 601C412.7 601 375.3 601 337.8 601C300.3 601 262.7 601 225.2 601C187.7 601 150.3 601 112.8 601C75.3 601 37.7 601 18.8 601L0 601Z" fill="#775ded"></path><path d="M0 497L18.8 505C37.7 513 75.3 529 112.8 527.5C150.3 526 187.7 507 225.2 507.3C262.7 507.7 300.3 527.3 337.8 526C375.3 524.7 412.7 502.3 450.2 490C487.7 477.7 525.3 475.3 562.8 478.2C600.3 481 637.7 489 675.2 495.5C712.7 502 750.3 507 787.8 503.2C825.3 499.3 862.7 486.7 881.3 480.3L900 474L900 601L881.3 601C862.7 601 825.3 601 787.8 601C750.3 601 712.7 601 675.2 601C637.7 601 600.3 601 562.8 601C525.3 601 487.7 601 450.2 601C412.7 601 375.3 601 337.8 601C300.3 601 262.7 601 225.2 601C187.7 601 150.3 601 112.8 601C75.3 601 37.7 601 18.8 601L0 601Z" fill="#6c58e6"></path><path d="M0 545L18.8 548C37.7 551 75.3 557 112.8 550.8C150.3 544.7 187.7 526.3 225.2 519.2C262.7 512 300.3 516 337.8 514.5C375.3 513 412.7 506 450.2 507.3C487.7 508.7 525.3 518.3 562.8 524.2C600.3 530 637.7 532 675.2 533.7C712.7 535.3 750.3 536.7 787.8 536.8C825.3 537 862.7 536 881.3 535.5L900 535L900 601L881.3 601C862.7 601 825.3 601 787.8 601C750.3 601 712.7 601 675.2 601C637.7 601 600.3 601 562.8 601C525.3 601 487.7 601 450.2 601C412.7 601 375.3 601 337.8 601C300.3 601 262.7 601 225.2 601C187.7 601 150.3 601 112.8 601C75.3 601 37.7 601 18.8 601L0 601Z" fill="#6052e0"></path><path d="M0 557L18.8 558.8C37.7 560.7 75.3 564.3 112.8 560C150.3 555.7 187.7 543.3 225.2 543.5C262.7 543.7 300.3 556.3 337.8 558.7C375.3 561 412.7 553 450.2 548.3C487.7 543.7 525.3 542.3 562.8 539.5C600.3 536.7 637.7 532.3 675.2 528.3C712.7 524.3 750.3 520.7 787.8 521.3C825.3 522 862.7 527 881.3 529.5L900 532L900 601L881.3 601C862.7 601 825.3 601 787.8 601C750.3 601 712.7 601 675.2 601C637.7 601 600.3 601 562.8 601C525.3 601 487.7 601 450.2 601C412.7 601 375.3 601 337.8 601C300.3 601 262.7 601 225.2 601C187.7 601 150.3 601 112.8 601C75.3 601 37.7 601 18.8 601L0 601Z" fill="#544dda"></path><path d="M0 559L18.8 559C37.7 559 75.3 559 112.8 559.5C150.3 560 187.7 561 225.2 556.2C262.7 551.3 300.3 540.7 337.8 541C375.3 541.3 412.7 552.7 450.2 558.8C487.7 565 525.3 566 562.8 563.5C600.3 561 637.7 555 675.2 556C712.7 557 750.3 565 787.8 563.5C825.3 562 862.7 551 881.3 545.5L900 540L900 601L881.3 601C862.7 601 825.3 601 787.8 601C750.3 601 712.7 601 675.2 601C637.7 601 600.3 601 562.8 601C525.3 601 487.7 601 450.2 601C412.7 601 375.3 601 337.8 601C300.3 601 262.7 601 225.2 601C187.7 601 150.3 601 112.8 601C75.3 601 37.7 601 18.8 601L0 601Z" fill="#4647d3"></path><path d="M0 552L18.8 556.7C37.7 561.3 75.3 570.7 112.8 571.8C150.3 573 187.7 566 225.2 566.2C262.7 566.3 300.3 573.7 337.8 572.7C375.3 571.7 412.7 562.3 450.2 560.3C487.7 558.3 525.3 563.7 562.8 564.5C600.3 565.3 637.7 561.7 675.2 560.8C712.7 560 750.3 562 787.8 560.7C825.3 559.3 862.7 554.7 881.3 552.3L900 550L900 601L881.3 601C862.7 601 825.3 601 787.8 601C750.3 601 712.7 601 675.2 601C637.7 601 600.3 601 562.8 601C525.3 601 487.7 601 450.2 601C412.7 601 375.3 601 337.8 601C300.3 601 262.7 601 225.2 601C187.7 601 150.3 601 112.8 601C75.3 601 37.7 601 18.8 601L0 601Z" fill="#3742cd"></path><path d="M0 580L18.8 577.8C37.7 575.7 75.3 571.3 112.8 574.5C150.3 577.7 187.7 588.3 225.2 588.7C262.7 589 300.3 579 337.8 576.7C375.3 574.3 412.7 579.7 450.2 580.5C487.7 581.3 525.3 577.7 562.8 578.7C600.3 579.7 637.7 585.3 675.2 583.8C712.7 582.3 750.3 573.7 787.8 571.7C825.3 569.7 862.7 574.3 881.3 576.7L900 579L900 601L881.3 601C862.7 601 825.3 601 787.8 601C750.3 601 712.7 601 675.2 601C637.7 601 600.3 601 562.8 601C525.3 601 487.7 601 450.2 601C412.7 601 375.3 601 337.8 601C300.3 601 262.7 601 225.2 601C187.7 601 150.3 601 112.8 601C75.3 601 37.7 601 18.8 601L0 601Z" fill="#243dc7"></path></svg>