<svg id="visual" viewBox="0 0 960 540" width="960" height="540" xmlns="http://www.w3.org/2000/svg" xmlns:xlink="http://www.w3.org/1999/xlink" version="1.1"><rect x="0" y="0" width="960" height="540" fill="#931C1C"></rect><path d="M0 383L74 384L148 474L222 445L295 414L369 442L443 401L517 437L591 440L665 464L738 389L812 425L886 468L960 457L960 541L886 541L812 541L738 541L665 541L591 541L517 541L443 541L369 541L295 541L222 541L148 541L74 541L0 541Z" fill="#f5730a"></path><path d="M0 442L74 436L148 405L222 472L295 473L369 470L443 394L517 455L591 434L665 436L738 475L812 411L886 396L960 446L960 541L886 541L812 541L738 541L665 541L591 541L517 541L443 541L369 541L295 541L222 541L148 541L74 541L0 541Z" fill="#e7670a"></path><path d="M0 490L74 447L148 488L222 423L295 445L369 447L443 474L517 417L591 452L665 477L738 483L812 487L886 469L960 445L960 541L886 541L812 541L738 541L665 541L591 541L517 541L443 541L369 541L295 541L222 541L148 541L74 541L0 541Z" fill="#da5b09"></path><path d="M0 496L74 451L148 436L222 480L295 462L369 429L443 449L517 490L591 441L665 467L738 436L812 440L886 430L960 471L960 541L886 541L812 541L738 541L665 541L591 541L517 541L443 541L369 541L295 541L222 541L148 541L74 541L0 541Z" fill="#cc4f08"></path><path d="M0 470L74 451L148 481L222 498L295 442L369 501L443 474L517 464L591 461L665 473L738 485L812 474L886 503L960 457L960 541L886 541L812 541L738 541L665 541L591 541L517 541L443 541L369 541L295 541L222 541L148 541L74 541L0 541Z" fill="#be4407"></path><path d="M0 492L74 494L148 496L222 503L295 478L369 477L443 480L517 500L591 476L665 499L738 460L812 501L886 513L960 460L960 541L886 541L812 541L738 541L665 541L591 541L517 541L443 541L369 541L295 541L222 541L148 541L74 541L0 541Z" fill="#b03806"></path><path d="M0 503L74 521L148 497L222 484L295 504L369 476L443 510L517 484L591 505L665 489L738 522L812 486L886 502L960 496L960 541L886 541L812 541L738 541L665 541L591 541L517 541L443 541L369 541L295 541L222 541L148 541L74 541L0 541Z" fill="#a32d04"></path><path d="M0 502L74 501L148 524L222 490L295 510L369 504L443 503L517 494L591 499L665 503L738 492L812 521L886 510L960 500L960 541L886 541L812 541L738 541L665 541L591 541L517 541L443 541L369 541L295 541L222 541L148 541L74 541L0 541Z" fill="#952103"></path><path d="M0 517L74 534L148 524L222 528L295 526L369 515L443 522L517 515L591 513L665 512L738 508L812 509L886 522L960 538L960 541L886 541L812 541L738 541L665 541L591 541L517 541L443 541L369 541L295 541L222 541L148 541L74 541L0 541Z" fill="#871400"></path></svg>