<svg id="visual" viewBox="0 0 960 540" width="960" height="540" xmlns="http://www.w3.org/2000/svg" xmlns:xlink="http://www.w3.org/1999/xlink" version="1.1"><rect x="0" y="0" width="960" height="540" fill="#002233"></rect><path d="M83 0L83 32L103 32L103 64L217 64L217 95L282 95L282 127L244 127L244 159L285 159L285 191L306 191L306 222L272 222L272 254L213 254L213 286L165 286L165 318L191 318L191 349L293 349L293 381L255 381L255 413L137 413L137 445L124 445L124 476L297 476L297 508L212 508L212 540" fill="none" stroke-linecap="square" stroke-linejoin="miter" stroke="#292b78" stroke-width="40"></path></svg>