<svg id="visual" viewBox="0 0 960 540" width="960" height="540" xmlns="http://www.w3.org/2000/svg" xmlns:xlink="http://www.w3.org/1999/xlink" version="1.1"><rect x="0" y="0" width="960" height="540" fill="#071119"></rect><defs><linearGradient id="grad1_0" x1="43.8%" y1="0%" x2="100%" y2="100%"><stop offset="14.444444444444446%" stop-color="#3c7bfa" stop-opacity="1"></stop><stop offset="85.55555555555554%" stop-color="#3c7bfa" stop-opacity="1"></stop></linearGradient></defs><defs><linearGradient id="grad1_1" x1="43.8%" y1="0%" x2="100%" y2="100%"><stop offset="14.444444444444446%" stop-color="#3c7bfa" stop-opacity="1"></stop><stop offset="85.55555555555554%" stop-color="#0059aa" stop-opacity="1"></stop></linearGradient></defs><defs><linearGradient id="grad1_2" x1="43.8%" y1="0%" x2="100%" y2="100%"><stop offset="14.444444444444446%" stop-color="#00355d" stop-opacity="1"></stop><stop offset="85.55555555555554%" stop-color="#0059aa" stop-opacity="1"></stop></linearGradient></defs><defs><linearGradient id="grad1_3" x1="43.8%" y1="0%" x2="100%" y2="100%"><stop offset="14.444444444444446%" stop-color="#00355d" stop-opacity="1"></stop><stop offset="85.55555555555554%" stop-color="#071119" stop-opacity="1"></stop></linearGradient></defs><defs><linearGradient id="grad2_0" x1="0%" y1="0%" x2="56.3%" y2="100%"><stop offset="14.444444444444446%" stop-color="#3c7bfa" stop-opacity="1"></stop><stop offset="85.55555555555554%" stop-color="#3c7bfa" stop-opacity="1"></stop></linearGradient></defs><defs><linearGradient id="grad2_1" x1="0%" y1="0%" x2="56.3%" y2="100%"><stop offset="14.444444444444446%" stop-color="#0059aa" stop-opacity="1"></stop><stop offset="85.55555555555554%" stop-color="#3c7bfa" stop-opacity="1"></stop></linearGradient></defs><defs><linearGradient id="grad2_2" x1="0%" y1="0%" x2="56.3%" y2="100%"><stop offset="14.444444444444446%" stop-color="#0059aa" stop-opacity="1"></stop><stop offset="85.55555555555554%" stop-color="#00355d" stop-opacity="1"></stop></linearGradient></defs><defs><linearGradient id="grad2_3" x1="0%" y1="0%" x2="56.3%" y2="100%"><stop offset="14.444444444444446%" stop-color="#071119" stop-opacity="1"></stop><stop offset="85.55555555555554%" stop-color="#00355d" stop-opacity="1"></stop></linearGradient></defs><g transform="translate(960, 0)"><path d="M0 432C-21.7 421.5 -43.4 410.9 -63.7 402C-83.9 393.1 -102.6 385.8 -124.5 383.3C-146.4 380.8 -171.5 383.1 -190.7 374.2C-209.8 365.4 -223 345.4 -242.2 333.3C-261.3 321.2 -286.4 316.9 -302.6 302.6C-318.9 288.3 -326.2 264 -334.9 243.3C-343.7 222.7 -353.9 205.7 -370.7 188.9C-387.4 172 -410.8 155.4 -410.9 133.5C-410.9 111.6 -387.5 84.4 -387.2 61.3C-386.8 38.2 -409.4 19.1 -432 0L0 0Z" fill="#052339"></path><path d="M0 324C-16.3 316.1 -32.6 308.2 -47.8 301.5C-62.9 294.8 -77 289.3 -93.4 287.5C-109.8 285.6 -128.6 287.3 -143 280.7C-157.4 274 -167.3 259.1 -181.6 250C-196 240.9 -214.8 237.7 -227 227C-239.1 216.3 -244.6 198 -251.2 182.5C-257.8 167 -265.4 154.3 -278 141.6C-290.6 129 -308.1 116.5 -308.1 100.1C-308.2 83.7 -290.7 63.3 -290.4 46C-290.1 28.6 -307.1 14.3 -324 0L0 0Z" fill="#004783"></path><path d="M0 216C-10.9 210.7 -21.7 205.5 -31.8 201C-41.9 196.5 -51.3 192.9 -62.3 191.6C-73.2 190.4 -85.8 191.5 -95.3 187.1C-104.9 182.7 -111.5 172.7 -121.1 166.7C-130.7 160.6 -143.2 158.5 -151.3 151.3C-159.4 144.2 -163.1 132 -167.5 121.7C-171.8 111.3 -176.9 102.8 -185.3 94.4C-193.7 86 -205.4 77.7 -205.4 66.7C-205.4 55.8 -193.8 42.2 -193.6 30.7C-193.4 19.1 -204.7 9.5 -216 0L0 0Z" fill="#066bd2"></path><path d="M0 108C-5.4 105.4 -10.9 102.7 -15.9 100.5C-21 98.3 -25.7 96.4 -31.1 95.8C-36.6 95.2 -42.9 95.8 -47.7 93.6C-52.5 91.3 -55.8 86.4 -60.5 83.3C-65.3 80.3 -71.6 79.2 -75.7 75.7C-79.7 72.1 -81.5 66 -83.7 60.8C-85.9 55.7 -88.5 51.4 -92.7 47.2C-96.9 43 -102.7 38.8 -102.7 33.4C-102.7 27.9 -96.9 21.1 -96.8 15.3C-96.7 9.5 -102.4 4.8 -108 0L0 0Z" fill="#3c7bfa"></path></g><g transform="translate(0, 540)"><path d="M0 -432C19.6 -413.1 39.1 -394.2 62.4 -394.1C85.7 -394 112.8 -412.8 132 -406.1C151.1 -399.4 162.4 -367.2 178.9 -351.1C195.3 -334.9 217 -334.8 241 -331.7C265 -328.5 291.4 -322.3 304.1 -304.1C316.7 -285.8 315.5 -255.5 320.4 -232.8C325.2 -210 336.1 -194.8 353.7 -180.2C371.3 -165.6 395.6 -151.7 409 -132.9C422.3 -114.1 424.7 -90.5 426.7 -67.6C428.7 -44.6 430.3 -22.3 432 0L0 0Z" fill="#052339"></path><path d="M0 -324C14.7 -309.8 29.3 -295.6 46.8 -295.6C64.3 -295.5 84.6 -309.6 99 -304.6C113.3 -299.5 121.8 -275.4 134.2 -263.3C146.5 -251.2 162.7 -251.1 180.7 -248.8C198.8 -246.4 218.6 -241.7 228 -228C237.5 -214.3 236.6 -191.6 240.3 -174.6C243.9 -157.5 252.1 -146.1 265.3 -135.2C278.5 -124.2 296.7 -113.7 306.7 -99.7C316.7 -85.6 318.5 -67.9 320 -50.7C321.5 -33.5 322.8 -16.7 324 0L0 0Z" fill="#004783"></path><path d="M0 -216C9.8 -206.5 19.6 -197.1 31.2 -197C42.9 -197 56.4 -206.4 66 -203.1C75.6 -199.7 81.2 -183.6 89.4 -175.5C97.7 -167.5 108.5 -167.4 120.5 -165.8C132.5 -164.3 145.7 -161.2 152 -152C158.3 -142.9 157.8 -127.8 160.2 -116.4C162.6 -105 168.1 -97.4 176.9 -90.1C185.7 -82.8 197.8 -75.8 204.5 -66.4C211.1 -57 212.3 -45.3 213.3 -33.8C214.3 -22.3 215.2 -11.2 216 0L0 0Z" fill="#066bd2"></path><path d="M0 -108C4.9 -103.3 9.8 -98.5 15.6 -98.5C21.4 -98.5 28.2 -103.2 33 -101.5C37.8 -99.8 40.6 -91.8 44.7 -87.8C48.8 -83.7 54.2 -83.7 60.2 -82.9C66.3 -82.1 72.9 -80.6 76 -76C79.2 -71.4 78.9 -63.9 80.1 -58.2C81.3 -52.5 84 -48.7 88.4 -45.1C92.8 -41.4 98.9 -37.9 102.2 -33.2C105.6 -28.5 106.2 -22.6 106.7 -16.9C107.2 -11.2 107.6 -5.6 108 0L0 0Z" fill="#3c7bfa"></path></g></svg>