<svg id="visual" viewBox="0 0 960 540" width="960" height="540" xmlns="http://www.w3.org/2000/svg" xmlns:xlink="http://www.w3.org/1999/xlink" version="1.1"><rect x="0" y="0" width="960" height="540" fill="#001220"></rect><defs><linearGradient id="grad1_0" x1="43.8%" y1="100%" x2="100%" y2="0%"><stop offset="14.444444444444446%" stop-color="#3c7bfa" stop-opacity="1"></stop><stop offset="85.55555555555554%" stop-color="#3c7bfa" stop-opacity="1"></stop></linearGradient></defs><defs><linearGradient id="grad1_1" x1="43.8%" y1="100%" x2="100%" y2="0%"><stop offset="14.444444444444446%" stop-color="#3c7bfa" stop-opacity="1"></stop><stop offset="85.55555555555554%" stop-color="#0059ad" stop-opacity="1"></stop></linearGradient></defs><defs><linearGradient id="grad1_2" x1="43.8%" y1="100%" x2="100%" y2="0%"><stop offset="14.444444444444446%" stop-color="#003562" stop-opacity="1"></stop><stop offset="85.55555555555554%" stop-color="#0059ad" stop-opacity="1"></stop></linearGradient></defs><defs><linearGradient id="grad1_3" x1="43.8%" y1="100%" x2="100%" y2="0%"><stop offset="14.444444444444446%" stop-color="#003562" stop-opacity="1"></stop><stop offset="85.55555555555554%" stop-color="#001220" stop-opacity="1"></stop></linearGradient></defs><defs><linearGradient id="grad2_0" x1="0%" y1="100%" x2="56.3%" y2="0%"><stop offset="14.444444444444446%" stop-color="#3c7bfa" stop-opacity="1"></stop><stop offset="85.55555555555554%" stop-color="#3c7bfa" stop-opacity="1"></stop></linearGradient></defs><defs><linearGradient id="grad2_1" x1="0%" y1="100%" x2="56.3%" y2="0%"><stop offset="14.444444444444446%" stop-color="#0059ad" stop-opacity="1"></stop><stop offset="85.55555555555554%" stop-color="#3c7bfa" stop-opacity="1"></stop></linearGradient></defs><defs><linearGradient id="grad2_2" x1="0%" y1="100%" x2="56.3%" y2="0%"><stop offset="14.444444444444446%" stop-color="#0059ad" stop-opacity="1"></stop><stop offset="85.55555555555554%" stop-color="#003562" stop-opacity="1"></stop></linearGradient></defs><defs><linearGradient id="grad2_3" x1="0%" y1="100%" x2="56.3%" y2="0%"><stop offset="14.444444444444446%" stop-color="#001220" stop-opacity="1"></stop><stop offset="85.55555555555554%" stop-color="#003562" stop-opacity="1"></stop></linearGradient></defs><g transform="translate(960, 540)"><path d="M-378 0C-360.2 -44.1 -342.4 -88.2 -327.1 -135.5C-311.7 -182.8 -298.7 -233.3 -267.3 -267.3C-235.9 -301.3 -186.1 -318.7 -138.5 -334.4C-90.9 -350.1 -45.5 -364.1 0 -378L0 0Z" fill="#002440"></path><path d="M-283.5 0C-270.2 -33.1 -256.8 -66.1 -245.3 -101.6C-233.7 -137.1 -224 -175 -200.5 -200.5C-176.9 -226 -139.6 -239.1 -103.9 -250.8C-68.2 -262.6 -34.1 -273.1 0 -283.5L0 0Z" fill="#004787"></path><path d="M-189 0C-180.1 -22 -171.2 -44.1 -163.5 -67.7C-155.8 -91.4 -149.3 -116.6 -133.6 -133.6C-118 -150.6 -93.1 -159.4 -69.3 -167.2C-45.5 -175.1 -22.7 -182 0 -189L0 0Z" fill="#096ad3"></path><path d="M-94.5 0C-90.1 -11 -85.6 -22 -81.8 -33.9C-77.9 -45.7 -74.7 -58.3 -66.8 -66.8C-59 -75.3 -46.5 -79.7 -34.6 -83.6C-22.7 -87.5 -11.4 -91 0 -94.5L0 0Z" fill="#3c7bfa"></path></g><g transform="translate(0, 0)"><path d="M378 0C373 49.7 368 99.3 349.2 144.7C330.4 190 297.8 231 259.5 259.5C221.2 288 177.4 303.9 133.2 321.5C89 339.2 44.5 358.6 0 378L0 0Z" fill="#002440"></path><path d="M283.5 0C279.8 37.2 276 74.5 261.9 108.5C247.8 142.5 223.3 173.3 194.6 194.6C165.9 216 133 227.9 99.9 241.1C66.7 254.4 33.4 268.9 0 283.5L0 0Z" fill="#004787"></path><path d="M189 0C186.5 24.8 184 49.7 174.6 72.3C165.2 95 148.9 115.5 129.8 129.8C110.6 144 88.7 151.9 66.6 160.8C44.5 169.6 22.2 179.3 0 189L0 0Z" fill="#096ad3"></path><path d="M94.5 0C93.3 12.4 92 24.8 87.3 36.2C82.6 47.5 74.4 57.8 64.9 64.9C55.3 72 44.3 76 33.3 80.4C22.2 84.8 11.1 89.6 0 94.5L0 0Z" fill="#3c7bfa"></path></g></svg>