<svg id="visual" viewBox="0 0 960 540" width="960" height="540" xmlns="http://www.w3.org/2000/svg" xmlns:xlink="http://www.w3.org/1999/xlink" version="1.1"><rect x="0" y="0" width="960" height="540" fill="#071119"></rect><defs><linearGradient id="grad1_0" x1="43.8%" y1="100%" x2="100%" y2="0%"><stop offset="14.444444444444446%" stop-color="#3c7bfa" stop-opacity="1"></stop><stop offset="85.55555555555554%" stop-color="#3c7bfa" stop-opacity="1"></stop></linearGradient></defs><defs><linearGradient id="grad1_1" x1="43.8%" y1="100%" x2="100%" y2="0%"><stop offset="14.444444444444446%" stop-color="#3c7bfa" stop-opacity="1"></stop><stop offset="85.55555555555554%" stop-color="#116dd8" stop-opacity="1"></stop></linearGradient></defs><defs><linearGradient id="grad1_2" x1="43.8%" y1="100%" x2="100%" y2="0%"><stop offset="14.444444444444446%" stop-color="#005eb5" stop-opacity="1"></stop><stop offset="85.55555555555554%" stop-color="#116dd8" stop-opacity="1"></stop></linearGradient></defs><defs><linearGradient id="grad1_3" x1="43.8%" y1="100%" x2="100%" y2="0%"><stop offset="14.444444444444446%" stop-color="#005eb5" stop-opacity="1"></stop><stop offset="85.55555555555554%" stop-color="#004f93" stop-opacity="1"></stop></linearGradient></defs><defs><linearGradient id="grad1_4" x1="43.8%" y1="100%" x2="100%" y2="0%"><stop offset="14.444444444444446%" stop-color="#004072" stop-opacity="1"></stop><stop offset="85.55555555555554%" stop-color="#004f93" stop-opacity="1"></stop></linearGradient></defs><defs><linearGradient id="grad1_5" x1="43.8%" y1="100%" x2="100%" y2="0%"><stop offset="14.444444444444446%" stop-color="#004072" stop-opacity="1"></stop><stop offset="85.55555555555554%" stop-color="#003052" stop-opacity="1"></stop></linearGradient></defs><defs><linearGradient id="grad1_6" x1="43.8%" y1="100%" x2="100%" y2="0%"><stop offset="14.444444444444446%" stop-color="#062134" stop-opacity="1"></stop><stop offset="85.55555555555554%" stop-color="#003052" stop-opacity="1"></stop></linearGradient></defs><defs><linearGradient id="grad1_7" x1="43.8%" y1="100%" x2="100%" y2="0%"><stop offset="14.444444444444446%" stop-color="#062134" stop-opacity="1"></stop><stop offset="85.55555555555554%" stop-color="#071119" stop-opacity="1"></stop></linearGradient></defs><defs><linearGradient id="grad2_0" x1="0%" y1="100%" x2="56.3%" y2="0%"><stop offset="14.444444444444446%" stop-color="#3c7bfa" stop-opacity="1"></stop><stop offset="85.55555555555554%" stop-color="#3c7bfa" stop-opacity="1"></stop></linearGradient></defs><defs><linearGradient id="grad2_1" x1="0%" y1="100%" x2="56.3%" y2="0%"><stop offset="14.444444444444446%" stop-color="#116dd8" stop-opacity="1"></stop><stop offset="85.55555555555554%" stop-color="#3c7bfa" stop-opacity="1"></stop></linearGradient></defs><defs><linearGradient id="grad2_2" x1="0%" y1="100%" x2="56.3%" y2="0%"><stop offset="14.444444444444446%" stop-color="#116dd8" stop-opacity="1"></stop><stop offset="85.55555555555554%" stop-color="#005eb5" stop-opacity="1"></stop></linearGradient></defs><defs><linearGradient id="grad2_3" x1="0%" y1="100%" x2="56.3%" y2="0%"><stop offset="14.444444444444446%" stop-color="#004f93" stop-opacity="1"></stop><stop offset="85.55555555555554%" stop-color="#005eb5" stop-opacity="1"></stop></linearGradient></defs><defs><linearGradient id="grad2_4" x1="0%" y1="100%" x2="56.3%" y2="0%"><stop offset="14.444444444444446%" stop-color="#004f93" stop-opacity="1"></stop><stop offset="85.55555555555554%" stop-color="#004072" stop-opacity="1"></stop></linearGradient></defs><defs><linearGradient id="grad2_5" x1="0%" y1="100%" x2="56.3%" y2="0%"><stop offset="14.444444444444446%" stop-color="#003052" stop-opacity="1"></stop><stop offset="85.55555555555554%" stop-color="#004072" stop-opacity="1"></stop></linearGradient></defs><defs><linearGradient id="grad2_6" x1="0%" y1="100%" x2="56.3%" y2="0%"><stop offset="14.444444444444446%" stop-color="#003052" stop-opacity="1"></stop><stop offset="85.55555555555554%" stop-color="#062134" stop-opacity="1"></stop></linearGradient></defs><defs><linearGradient id="grad2_7" x1="0%" y1="100%" x2="56.3%" y2="0%"><stop offset="14.444444444444446%" stop-color="#071119" stop-opacity="1"></stop><stop offset="85.55555555555554%" stop-color="#062134" stop-opacity="1"></stop></linearGradient></defs><g transform="translate(960, 540)"><path d="M-459 0C-457.3 -24.4 -455.5 -48.8 -448.4 -71C-441.3 -93.3 -428.7 -113.4 -424.2 -137.8C-419.6 -162.2 -423 -190.9 -406.3 -207C-389.6 -223.1 -352.8 -226.7 -336.6 -244.5C-320.3 -262.3 -324.4 -294.4 -311.8 -311.8C-299.2 -329.3 -269.9 -332.2 -248 -341.4C-226.2 -350.6 -211.9 -366 -196.1 -384.9C-180.4 -403.9 -163.2 -426.3 -141.8 -436.5C-120.5 -446.8 -95 -444.7 -70.7 -446.4C-46.4 -448.1 -23.2 -453.6 0 -459L0 0Z" fill="#091926"></path><path d="M-401.6 0C-400.1 -21.3 -398.6 -42.7 -392.4 -62.1C-386.1 -81.6 -375.2 -99.2 -371.1 -120.6C-367.1 -141.9 -370.1 -167 -355.5 -181.1C-340.9 -195.2 -308.7 -198.4 -294.5 -214C-280.2 -229.5 -283.9 -257.6 -272.9 -272.9C-261.8 -288.1 -236.1 -290.7 -217 -298.7C-197.9 -306.8 -185.4 -320.2 -171.6 -336.8C-157.8 -353.4 -142.8 -373 -124.1 -382C-105.4 -390.9 -83.2 -389.1 -61.9 -390.6C-40.6 -392.1 -20.3 -396.9 0 -401.6L0 0Z" fill="#012843"></path><path d="M-344.2 0C-343 -18.3 -341.7 -36.6 -336.3 -53.3C-331 -70 -321.6 -85.1 -318.1 -103.4C-314.7 -121.7 -317.2 -143.2 -304.7 -155.3C-292.2 -167.4 -264.6 -170 -252.4 -183.4C-240.2 -196.7 -243.3 -220.8 -233.9 -233.9C-224.4 -247 -202.4 -249.2 -186 -256.1C-169.7 -262.9 -158.9 -274.5 -147.1 -288.7C-135.3 -302.9 -122.4 -319.7 -106.4 -327.4C-90.4 -335.1 -71.3 -333.5 -53 -334.8C-34.8 -336.1 -17.4 -340.2 0 -344.2L0 0Z" fill="#003862"></path><path d="M-286.9 0C-285.8 -15.2 -284.7 -30.5 -280.3 -44.4C-275.8 -58.3 -268 -70.9 -265.1 -86.1C-262.2 -101.4 -264.4 -119.3 -253.9 -129.4C-243.5 -139.5 -220.5 -141.7 -210.3 -152.8C-200.2 -164 -202.8 -184 -194.9 -194.9C-187 -205.8 -168.7 -207.6 -155 -213.4C-141.4 -219.1 -132.4 -228.7 -122.6 -240.6C-112.7 -252.4 -102 -266.4 -88.6 -272.8C-75.3 -279.2 -59.4 -278 -44.2 -279C-29 -280.1 -14.5 -283.5 0 -286.9L0 0Z" fill="#004783"></path><path d="M-229.5 0C-228.6 -12.2 -227.8 -24.4 -224.2 -35.5C-220.6 -46.6 -214.4 -56.7 -212.1 -68.9C-209.8 -81.1 -211.5 -95.4 -203.1 -103.5C-194.8 -111.6 -176.4 -113.4 -168.3 -122.3C-160.1 -131.2 -162.2 -147.2 -155.9 -155.9C-149.6 -164.7 -134.9 -166.1 -124 -170.7C-113.1 -175.3 -105.9 -183 -98.1 -192.5C-90.2 -201.9 -81.6 -213.2 -70.9 -218.3C-60.3 -223.4 -47.5 -222.4 -35.4 -223.2C-23.2 -224.1 -11.6 -226.8 0 -229.5L0 0Z" fill="#0057a4"></path><path d="M-172.1 0C-171.5 -9.1 -170.8 -18.3 -168.2 -26.6C-165.5 -35 -160.8 -42.5 -159.1 -51.7C-157.3 -60.8 -158.6 -71.6 -152.4 -77.6C-146.1 -83.7 -132.3 -85 -126.2 -91.7C-120.1 -98.4 -121.7 -110.4 -116.9 -116.9C-112.2 -123.5 -101.2 -124.6 -93 -128C-84.8 -131.5 -79.5 -137.2 -73.5 -144.3C-67.6 -151.4 -61.2 -159.9 -53.2 -163.7C-45.2 -167.5 -35.6 -166.8 -26.5 -167.4C-17.4 -168.1 -8.7 -170.1 0 -172.1L0 0Z" fill="#0066c7"></path><path d="M-114.7 0C-114.3 -6.1 -113.9 -12.2 -112.1 -17.8C-110.3 -23.3 -107.2 -28.4 -106 -34.5C-104.9 -40.6 -105.7 -47.7 -101.6 -51.8C-97.4 -55.8 -88.2 -56.7 -84.1 -61.1C-80.1 -65.6 -81.1 -73.6 -78 -78C-74.8 -82.3 -67.5 -83.1 -62 -85.4C-56.6 -87.6 -53 -91.5 -49 -96.2C-45.1 -101 -40.8 -106.6 -35.5 -109.1C-30.1 -111.7 -23.8 -111.2 -17.7 -111.6C-11.6 -112 -5.8 -113.4 0 -114.7L0 0Z" fill="#2974e9"></path><path d="M-57.4 0C-57.2 -3 -56.9 -6.1 -56.1 -8.9C-55.2 -11.7 -53.6 -14.2 -53 -17.2C-52.4 -20.3 -52.9 -23.9 -50.8 -25.9C-48.7 -27.9 -44.1 -28.3 -42.1 -30.6C-40 -32.8 -40.6 -36.8 -39 -39C-37.4 -41.2 -33.7 -41.5 -31 -42.7C-28.3 -43.8 -26.5 -45.7 -24.5 -48.1C-22.5 -50.5 -20.4 -53.3 -17.7 -54.6C-15.1 -55.8 -11.9 -55.6 -8.8 -55.8C-5.8 -56 -2.9 -56.7 0 -57.4L0 0Z" fill="#3c7bfa"></path></g><g transform="translate(0, 0)"><path d="M459 0C436.2 20.5 413.5 41 411.9 65.2C410.3 89.4 429.9 117.4 426.1 138.4C422.3 159.5 395 173.7 384 195.7C373 217.6 378.2 247.3 367.3 266.9C356.4 286.4 329.4 295.9 309.7 309.7C290 323.5 277.7 341.7 263.3 362.4C248.9 383.2 232.5 406.6 208.4 409C184.3 411.4 152.5 392.8 128.9 396.6C105.3 400.3 89.9 426.4 69.8 440.5C49.7 454.6 24.8 456.8 0 459L0 0Z" fill="#091926"></path><path d="M401.6 0C381.7 17.9 361.8 35.9 360.4 57.1C359 78.3 376.1 102.7 372.8 121.1C369.5 139.6 345.7 152 336 171.2C326.4 190.4 330.9 216.4 321.4 233.5C311.8 250.6 288.2 258.9 271 271C253.8 283.1 243 299 230.4 317.1C217.8 335.3 203.4 355.7 182.3 357.9C161.2 360 133.4 343.7 112.8 347C92.1 350.3 78.6 373.1 61 385.4C43.5 397.8 21.7 399.7 0 401.6L0 0Z" fill="#012843"></path><path d="M344.3 0C327.2 15.4 310.1 30.8 308.9 48.9C307.7 67.1 322.4 88 319.6 103.8C316.7 119.6 296.3 130.3 288 146.8C279.8 163.2 283.7 185.5 275.5 200.1C267.3 214.8 247 221.9 232.3 232.3C217.5 242.6 208.3 256.3 197.5 271.8C186.7 287.4 174.4 304.9 156.3 306.7C138.2 308.5 114.3 294.6 96.6 297.4C78.9 300.3 67.4 319.8 52.3 330.4C37.2 341 18.6 342.6 0 344.3L0 0Z" fill="#003862"></path><path d="M286.9 0C272.6 12.8 258.4 25.6 257.4 40.8C256.4 55.9 268.7 73.4 266.3 86.5C263.9 99.7 246.9 108.6 240 122.3C233.1 136 236.4 154.6 229.6 166.8C222.7 179 205.9 184.9 193.6 193.6C181.3 202.2 173.6 213.6 164.6 226.5C155.6 239.5 145.3 254.1 130.2 255.6C115.2 257.1 95.3 245.5 80.5 247.9C65.8 250.2 56.2 266.5 43.6 275.3C31 284.1 15.5 285.5 0 286.9L0 0Z" fill="#004783"></path><path d="M229.5 0C218.1 10.3 206.7 20.5 205.9 32.6C205.1 44.7 214.9 58.7 213 69.2C211.1 79.8 197.5 86.9 192 97.8C186.5 108.8 189.1 123.6 183.6 133.4C178.2 143.2 164.7 147.9 154.9 154.9C145 161.8 138.9 170.8 131.7 181.2C124.5 191.6 116.3 203.3 104.2 204.5C92.1 205.7 76.2 196.4 64.4 198.3C52.6 200.2 44.9 213.2 34.9 220.3C24.8 227.3 12.4 228.4 0 229.5L0 0Z" fill="#0057a4"></path><path d="M172.1 0C163.6 7.7 155 15.4 154.4 24.5C153.9 33.5 161.2 44 159.8 51.9C158.3 59.8 148.1 65.1 144 73.4C139.9 81.6 141.8 92.7 137.7 100.1C133.6 107.4 123.5 111 116.1 116.1C108.8 121.3 104.1 128.1 98.7 135.9C93.4 143.7 87.2 152.5 78.1 153.4C69.1 154.3 57.2 147.3 48.3 148.7C39.5 150.1 33.7 159.9 26.2 165.2C18.6 170.5 9.3 171.3 0 172.1L0 0Z" fill="#0066c7"></path><path d="M114.8 0C109.1 5.1 103.4 10.3 103 16.3C102.6 22.4 107.5 29.3 106.5 34.6C105.6 39.9 98.8 43.4 96 48.9C93.3 54.4 94.6 61.8 91.8 66.7C89.1 71.6 82.3 74 77.4 77.4C72.5 80.9 69.4 85.4 65.8 90.6C62.2 95.8 58.1 101.6 52.1 102.2C46.1 102.8 38.1 98.2 32.2 99.1C26.3 100.1 22.5 106.6 17.4 110.1C12.4 113.7 6.2 114.2 0 114.8L0 0Z" fill="#2974e9"></path><path d="M57.4 0C54.5 2.6 51.7 5.1 51.5 8.2C51.3 11.2 53.7 14.7 53.3 17.3C52.8 19.9 49.4 21.7 48 24.5C46.6 27.2 47.3 30.9 45.9 33.4C44.5 35.8 41.2 37 38.7 38.7C36.3 40.4 34.7 42.7 32.9 45.3C31.1 47.9 29.1 50.8 26 51.1C23 51.4 19.1 49.1 16.1 49.6C13.2 50 11.2 53.3 8.7 55.1C6.2 56.8 3.1 57.1 0 57.4L0 0Z" fill="#3c7bfa"></path></g></svg>