<svg id="visual" viewBox="0 0 900 600" width="900" height="600" xmlns="http://www.w3.org/2000/svg" xmlns:xlink="http://www.w3.org/1999/xlink" version="1.1"><rect x="0" y="0" width="900" height="600" fill="#001220"></rect><defs><linearGradient id="grad1_0" x1="33.3%" y1="0%" x2="100%" y2="100%"><stop offset="20%" stop-color="#001220" stop-opacity="1"></stop><stop offset="80%" stop-color="#001220" stop-opacity="1"></stop></linearGradient></defs><defs><linearGradient id="grad2_0" x1="0%" y1="0%" x2="66.7%" y2="100%"><stop offset="20%" stop-color="#001220" stop-opacity="1"></stop><stop offset="80%" stop-color="#001220" stop-opacity="1"></stop></linearGradient></defs><g transform="translate(900, 0)"><path d="M0 324.5C-29.7 310.1 -59.3 295.8 -93.9 289.1C-128.6 282.5 -168.1 283.6 -190.7 262.5C-213.3 241.5 -218.9 198.3 -229 166.3C-239 134.4 -253.4 113.6 -270.1 87.8C-286.8 61.9 -305.6 31 -324.5 0L0 0Z" fill="#5d00ff"></path></g><g transform="translate(0, 600)"><path d="M0 -324.5C35.6 -322.2 71.2 -319.9 98.3 -302.4C125.3 -285 143.9 -252.3 167.5 -230.6C191.1 -208.8 219.7 -198 245.9 -178.7C272.1 -159.3 295.9 -131.5 308.6 -100.3C321.3 -69.1 322.9 -34.5 324.5 0L0 0Z" fill="#5d00ff"></path></g></svg>