<svg id="visual" viewBox="0 0 960 540" width="960" height="540" xmlns="http://www.w3.org/2000/svg" xmlns:xlink="http://www.w3.org/1999/xlink" version="1.1"><rect x="0" y="0" width="960" height="540" fill="#001220"></rect><defs><linearGradient id="grad1_0" x1="43.8%" y1="0%" x2="100%" y2="100%"><stop offset="14.444444444444446%" stop-color="#3c7bfa" stop-opacity="1"></stop><stop offset="85.55555555555554%" stop-color="#3c7bfa" stop-opacity="1"></stop></linearGradient></defs><defs><linearGradient id="grad1_1" x1="43.8%" y1="0%" x2="100%" y2="100%"><stop offset="14.444444444444446%" stop-color="#3c7bfa" stop-opacity="1"></stop><stop offset="85.55555555555554%" stop-color="#0059ad" stop-opacity="1"></stop></linearGradient></defs><defs><linearGradient id="grad1_2" x1="43.8%" y1="0%" x2="100%" y2="100%"><stop offset="14.444444444444446%" stop-color="#003562" stop-opacity="1"></stop><stop offset="85.55555555555554%" stop-color="#0059ad" stop-opacity="1"></stop></linearGradient></defs><defs><linearGradient id="grad1_3" x1="43.8%" y1="0%" x2="100%" y2="100%"><stop offset="14.444444444444446%" stop-color="#003562" stop-opacity="1"></stop><stop offset="85.55555555555554%" stop-color="#001220" stop-opacity="1"></stop></linearGradient></defs><defs><linearGradient id="grad2_0" x1="0%" y1="0%" x2="56.3%" y2="100%"><stop offset="14.444444444444446%" stop-color="#3c7bfa" stop-opacity="1"></stop><stop offset="85.55555555555554%" stop-color="#3c7bfa" stop-opacity="1"></stop></linearGradient></defs><defs><linearGradient id="grad2_1" x1="0%" y1="0%" x2="56.3%" y2="100%"><stop offset="14.444444444444446%" stop-color="#0059ad" stop-opacity="1"></stop><stop offset="85.55555555555554%" stop-color="#3c7bfa" stop-opacity="1"></stop></linearGradient></defs><defs><linearGradient id="grad2_2" x1="0%" y1="0%" x2="56.3%" y2="100%"><stop offset="14.444444444444446%" stop-color="#0059ad" stop-opacity="1"></stop><stop offset="85.55555555555554%" stop-color="#003562" stop-opacity="1"></stop></linearGradient></defs><defs><linearGradient id="grad2_3" x1="0%" y1="0%" x2="56.3%" y2="100%"><stop offset="14.444444444444446%" stop-color="#001220" stop-opacity="1"></stop><stop offset="85.55555555555554%" stop-color="#003562" stop-opacity="1"></stop></linearGradient></defs><g transform="translate(960, 0)"><path d="M0 378C-54.4 377.3 -108.7 376.5 -144.7 349.2C-180.6 321.9 -198.2 268 -231.9 231.9C-265.7 195.9 -315.7 177.7 -342.8 142C-369.8 106.3 -373.9 53.1 -378 0L0 0Z" fill="#002440"></path><path d="M0 283.5C-40.8 283 -81.5 282.4 -108.5 261.9C-135.5 241.4 -148.6 201 -173.9 173.9C-199.3 146.9 -236.8 133.2 -257.1 106.5C-277.4 79.7 -280.4 39.9 -283.5 0L0 0Z" fill="#004787"></path><path d="M0 189C-27.2 188.6 -54.4 188.3 -72.3 174.6C-90.3 161 -99.1 134 -116 116C-132.9 97.9 -157.9 88.8 -171.4 71C-184.9 53.1 -187 26.6 -189 0L0 0Z" fill="#096ad3"></path><path d="M0 94.5C-13.6 94.3 -27.2 94.1 -36.2 87.3C-45.2 80.5 -49.5 67 -58 58C-66.4 49 -78.9 44.4 -85.7 35.5C-92.5 26.6 -93.5 13.3 -94.5 0L0 0Z" fill="#3c7bfa"></path></g><g transform="translate(0, 540)"><path d="M0 -378C37.5 -346.4 75 -314.8 125.1 -302.1C175.3 -289.4 238.1 -295.5 267.3 -267.3C296.5 -239.1 292 -176.6 304.9 -126.3C317.7 -76 347.9 -38 378 0L0 0Z" fill="#002440"></path><path d="M0 -283.5C28.1 -259.8 56.2 -236.1 93.9 -226.6C131.5 -217 178.6 -221.6 200.5 -200.5C222.4 -179.3 219 -132.4 228.7 -94.7C238.3 -57 260.9 -28.5 283.5 0L0 0Z" fill="#004787"></path><path d="M0 -189C18.7 -173.2 37.5 -157.4 62.6 -151.1C87.6 -144.7 119.1 -147.7 133.6 -133.6C148.2 -119.5 146 -88.3 152.4 -63.1C158.9 -38 173.9 -19 189 0L0 0Z" fill="#096ad3"></path><path d="M0 -94.5C9.4 -86.6 18.7 -78.7 31.3 -75.5C43.8 -72.3 59.5 -73.9 66.8 -66.8C74.1 -59.8 73 -44.1 76.2 -31.6C79.4 -19 87 -9.5 94.5 0L0 0Z" fill="#3c7bfa"></path></g></svg>