<svg id="visual" viewBox="0 0 960 540" width="960" height="540" xmlns="http://www.w3.org/2000/svg" xmlns:xlink="http://www.w3.org/1999/xlink" version="1.1"><rect x="0" y="0" width="960" height="540" fill="#001220"></rect><defs><linearGradient id="grad1_0" x1="43.8%" y1="0%" x2="100%" y2="100%"><stop offset="14.444444444444446%" stop-color="#3c7bfa" stop-opacity="1"></stop><stop offset="85.55555555555554%" stop-color="#3c7bfa" stop-opacity="1"></stop></linearGradient></defs><defs><linearGradient id="grad1_1" x1="43.8%" y1="0%" x2="100%" y2="100%"><stop offset="14.444444444444446%" stop-color="#3c7bfa" stop-opacity="1"></stop><stop offset="85.55555555555554%" stop-color="#0059ad" stop-opacity="1"></stop></linearGradient></defs><defs><linearGradient id="grad1_2" x1="43.8%" y1="0%" x2="100%" y2="100%"><stop offset="14.444444444444446%" stop-color="#003562" stop-opacity="1"></stop><stop offset="85.55555555555554%" stop-color="#0059ad" stop-opacity="1"></stop></linearGradient></defs><defs><linearGradient id="grad1_3" x1="43.8%" y1="0%" x2="100%" y2="100%"><stop offset="14.444444444444446%" stop-color="#003562" stop-opacity="1"></stop><stop offset="85.55555555555554%" stop-color="#001220" stop-opacity="1"></stop></linearGradient></defs><defs><linearGradient id="grad2_0" x1="0%" y1="0%" x2="56.3%" y2="100%"><stop offset="14.444444444444446%" stop-color="#3c7bfa" stop-opacity="1"></stop><stop offset="85.55555555555554%" stop-color="#3c7bfa" stop-opacity="1"></stop></linearGradient></defs><defs><linearGradient id="grad2_1" x1="0%" y1="0%" x2="56.3%" y2="100%"><stop offset="14.444444444444446%" stop-color="#0059ad" stop-opacity="1"></stop><stop offset="85.55555555555554%" stop-color="#3c7bfa" stop-opacity="1"></stop></linearGradient></defs><defs><linearGradient id="grad2_2" x1="0%" y1="0%" x2="56.3%" y2="100%"><stop offset="14.444444444444446%" stop-color="#0059ad" stop-opacity="1"></stop><stop offset="85.55555555555554%" stop-color="#003562" stop-opacity="1"></stop></linearGradient></defs><defs><linearGradient id="grad2_3" x1="0%" y1="0%" x2="56.3%" y2="100%"><stop offset="14.444444444444446%" stop-color="#001220" stop-opacity="1"></stop><stop offset="85.55555555555554%" stop-color="#003562" stop-opacity="1"></stop></linearGradient></defs><g transform="translate(960, 0)"><path d="M0 378C-44.1 360.2 -88.2 342.4 -135.5 327.1C-182.8 311.7 -233.3 298.7 -267.3 267.3C-301.3 235.9 -318.7 186.1 -334.4 138.5C-350.1 90.9 -364.1 45.5 -378 0L0 0Z" fill="#002440"></path><path d="M0 283.5C-33.1 270.2 -66.1 256.8 -101.6 245.3C-137.1 233.7 -175 224 -200.5 200.5C-226 176.9 -239.1 139.6 -250.8 103.9C-262.6 68.2 -273.1 34.1 -283.5 0L0 0Z" fill="#004787"></path><path d="M0 189C-22 180.1 -44.1 171.2 -67.7 163.5C-91.4 155.8 -116.6 149.3 -133.6 133.6C-150.6 118 -159.4 93.1 -167.2 69.3C-175.1 45.5 -182 22.7 -189 0L0 0Z" fill="#096ad3"></path><path d="M0 94.5C-11 90.1 -22 85.6 -33.9 81.8C-45.7 77.9 -58.3 74.7 -66.8 66.8C-75.3 59 -79.7 46.5 -83.6 34.6C-87.5 22.7 -91 11.4 -94.5 0L0 0Z" fill="#3c7bfa"></path></g><g transform="translate(0, 540)"><path d="M0 -378C49.7 -373 99.3 -368 144.7 -349.2C190 -330.4 231 -297.8 259.5 -259.5C288 -221.2 303.9 -177.4 321.5 -133.2C339.2 -89 358.6 -44.5 378 0L0 0Z" fill="#002440"></path><path d="M0 -283.5C37.2 -279.8 74.5 -276 108.5 -261.9C142.5 -247.8 173.3 -223.3 194.6 -194.6C216 -165.9 227.9 -133 241.1 -99.9C254.4 -66.7 268.9 -33.4 283.5 0L0 0Z" fill="#004787"></path><path d="M0 -189C24.8 -186.5 49.7 -184 72.3 -174.6C95 -165.2 115.5 -148.9 129.8 -129.8C144 -110.6 151.9 -88.7 160.8 -66.6C169.6 -44.5 179.3 -22.2 189 0L0 0Z" fill="#096ad3"></path><path d="M0 -94.5C12.4 -93.3 24.8 -92 36.2 -87.3C47.5 -82.6 57.8 -74.4 64.9 -64.9C72 -55.3 76 -44.3 80.4 -33.3C84.8 -22.2 89.6 -11.1 94.5 0L0 0Z" fill="#3c7bfa"></path></g></svg>