<svg id="visual" viewBox="0 0 900 600" width="900" height="600" xmlns="http://www.w3.org/2000/svg" xmlns:xlink="http://www.w3.org/1999/xlink" version="1.1"><rect x="0" y="0" width="900" height="600" fill="#001220"></rect><path d="M0 112L11.5 113.5C23 115 46 118 69 117.7C92 117.3 115 113.7 138.2 111.8C161.3 110 184.7 110 207.8 119C231 128 254 146 277 153.3C300 160.7 323 157.3 346 159.3C369 161.3 392 168.7 415.2 169.3C438.3 170 461.7 164 484.8 164C508 164 531 170 554 168.8C577 167.7 600 159.3 623 149.7C646 140 669 129 692.2 130.2C715.3 131.3 738.7 144.7 761.8 147.3C785 150 808 142 831 139.8C854 137.7 877 141.3 888.5 143.2L900 145L900 0L888.5 0C877 0 854 0 831 0C808 0 785 0 761.8 0C738.7 0 715.3 0 692.2 0C669 0 646 0 623 0C600 0 577 0 554 0C531 0 508 0 484.8 0C461.7 0 438.3 0 415.2 0C392 0 369 0 346 0C323 0 300 0 277 0C254 0 231 0 207.8 0C184.7 0 161.3 0 138.2 0C115 0 92 0 69 0C46 0 23 0 11.5 0L0 0Z" fill="#d100ff"></path><path d="M0 158L11.5 153.2C23 148.3 46 138.7 69 134.7C92 130.7 115 132.3 138.2 125.7C161.3 119 184.7 104 207.8 99C231 94 254 99 277 109.7C300 120.3 323 136.7 346 135.2C369 133.7 392 114.3 415.2 119C438.3 123.7 461.7 152.3 484.8 158.3C508 164.3 531 147.7 554 147.2C577 146.7 600 162.3 623 167.2C646 172 669 166 692.2 157.8C715.3 149.7 738.7 139.3 761.8 140C785 140.7 808 152.3 831 153.3C854 154.3 877 144.7 888.5 139.8L900 135L900 0L888.5 0C877 0 854 0 831 0C808 0 785 0 761.8 0C738.7 0 715.3 0 692.2 0C669 0 646 0 623 0C600 0 577 0 554 0C531 0 508 0 484.8 0C461.7 0 438.3 0 415.2 0C392 0 369 0 346 0C323 0 300 0 277 0C254 0 231 0 207.8 0C184.7 0 161.3 0 138.2 0C115 0 92 0 69 0C46 0 23 0 11.5 0L0 0Z" fill="#9037e6"></path><path d="M0 107L11.5 113.5C23 120 46 133 69 131.8C92 130.7 115 115.3 138.2 113.5C161.3 111.7 184.7 123.3 207.8 128.3C231 133.3 254 131.7 277 126.2C300 120.7 323 111.3 346 113.5C369 115.7 392 129.3 415.2 128.3C438.3 127.3 461.7 111.7 484.8 101.8C508 92 531 88 554 91.3C577 94.7 600 105.3 623 113.2C646 121 669 126 692.2 127.8C715.3 129.7 738.7 128.3 761.8 127.2C785 126 808 125 831 123C854 121 877 118 888.5 116.5L900 115L900 0L888.5 0C877 0 854 0 831 0C808 0 785 0 761.8 0C738.7 0 715.3 0 692.2 0C669 0 646 0 623 0C600 0 577 0 554 0C531 0 508 0 484.8 0C461.7 0 438.3 0 415.2 0C392 0 369 0 346 0C323 0 300 0 277 0C254 0 231 0 207.8 0C184.7 0 161.3 0 138.2 0C115 0 92 0 69 0C46 0 23 0 11.5 0L0 0Z" fill="#563fc4"></path><path d="M0 91L11.5 95.7C23 100.3 46 109.7 69 112.8C92 116 115 113 138.2 107.5C161.3 102 184.7 94 207.8 91.7C231 89.3 254 92.7 277 88.5C300 84.3 323 72.7 346 66.2C369 59.7 392 58.3 415.2 65.5C438.3 72.7 461.7 88.3 484.8 94C508 99.7 531 95.3 554 92.3C577 89.3 600 87.7 623 86C646 84.3 669 82.7 692.2 81.2C715.3 79.7 738.7 78.3 761.8 83.5C785 88.7 808 100.3 831 107C854 113.7 877 115.3 888.5 116.2L900 117L900 0L888.5 0C877 0 854 0 831 0C808 0 785 0 761.8 0C738.7 0 715.3 0 692.2 0C669 0 646 0 623 0C600 0 577 0 554 0C531 0 508 0 484.8 0C461.7 0 438.3 0 415.2 0C392 0 369 0 346 0C323 0 300 0 277 0C254 0 231 0 207.8 0C184.7 0 161.3 0 138.2 0C115 0 92 0 69 0C46 0 23 0 11.5 0L0 0Z" fill="#223b9c"></path><path d="M0 40L11.5 41.5C23 43 46 46 69 53.7C92 61.3 115 73.7 138.2 73.2C161.3 72.7 184.7 59.3 207.8 50.2C231 41 254 36 277 37.8C300 39.7 323 48.3 346 52.5C369 56.7 392 56.3 415.2 56.5C438.3 56.7 461.7 57.3 484.8 54.2C508 51 531 44 554 43C577 42 600 47 623 51.5C646 56 669 60 692.2 63.5C715.3 67 738.7 70 761.8 72.3C785 74.7 808 76.3 831 73.7C854 71 877 64 888.5 60.5L900 57L900 0L888.5 0C877 0 854 0 831 0C808 0 785 0 761.8 0C738.7 0 715.3 0 692.2 0C669 0 646 0 623 0C600 0 577 0 554 0C531 0 508 0 484.8 0C461.7 0 438.3 0 415.2 0C392 0 369 0 346 0C323 0 300 0 277 0C254 0 231 0 207.8 0C184.7 0 161.3 0 138.2 0C115 0 92 0 69 0C46 0 23 0 11.5 0L0 0Z" fill="#003071"></path><path d="M0 54L11.5 49.8C23 45.7 46 37.3 69 33C92 28.7 115 28.3 138.2 27C161.3 25.7 184.7 23.3 207.8 21.3C231 19.3 254 17.7 277 15.8C300 14 323 12 346 15.3C369 18.7 392 27.3 415.2 35C438.3 42.7 461.7 49.3 484.8 48.8C508 48.3 531 40.7 554 33.2C577 25.7 600 18.3 623 20.5C646 22.7 669 34.3 692.2 35.7C715.3 37 738.7 28 761.8 26.7C785 25.3 808 31.7 831 34C854 36.3 877 34.7 888.5 33.8L900 33L900 0L888.5 0C877 0 854 0 831 0C808 0 785 0 761.8 0C738.7 0 715.3 0 692.2 0C669 0 646 0 623 0C600 0 577 0 554 0C531 0 508 0 484.8 0C461.7 0 438.3 0 415.2 0C392 0 369 0 346 0C323 0 300 0 277 0C254 0 231 0 207.8 0C184.7 0 161.3 0 138.2 0C115 0 92 0 69 0C46 0 23 0 11.5 0L0 0Z" fill="#022244"></path></svg>