<svg id="visual" viewBox="0 0 900 600" width="900" height="600" xmlns="http://www.w3.org/2000/svg" xmlns:xlink="http://www.w3.org/1999/xlink" version="1.1"><rect x="0" y="0" width="900" height="600" fill="#001220"></rect><path d="M0 420L16.7 426C33.3 432 66.7 444 100 453C133.3 462 166.7 468 200 456.3C233.3 444.7 266.7 415.3 300 405.2C333.3 395 366.7 404 400 404.5C433.3 405 466.7 397 500 404.7C533.3 412.3 566.7 435.7 600 448.8C633.3 462 666.7 465 700 453.2C733.3 441.3 766.7 414.7 800 403C833.3 391.3 866.7 394.7 883.3 396.3L900 398L900 601L883.3 601C866.7 601 833.3 601 800 601C766.7 601 733.3 601 700 601C666.7 601 633.3 601 600 601C566.7 601 533.3 601 500 601C466.7 601 433.3 601 400 601C366.7 601 333.3 601 300 601C266.7 601 233.3 601 200 601C166.7 601 133.3 601 100 601C66.7 601 33.3 601 16.7 601L0 601Z" fill="#d100ff"></path><path d="M0 452L16.7 448.2C33.3 444.3 66.7 436.7 100 436.8C133.3 437 166.7 445 200 449.3C233.3 453.7 266.7 454.3 300 453C333.3 451.7 366.7 448.3 400 455.8C433.3 463.3 466.7 481.7 500 480.3C533.3 479 566.7 458 600 460.2C633.3 462.3 666.7 487.7 700 502C733.3 516.3 766.7 519.7 800 513.5C833.3 507.3 866.7 491.7 883.3 483.8L900 476L900 601L883.3 601C866.7 601 833.3 601 800 601C766.7 601 733.3 601 700 601C666.7 601 633.3 601 600 601C566.7 601 533.3 601 500 601C466.7 601 433.3 601 400 601C366.7 601 333.3 601 300 601C266.7 601 233.3 601 200 601C166.7 601 133.3 601 100 601C66.7 601 33.3 601 16.7 601L0 601Z" fill="#683ed0"></path><path d="M0 504L16.7 511C33.3 518 66.7 532 100 533C133.3 534 166.7 522 200 510C233.3 498 266.7 486 300 481.3C333.3 476.7 366.7 479.3 400 484.5C433.3 489.7 466.7 497.3 500 500C533.3 502.7 566.7 500.3 600 507.2C633.3 514 666.7 530 700 532.5C733.3 535 766.7 524 800 517.5C833.3 511 866.7 509 883.3 508L900 507L900 601L883.3 601C866.7 601 833.3 601 800 601C766.7 601 733.3 601 700 601C666.7 601 633.3 601 600 601C566.7 601 533.3 601 500 601C466.7 601 433.3 601 400 601C366.7 601 333.3 601 300 601C266.7 601 233.3 601 200 601C166.7 601 133.3 601 100 601C66.7 601 33.3 601 16.7 601L0 601Z" fill="#10388e"></path><path d="M0 546L16.7 549.5C33.3 553 66.7 560 100 560.3C133.3 560.7 166.7 554.3 200 554.8C233.3 555.3 266.7 562.7 300 560.5C333.3 558.3 366.7 546.7 400 547.7C433.3 548.7 466.7 562.3 500 560.3C533.3 558.3 566.7 540.7 600 540C633.3 539.3 666.7 555.7 700 560.2C733.3 564.7 766.7 557.3 800 559.3C833.3 561.3 866.7 572.7 883.3 578.3L900 584L900 601L883.3 601C866.7 601 833.3 601 800 601C766.7 601 733.3 601 700 601C666.7 601 633.3 601 600 601C566.7 601 533.3 601 500 601C466.7 601 433.3 601 400 601C366.7 601 333.3 601 300 601C266.7 601 233.3 601 200 601C166.7 601 133.3 601 100 601C66.7 601 33.3 601 16.7 601L0 601Z" fill="#022244"></path></svg>