<svg id="visual" viewBox="0 0 900 600" width="900" height="600" xmlns="http://www.w3.org/2000/svg" xmlns:xlink="http://www.w3.org/1999/xlink" version="1.1"><rect x="0" y="0" width="900" height="600" fill="#001220"></rect><path d="M0 86L16.7 93.8C33.3 101.7 66.7 117.3 100 128.5C133.3 139.7 166.7 146.3 200 159C233.3 171.7 266.7 190.3 300 201C333.3 211.7 366.7 214.3 400 223.7C433.3 233 466.7 249 500 248.3C533.3 247.7 566.7 230.3 600 220.7C633.3 211 666.7 209 700 218.5C733.3 228 766.7 249 800 248C833.3 247 866.7 224 883.3 212.5L900 201L900 601L883.3 601C866.7 601 833.3 601 800 601C766.7 601 733.3 601 700 601C666.7 601 633.3 601 600 601C566.7 601 533.3 601 500 601C466.7 601 433.3 601 400 601C366.7 601 333.3 601 300 601C266.7 601 233.3 601 200 601C166.7 601 133.3 601 100 601C66.7 601 33.3 601 16.7 601L0 601Z" fill="#d100ff"></path><path d="M0 144L16.7 169.8C33.3 195.7 66.7 247.3 100 277.8C133.3 308.3 166.7 317.7 200 293C233.3 268.3 266.7 209.7 300 196C333.3 182.3 366.7 213.7 400 216.3C433.3 219 466.7 193 500 199.7C533.3 206.3 566.7 245.7 600 269C633.3 292.3 666.7 299.7 700 283.7C733.3 267.7 766.7 228.3 800 225.7C833.3 223 866.7 257 883.3 274L900 291L900 601L883.3 601C866.7 601 833.3 601 800 601C766.7 601 733.3 601 700 601C666.7 601 633.3 601 600 601C566.7 601 533.3 601 500 601C466.7 601 433.3 601 400 601C366.7 601 333.3 601 300 601C266.7 601 233.3 601 200 601C166.7 601 133.3 601 100 601C66.7 601 33.3 601 16.7 601L0 601Z" fill="#a82ff0"></path><path d="M0 261L16.7 272C33.3 283 66.7 305 100 318C133.3 331 166.7 335 200 332.8C233.3 330.7 266.7 322.3 300 325.8C333.3 329.3 366.7 344.7 400 349.5C433.3 354.3 466.7 348.7 500 334C533.3 319.3 566.7 295.7 600 267.5C633.3 239.3 666.7 206.7 700 219.3C733.3 232 766.7 290 800 321.8C833.3 353.7 866.7 359.3 883.3 362.2L900 365L900 601L883.3 601C866.7 601 833.3 601 800 601C766.7 601 733.3 601 700 601C666.7 601 633.3 601 600 601C566.7 601 533.3 601 500 601C466.7 601 433.3 601 400 601C366.7 601 333.3 601 300 601C266.7 601 233.3 601 200 601C166.7 601 133.3 601 100 601C66.7 601 33.3 601 16.7 601L0 601Z" fill="#813bde"></path><path d="M0 287L16.7 285.5C33.3 284 66.7 281 100 277.8C133.3 274.7 166.7 271.3 200 264.5C233.3 257.7 266.7 247.3 300 248.8C333.3 250.3 366.7 263.7 400 274.8C433.3 286 466.7 295 500 298.3C533.3 301.7 566.7 299.3 600 305.2C633.3 311 666.7 325 700 337.5C733.3 350 766.7 361 800 364C833.3 367 866.7 362 883.3 359.5L900 357L900 601L883.3 601C866.7 601 833.3 601 800 601C766.7 601 733.3 601 700 601C666.7 601 633.3 601 600 601C566.7 601 533.3 601 500 601C466.7 601 433.3 601 400 601C366.7 601 333.3 601 300 601C266.7 601 233.3 601 200 601C166.7 601 133.3 601 100 601C66.7 601 33.3 601 16.7 601L0 601Z" fill="#5d3fc9"></path><path d="M0 343L16.7 356.8C33.3 370.7 66.7 398.3 100 400.2C133.3 402 166.7 378 200 364C233.3 350 266.7 346 300 353.2C333.3 360.3 366.7 378.7 400 376.7C433.3 374.7 466.7 352.3 500 343.7C533.3 335 566.7 340 600 332.3C633.3 324.7 666.7 304.3 700 296.7C733.3 289 766.7 294 800 303.8C833.3 313.7 866.7 328.3 883.3 335.7L900 343L900 601L883.3 601C866.7 601 833.3 601 800 601C766.7 601 733.3 601 700 601C666.7 601 633.3 601 600 601C566.7 601 533.3 601 500 601C466.7 601 433.3 601 400 601C366.7 601 333.3 601 300 601C266.7 601 233.3 601 200 601C166.7 601 133.3 601 100 601C66.7 601 33.3 601 16.7 601L0 601Z" fill="#3b3eb1"></path><path d="M0 454L16.7 439.2C33.3 424.3 66.7 394.7 100 385.7C133.3 376.7 166.7 388.3 200 387.7C233.3 387 266.7 374 300 378.2C333.3 382.3 366.7 403.7 400 420.3C433.3 437 466.7 449 500 457.3C533.3 465.7 566.7 470.3 600 454.5C633.3 438.7 666.7 402.3 700 382.5C733.3 362.7 766.7 359.3 800 363.2C833.3 367 866.7 378 883.3 383.5L900 389L900 601L883.3 601C866.7 601 833.3 601 800 601C766.7 601 733.3 601 700 601C666.7 601 633.3 601 600 601C566.7 601 533.3 601 500 601C466.7 601 433.3 601 400 601C366.7 601 333.3 601 300 601C266.7 601 233.3 601 200 601C166.7 601 133.3 601 100 601C66.7 601 33.3 601 16.7 601L0 601Z" fill="#1b3a97"></path><path d="M0 423L16.7 434.8C33.3 446.7 66.7 470.3 100 482.5C133.3 494.7 166.7 495.3 200 490.8C233.3 486.3 266.7 476.7 300 474.7C333.3 472.7 366.7 478.3 400 471.8C433.3 465.3 466.7 446.7 500 435.7C533.3 424.7 566.7 421.3 600 431.5C633.3 441.7 666.7 465.3 700 474.3C733.3 483.3 766.7 477.7 800 475.7C833.3 473.7 866.7 475.3 883.3 476.2L900 477L900 601L883.3 601C866.7 601 833.3 601 800 601C766.7 601 733.3 601 700 601C666.7 601 633.3 601 600 601C566.7 601 533.3 601 500 601C466.7 601 433.3 601 400 601C366.7 601 333.3 601 300 601C266.7 601 233.3 601 200 601C166.7 601 133.3 601 100 601C66.7 601 33.3 601 16.7 601L0 601Z" fill="#00337c"></path><path d="M0 541L16.7 532.2C33.3 523.3 66.7 505.7 100 503.7C133.3 501.7 166.7 515.3 200 521.8C233.3 528.3 266.7 527.7 300 522.3C333.3 517 366.7 507 400 495.3C433.3 483.7 466.7 470.3 500 463.8C533.3 457.3 566.7 457.7 600 466.2C633.3 474.7 666.7 491.3 700 499.3C733.3 507.3 766.7 506.7 800 496C833.3 485.3 866.7 464.7 883.3 454.3L900 444L900 601L883.3 601C866.7 601 833.3 601 800 601C766.7 601 733.3 601 700 601C666.7 601 633.3 601 600 601C566.7 601 533.3 601 500 601C466.7 601 433.3 601 400 601C366.7 601 333.3 601 300 601C266.7 601 233.3 601 200 601C166.7 601 133.3 601 100 601C66.7 601 33.3 601 16.7 601L0 601Z" fill="#002b60"></path><path d="M0 524L16.7 531.3C33.3 538.7 66.7 553.3 100 554.5C133.3 555.7 166.7 543.3 200 538.7C233.3 534 266.7 537 300 535.2C333.3 533.3 366.7 526.7 400 528.7C433.3 530.7 466.7 541.3 500 547.3C533.3 553.3 566.7 554.7 600 557.5C633.3 560.3 666.7 564.7 700 563C733.3 561.3 766.7 553.7 800 552C833.3 550.3 866.7 554.7 883.3 556.8L900 559L900 601L883.3 601C866.7 601 833.3 601 800 601C766.7 601 733.3 601 700 601C666.7 601 633.3 601 600 601C566.7 601 533.3 601 500 601C466.7 601 433.3 601 400 601C366.7 601 333.3 601 300 601C266.7 601 233.3 601 200 601C166.7 601 133.3 601 100 601C66.7 601 33.3 601 16.7 601L0 601Z" fill="#022244"></path></svg>