<svg id="visual" viewBox="0 0 960 540" width="960" height="540" xmlns="http://www.w3.org/2000/svg" xmlns:xlink="http://www.w3.org/1999/xlink" version="1.1"><rect x="0" y="0" width="960" height="540" fill="#001220"></rect><path d="M0 321L17.8 332.7C35.7 344.3 71.3 367.7 106.8 361.2C142.3 354.7 177.7 318.3 213.2 331.7C248.7 345 284.3 408 320 424.7C355.7 441.3 391.3 411.7 426.8 412.7C462.3 413.7 497.7 445.3 533.2 441C568.7 436.7 604.3 396.3 640 392.3C675.7 388.3 711.3 420.7 746.8 424C782.3 427.3 817.7 401.7 853.2 377.8C888.7 354 924.3 332 942.2 321L960 310L960 0L942.2 0C924.3 0 888.7 0 853.2 0C817.7 0 782.3 0 746.8 0C711.3 0 675.7 0 640 0C604.3 0 568.7 0 533.2 0C497.7 0 462.3 0 426.8 0C391.3 0 355.7 0 320 0C284.3 0 248.7 0 213.2 0C177.7 0 142.3 0 106.8 0C71.3 0 35.7 0 17.8 0L0 0Z" fill="#d100ff"></path><path d="M0 315L17.8 318.7C35.7 322.3 71.3 329.7 106.8 347.3C142.3 365 177.7 393 213.2 405.5C248.7 418 284.3 415 320 395.5C355.7 376 391.3 340 426.8 317.7C462.3 295.3 497.7 286.7 533.2 281.2C568.7 275.7 604.3 273.3 640 278.3C675.7 283.3 711.3 295.7 746.8 303.3C782.3 311 817.7 314 853.2 325.8C888.7 337.7 924.3 358.3 942.2 368.7L960 379L960 0L942.2 0C924.3 0 888.7 0 853.2 0C817.7 0 782.3 0 746.8 0C711.3 0 675.7 0 640 0C604.3 0 568.7 0 533.2 0C497.7 0 462.3 0 426.8 0C391.3 0 355.7 0 320 0C284.3 0 248.7 0 213.2 0C177.7 0 142.3 0 106.8 0C71.3 0 35.7 0 17.8 0L0 0Z" fill="#a82ff0"></path><path d="M0 274L17.8 291.7C35.7 309.3 71.3 344.7 106.8 347.8C142.3 351 177.7 322 213.2 322C248.7 322 284.3 351 320 365.8C355.7 380.7 391.3 381.3 426.8 369.2C462.3 357 497.7 332 533.2 323.7C568.7 315.3 604.3 323.7 640 320.5C675.7 317.3 711.3 302.7 746.8 285.3C782.3 268 817.7 248 853.2 258.5C888.7 269 924.3 310 942.2 330.5L960 351L960 0L942.2 0C924.3 0 888.7 0 853.2 0C817.7 0 782.3 0 746.8 0C711.3 0 675.7 0 640 0C604.3 0 568.7 0 533.2 0C497.7 0 462.3 0 426.8 0C391.3 0 355.7 0 320 0C284.3 0 248.7 0 213.2 0C177.7 0 142.3 0 106.8 0C71.3 0 35.7 0 17.8 0L0 0Z" fill="#813bde"></path><path d="M0 233L17.8 242.5C35.7 252 71.3 271 106.8 286.5C142.3 302 177.7 314 213.2 294.2C248.7 274.3 284.3 222.7 320 217.3C355.7 212 391.3 253 426.8 257.5C462.3 262 497.7 230 533.2 210.2C568.7 190.3 604.3 182.7 640 194C675.7 205.3 711.3 235.7 746.8 263.2C782.3 290.7 817.7 315.3 853.2 318.3C888.7 321.3 924.3 302.7 942.2 293.3L960 284L960 0L942.2 0C924.3 0 888.7 0 853.2 0C817.7 0 782.3 0 746.8 0C711.3 0 675.7 0 640 0C604.3 0 568.7 0 533.2 0C497.7 0 462.3 0 426.8 0C391.3 0 355.7 0 320 0C284.3 0 248.7 0 213.2 0C177.7 0 142.3 0 106.8 0C71.3 0 35.7 0 17.8 0L0 0Z" fill="#5d3fc9"></path><path d="M0 219L17.8 218.5C35.7 218 71.3 217 106.8 208.8C142.3 200.7 177.7 185.3 213.2 176C248.7 166.7 284.3 163.3 320 176.5C355.7 189.7 391.3 219.3 426.8 237.5C462.3 255.7 497.7 262.3 533.2 250.5C568.7 238.7 604.3 208.3 640 208.7C675.7 209 711.3 240 746.8 252.7C782.3 265.3 817.7 259.7 853.2 249C888.7 238.3 924.3 222.7 942.2 214.8L960 207L960 0L942.2 0C924.3 0 888.7 0 853.2 0C817.7 0 782.3 0 746.8 0C711.3 0 675.7 0 640 0C604.3 0 568.7 0 533.2 0C497.7 0 462.3 0 426.8 0C391.3 0 355.7 0 320 0C284.3 0 248.7 0 213.2 0C177.7 0 142.3 0 106.8 0C71.3 0 35.7 0 17.8 0L0 0Z" fill="#3b3eb1"></path><path d="M0 112L17.8 125.8C35.7 139.7 71.3 167.3 106.8 179.5C142.3 191.7 177.7 188.3 213.2 189C248.7 189.7 284.3 194.3 320 183C355.7 171.7 391.3 144.3 426.8 136.8C462.3 129.3 497.7 141.7 533.2 144C568.7 146.3 604.3 138.7 640 136.2C675.7 133.7 711.3 136.3 746.8 144.2C782.3 152 817.7 165 853.2 173.2C888.7 181.3 924.3 184.7 942.2 186.3L960 188L960 0L942.2 0C924.3 0 888.7 0 853.2 0C817.7 0 782.3 0 746.8 0C711.3 0 675.7 0 640 0C604.3 0 568.7 0 533.2 0C497.7 0 462.3 0 426.8 0C391.3 0 355.7 0 320 0C284.3 0 248.7 0 213.2 0C177.7 0 142.3 0 106.8 0C71.3 0 35.7 0 17.8 0L0 0Z" fill="#1b3a97"></path><path d="M0 189L17.8 175.8C35.7 162.7 71.3 136.3 106.8 120C142.3 103.7 177.7 97.3 213.2 93.8C248.7 90.3 284.3 89.7 320 90.8C355.7 92 391.3 95 426.8 109C462.3 123 497.7 148 533.2 155.3C568.7 162.7 604.3 152.3 640 151.5C675.7 150.7 711.3 159.3 746.8 153.5C782.3 147.7 817.7 127.3 853.2 121.8C888.7 116.3 924.3 125.7 942.2 130.3L960 135L960 0L942.2 0C924.3 0 888.7 0 853.2 0C817.7 0 782.3 0 746.8 0C711.3 0 675.7 0 640 0C604.3 0 568.7 0 533.2 0C497.7 0 462.3 0 426.8 0C391.3 0 355.7 0 320 0C284.3 0 248.7 0 213.2 0C177.7 0 142.3 0 106.8 0C71.3 0 35.7 0 17.8 0L0 0Z" fill="#00337c"></path><path d="M0 59L17.8 60.3C35.7 61.7 71.3 64.3 106.8 75C142.3 85.7 177.7 104.3 213.2 101.2C248.7 98 284.3 73 320 70.2C355.7 67.3 391.3 86.7 426.8 91.5C462.3 96.3 497.7 86.7 533.2 82.8C568.7 79 604.3 81 640 89C675.7 97 711.3 111 746.8 116.2C782.3 121.3 817.7 117.7 853.2 112.5C888.7 107.3 924.3 100.7 942.2 97.3L960 94L960 0L942.2 0C924.3 0 888.7 0 853.2 0C817.7 0 782.3 0 746.8 0C711.3 0 675.7 0 640 0C604.3 0 568.7 0 533.2 0C497.7 0 462.3 0 426.8 0C391.3 0 355.7 0 320 0C284.3 0 248.7 0 213.2 0C177.7 0 142.3 0 106.8 0C71.3 0 35.7 0 17.8 0L0 0Z" fill="#002b60"></path><path d="M0 27L17.8 28C35.7 29 71.3 31 106.8 32.2C142.3 33.3 177.7 33.7 213.2 30.8C248.7 28 284.3 22 320 29.2C355.7 36.3 391.3 56.7 426.8 67.2C462.3 77.7 497.7 78.3 533.2 69.5C568.7 60.7 604.3 42.3 640 43.7C675.7 45 711.3 66 746.8 70.3C782.3 74.7 817.7 62.3 853.2 53.7C888.7 45 924.3 40 942.2 37.5L960 35L960 0L942.2 0C924.3 0 888.7 0 853.2 0C817.7 0 782.3 0 746.8 0C711.3 0 675.7 0 640 0C604.3 0 568.7 0 533.2 0C497.7 0 462.3 0 426.8 0C391.3 0 355.7 0 320 0C284.3 0 248.7 0 213.2 0C177.7 0 142.3 0 106.8 0C71.3 0 35.7 0 17.8 0L0 0Z" fill="#022244"></path></svg>