<svg id="visual" viewBox="0 0 960 540" width="960" height="540" xmlns="http://www.w3.org/2000/svg" xmlns:xlink="http://www.w3.org/1999/xlink" version="1.1"><rect x="0" y="0" width="960" height="540" fill="#001220"></rect><path d="M0 159L20 154.3C40 149.7 80 140.3 120 131.8C160 123.3 200 115.7 240 126.5C280 137.3 320 166.7 360 166.7C400 166.7 440 137.3 480 127.7C520 118 560 128 600 134.7C640 141.3 680 144.7 720 155C760 165.3 800 182.7 840 178.3C880 174 920 148 940 135L960 122L960 0L940 0C920 0 880 0 840 0C800 0 760 0 720 0C680 0 640 0 600 0C560 0 520 0 480 0C440 0 400 0 360 0C320 0 280 0 240 0C200 0 160 0 120 0C80 0 40 0 20 0L0 0Z" fill="#8c69fa"></path><path d="M0 118L20 117.7C40 117.3 80 116.7 120 123.3C160 130 200 144 240 141.8C280 139.7 320 121.3 360 118.3C400 115.3 440 127.7 480 127.3C520 127 560 114 600 120.2C640 126.3 680 151.7 720 161.8C760 172 800 167 840 156.8C880 146.7 920 131.3 940 123.7L960 116L960 0L940 0C920 0 880 0 840 0C800 0 760 0 720 0C680 0 640 0 600 0C560 0 520 0 480 0C440 0 400 0 360 0C320 0 280 0 240 0C200 0 160 0 120 0C80 0 40 0 20 0L0 0Z" fill="#8163f3"></path><path d="M0 85L20 88.8C40 92.7 80 100.3 120 96.8C160 93.3 200 78.7 240 86.8C280 95 320 126 360 140.7C400 155.3 440 153.7 480 143C520 132.3 560 112.7 600 98.3C640 84 680 75 720 76.3C760 77.7 800 89.3 840 103C880 116.7 920 132.3 940 140.2L960 148L960 0L940 0C920 0 880 0 840 0C800 0 760 0 720 0C680 0 640 0 600 0C560 0 520 0 480 0C440 0 400 0 360 0C320 0 280 0 240 0C200 0 160 0 120 0C80 0 40 0 20 0L0 0Z" fill="#775ded"></path><path d="M0 122L20 112.3C40 102.7 80 83.3 120 85.2C160 87 200 110 240 109.5C280 109 320 85 360 86.5C400 88 440 115 480 129.8C520 144.7 560 147.3 600 143.8C640 140.3 680 130.7 720 122.8C760 115 800 109 840 113.7C880 118.3 920 133.7 940 141.3L960 149L960 0L940 0C920 0 880 0 840 0C800 0 760 0 720 0C680 0 640 0 600 0C560 0 520 0 480 0C440 0 400 0 360 0C320 0 280 0 240 0C200 0 160 0 120 0C80 0 40 0 20 0L0 0Z" fill="#6c58e6"></path><path d="M0 63L20 59.5C40 56 80 49 120 56.5C160 64 200 86 240 94.7C280 103.3 320 98.7 360 100.7C400 102.7 440 111.3 480 109.7C520 108 560 96 600 88.8C640 81.7 680 79.3 720 77.3C760 75.3 800 73.7 840 73.5C880 73.3 920 74.7 940 75.3L960 76L960 0L940 0C920 0 880 0 840 0C800 0 760 0 720 0C680 0 640 0 600 0C560 0 520 0 480 0C440 0 400 0 360 0C320 0 280 0 240 0C200 0 160 0 120 0C80 0 40 0 20 0L0 0Z" fill="#6052e0"></path><path d="M0 49L20 47C40 45 80 41 120 46.3C160 51.7 200 66.3 240 66C280 65.7 320 50.3 360 47.5C400 44.7 440 54.3 480 59.8C520 65.3 560 66.7 600 70.2C640 73.7 680 79.3 720 84.3C760 89.3 800 93.7 840 92.8C880 92 920 86 940 83L960 80L960 0L940 0C920 0 880 0 840 0C800 0 760 0 720 0C680 0 640 0 600 0C560 0 520 0 480 0C440 0 400 0 360 0C320 0 280 0 240 0C200 0 160 0 120 0C80 0 40 0 20 0L0 0Z" fill="#544dda"></path><path d="M0 47L20 47C40 47 80 47 120 46.3C160 45.7 200 44.3 240 50.2C280 56 320 69 360 68.7C400 68.3 440 54.7 480 47.2C520 39.7 560 38.3 600 41.3C640 44.3 680 51.7 720 50.5C760 49.3 800 39.7 840 41.5C880 43.3 920 56.7 940 63.3L960 70L960 0L940 0C920 0 880 0 840 0C800 0 760 0 720 0C680 0 640 0 600 0C560 0 520 0 480 0C440 0 400 0 360 0C320 0 280 0 240 0C200 0 160 0 120 0C80 0 40 0 20 0L0 0Z" fill="#4647d3"></path><path d="M0 55L20 49.5C40 44 80 33 120 31.7C160 30.3 200 38.7 240 38.5C280 38.3 320 29.7 360 30.8C400 32 440 43 480 45.3C520 47.7 560 41.3 600 40.3C640 39.3 680 43.7 720 44.7C760 45.7 800 43.3 840 45C880 46.7 920 52.3 940 55.2L960 58L960 0L940 0C920 0 880 0 840 0C800 0 760 0 720 0C680 0 640 0 600 0C560 0 520 0 480 0C440 0 400 0 360 0C320 0 280 0 240 0C200 0 160 0 120 0C80 0 40 0 20 0L0 0Z" fill="#3742cd"></path><path d="M0 22L20 24.7C40 27.3 80 32.7 120 29C160 25.3 200 12.7 240 12.2C280 11.7 320 23.3 360 25.8C400 28.3 440 21.7 480 20.7C520 19.7 560 24.3 600 23.2C640 22 680 15 720 16.8C760 18.7 800 29.3 840 31.8C880 34.3 920 28.7 940 25.8L960 23L960 0L940 0C920 0 880 0 840 0C800 0 760 0 720 0C680 0 640 0 600 0C560 0 520 0 480 0C440 0 400 0 360 0C320 0 280 0 240 0C200 0 160 0 120 0C80 0 40 0 20 0L0 0Z" fill="#243dc7"></path></svg>