<svg id="visual" viewBox="0 0 960 540" width="960" height="540" xmlns="http://www.w3.org/2000/svg" xmlns:xlink="http://www.w3.org/1999/xlink" version="1.1"><rect x="0" y="0" width="960" height="540" fill="#001220"></rect><path d="M0 119L20 115.5C40 112 80 105 120 98.7C160 92.3 200 86.7 240 94.8C280 103 320 125 360 124.8C400 124.7 440 102.3 480 95C520 87.7 560 95.3 600 100.5C640 105.7 680 108.3 720 116C760 123.7 800 136.3 840 133C880 129.7 920 110.3 940 100.7L960 91L960 0L940 0C920 0 880 0 840 0C800 0 760 0 720 0C680 0 640 0 600 0C560 0 520 0 480 0C440 0 400 0 360 0C320 0 280 0 240 0C200 0 160 0 120 0C80 0 40 0 20 0L0 0Z" fill="#8c69fa"></path><path d="M0 88L20 87.8C40 87.7 80 87.3 120 92.5C160 97.7 200 108.3 240 106.7C280 105 320 91 360 88.7C400 86.3 440 95.7 480 95.5C520 95.3 560 85.7 600 90.2C640 94.7 680 113.3 720 120.8C760 128.3 800 124.7 840 117.2C880 109.7 920 98.3 940 92.7L960 87L960 0L940 0C920 0 880 0 840 0C800 0 760 0 720 0C680 0 640 0 600 0C560 0 520 0 480 0C440 0 400 0 360 0C320 0 280 0 240 0C200 0 160 0 120 0C80 0 40 0 20 0L0 0Z" fill="#8163f3"></path><path d="M0 63L20 66C40 69 80 75 120 72.5C160 70 200 59 240 65.2C280 71.3 320 94.7 360 105.7C400 116.7 440 115.3 480 107.2C520 99 560 84 600 73.2C640 62.3 680 55.7 720 56.7C760 57.7 800 66.3 840 76.7C880 87 920 99 940 105L960 111L960 0L940 0C920 0 880 0 840 0C800 0 760 0 720 0C680 0 640 0 600 0C560 0 520 0 480 0C440 0 400 0 360 0C320 0 280 0 240 0C200 0 160 0 120 0C80 0 40 0 20 0L0 0Z" fill="#775ded"></path><path d="M0 91L20 83.8C40 76.7 80 62.3 120 63.7C160 65 200 82 240 81.5C280 81 320 63 360 64.2C400 65.3 440 85.7 480 96.8C520 108 560 110 600 107.5C640 105 680 98 720 92.2C760 86.3 800 81.7 840 85.2C880 88.7 920 100.3 940 106.2L960 112L960 0L940 0C920 0 880 0 840 0C800 0 760 0 720 0C680 0 640 0 600 0C560 0 520 0 480 0C440 0 400 0 360 0C320 0 280 0 240 0C200 0 160 0 120 0C80 0 40 0 20 0L0 0Z" fill="#6c58e6"></path><path d="M0 47L20 44.3C40 41.7 80 36.3 120 42C160 47.7 200 64.3 240 71C280 77.7 320 74.3 360 75.7C400 77 440 83 480 81.7C520 80.3 560 71.7 600 66.5C640 61.3 680 59.7 720 58.2C760 56.7 800 55.3 840 55.2C880 55 920 56 940 56.5L960 57L960 0L940 0C920 0 880 0 840 0C800 0 760 0 720 0C680 0 640 0 600 0C560 0 520 0 480 0C440 0 400 0 360 0C320 0 280 0 240 0C200 0 160 0 120 0C80 0 40 0 20 0L0 0Z" fill="#6052e0"></path><path d="M0 37L20 35.3C40 33.7 80 30.3 120 34.2C160 38 200 49 240 48.8C280 48.7 320 37.3 360 35.3C400 33.3 440 40.7 480 44.8C520 49 560 50 600 52.5C640 55 680 59 720 62.7C760 66.3 800 69.7 840 69C880 68.3 920 63.7 940 61.3L960 59L960 0L940 0C920 0 880 0 840 0C800 0 760 0 720 0C680 0 640 0 600 0C560 0 520 0 480 0C440 0 400 0 360 0C320 0 280 0 240 0C200 0 160 0 120 0C80 0 40 0 20 0L0 0Z" fill="#544dda"></path><path d="M0 35L20 35C40 35 80 35 120 34.5C160 34 200 33 240 37.3C280 41.7 320 51.3 360 51C400 50.7 440 40.3 480 34.8C520 29.3 560 28.7 600 31C640 33.3 680 38.7 720 37.7C760 36.7 800 29.3 840 30.7C880 32 920 42 940 47L960 52L960 0L940 0C920 0 880 0 840 0C800 0 760 0 720 0C680 0 640 0 600 0C560 0 520 0 480 0C440 0 400 0 360 0C320 0 280 0 240 0C200 0 160 0 120 0C80 0 40 0 20 0L0 0Z" fill="#4647d3"></path><path d="M0 41L20 36.8C40 32.7 80 24.3 120 23.3C160 22.3 200 28.7 240 28.5C280 28.3 320 21.7 360 22.5C400 23.3 440 31.7 480 33.5C520 35.3 560 30.7 600 30C640 29.3 680 32.7 720 33.5C760 34.3 800 32.7 840 33.8C880 35 920 39 940 41L960 43L960 0L940 0C920 0 880 0 840 0C800 0 760 0 720 0C680 0 640 0 600 0C560 0 520 0 480 0C440 0 400 0 360 0C320 0 280 0 240 0C200 0 160 0 120 0C80 0 40 0 20 0L0 0Z" fill="#3742cd"></path><path d="M0 16L20 18C40 20 80 24 120 21.3C160 18.7 200 9.3 240 9C280 8.7 320 17.3 360 19.2C400 21 440 16 480 15.2C520 14.3 560 17.7 600 16.8C640 16 680 11 720 12.5C760 14 800 22 840 23.8C880 25.7 920 21.3 940 19.2L960 17L960 0L940 0C920 0 880 0 840 0C800 0 760 0 720 0C680 0 640 0 600 0C560 0 520 0 480 0C440 0 400 0 360 0C320 0 280 0 240 0C200 0 160 0 120 0C80 0 40 0 20 0L0 0Z" fill="#243dc7"></path></svg>