<svg id="visual" viewBox="0 0 900 600" width="900" height="600" xmlns="http://www.w3.org/2000/svg" xmlns:xlink="http://www.w3.org/1999/xlink" version="1.1"><rect x="0" y="0" width="900" height="600" fill="#001220"></rect><path d="M0 132L18.8 128.2C37.7 124.3 75.3 116.7 112.8 109.7C150.3 102.7 187.7 96.3 225.2 105.3C262.7 114.3 300.3 138.7 337.8 138.7C375.3 138.7 412.7 114.3 450.2 106.3C487.7 98.3 525.3 106.7 562.8 112.2C600.3 117.7 637.7 120.3 675.2 128.8C712.7 137.3 750.3 151.7 787.8 148C825.3 144.3 862.7 122.7 881.3 111.8L900 101L900 0L881.3 0C862.7 0 825.3 0 787.8 0C750.3 0 712.7 0 675.2 0C637.7 0 600.3 0 562.8 0C525.3 0 487.7 0 450.2 0C412.7 0 375.3 0 337.8 0C300.3 0 262.7 0 225.2 0C187.7 0 150.3 0 112.8 0C75.3 0 37.7 0 18.8 0L0 0Z" fill="#8c69fa"></path><path d="M0 98L18.8 97.8C37.7 97.7 75.3 97.3 112.8 103C150.3 108.7 187.7 120.3 225.2 118.5C262.7 116.7 300.3 101.3 337.8 98.7C375.3 96 412.7 106 450.2 105.7C487.7 105.3 525.3 94.7 562.8 99.8C600.3 105 637.7 126 675.2 134.5C712.7 143 750.3 139 787.8 130.7C825.3 122.3 862.7 109.7 881.3 103.3L900 97L900 0L881.3 0C862.7 0 825.3 0 787.8 0C750.3 0 712.7 0 675.2 0C637.7 0 600.3 0 562.8 0C525.3 0 487.7 0 450.2 0C412.7 0 375.3 0 337.8 0C300.3 0 262.7 0 225.2 0C187.7 0 150.3 0 112.8 0C75.3 0 37.7 0 18.8 0L0 0Z" fill="#8163f3"></path><path d="M0 70L18.8 73.3C37.7 76.7 75.3 83.3 112.8 80.5C150.3 77.7 187.7 65.3 225.2 72.2C262.7 79 300.3 105 337.8 117.2C375.3 129.3 412.7 127.7 450.2 118.7C487.7 109.7 525.3 93.3 562.8 81.5C600.3 69.7 637.7 62.3 675.2 63.5C712.7 64.7 750.3 74.3 787.8 85.7C825.3 97 862.7 110 881.3 116.5L900 123L900 0L881.3 0C862.7 0 825.3 0 787.8 0C750.3 0 712.7 0 675.2 0C637.7 0 600.3 0 562.8 0C525.3 0 487.7 0 450.2 0C412.7 0 375.3 0 337.8 0C300.3 0 262.7 0 225.2 0C187.7 0 150.3 0 112.8 0C75.3 0 37.7 0 18.8 0L0 0Z" fill="#775ded"></path><path d="M0 101L18.8 93C37.7 85 75.3 69 112.8 70.5C150.3 72 187.7 91 225.2 90.7C262.7 90.3 300.3 70.7 337.8 72C375.3 73.3 412.7 95.7 450.2 108C487.7 120.3 525.3 122.7 562.8 119.8C600.3 117 637.7 109 675.2 102.5C712.7 96 750.3 91 787.8 94.8C825.3 98.7 862.7 111.3 881.3 117.7L900 124L900 0L881.3 0C862.7 0 825.3 0 787.8 0C750.3 0 712.7 0 675.2 0C637.7 0 600.3 0 562.8 0C525.3 0 487.7 0 450.2 0C412.7 0 375.3 0 337.8 0C300.3 0 262.7 0 225.2 0C187.7 0 150.3 0 112.8 0C75.3 0 37.7 0 18.8 0L0 0Z" fill="#6c58e6"></path><path d="M0 53L18.8 50C37.7 47 75.3 41 112.8 47.2C150.3 53.3 187.7 71.7 225.2 78.8C262.7 86 300.3 82 337.8 83.5C375.3 85 412.7 92 450.2 90.7C487.7 89.3 525.3 79.7 562.8 73.8C600.3 68 637.7 66 675.2 64.3C712.7 62.7 750.3 61.3 787.8 61.2C825.3 61 862.7 62 881.3 62.5L900 63L900 0L881.3 0C862.7 0 825.3 0 787.8 0C750.3 0 712.7 0 675.2 0C637.7 0 600.3 0 562.8 0C525.3 0 487.7 0 450.2 0C412.7 0 375.3 0 337.8 0C300.3 0 262.7 0 225.2 0C187.7 0 150.3 0 112.8 0C75.3 0 37.7 0 18.8 0L0 0Z" fill="#6052e0"></path><path d="M0 41L18.8 39.2C37.7 37.3 75.3 33.7 112.8 38C150.3 42.3 187.7 54.7 225.2 54.5C262.7 54.3 300.3 41.7 337.8 39.3C375.3 37 412.7 45 450.2 49.7C487.7 54.3 525.3 55.7 562.8 58.5C600.3 61.3 637.7 65.7 675.2 69.7C712.7 73.7 750.3 77.3 787.8 76.7C825.3 76 862.7 71 881.3 68.5L900 66L900 0L881.3 0C862.7 0 825.3 0 787.8 0C750.3 0 712.7 0 675.2 0C637.7 0 600.3 0 562.8 0C525.3 0 487.7 0 450.2 0C412.7 0 375.3 0 337.8 0C300.3 0 262.7 0 225.2 0C187.7 0 150.3 0 112.8 0C75.3 0 37.7 0 18.8 0L0 0Z" fill="#544dda"></path><path d="M0 39L18.8 39C37.7 39 75.3 39 112.8 38.5C150.3 38 187.7 37 225.2 41.8C262.7 46.7 300.3 57.3 337.8 57C375.3 56.7 412.7 45.3 450.2 39.2C487.7 33 525.3 32 562.8 34.5C600.3 37 637.7 43 675.2 42C712.7 41 750.3 33 787.8 34.5C825.3 36 862.7 47 881.3 52.5L900 58L900 0L881.3 0C862.7 0 825.3 0 787.8 0C750.3 0 712.7 0 675.2 0C637.7 0 600.3 0 562.8 0C525.3 0 487.7 0 450.2 0C412.7 0 375.3 0 337.8 0C300.3 0 262.7 0 225.2 0C187.7 0 150.3 0 112.8 0C75.3 0 37.7 0 18.8 0L0 0Z" fill="#4647d3"></path><path d="M0 46L18.8 41.3C37.7 36.7 75.3 27.3 112.8 26.2C150.3 25 187.7 32 225.2 31.8C262.7 31.7 300.3 24.3 337.8 25.3C375.3 26.3 412.7 35.7 450.2 37.7C487.7 39.7 525.3 34.3 562.8 33.5C600.3 32.7 637.7 36.3 675.2 37.2C712.7 38 750.3 36 787.8 37.3C825.3 38.7 862.7 43.3 881.3 45.7L900 48L900 0L881.3 0C862.7 0 825.3 0 787.8 0C750.3 0 712.7 0 675.2 0C637.7 0 600.3 0 562.8 0C525.3 0 487.7 0 450.2 0C412.7 0 375.3 0 337.8 0C300.3 0 262.7 0 225.2 0C187.7 0 150.3 0 112.8 0C75.3 0 37.7 0 18.8 0L0 0Z" fill="#3742cd"></path><path d="M0 18L18.8 20.2C37.7 22.3 75.3 26.7 112.8 23.7C150.3 20.7 187.7 10.3 225.2 10C262.7 9.7 300.3 19.3 337.8 21.5C375.3 23.7 412.7 18.3 450.2 17.5C487.7 16.7 525.3 20.3 562.8 19.3C600.3 18.3 637.7 12.7 675.2 14.2C712.7 15.7 750.3 24.3 787.8 26.3C825.3 28.3 862.7 23.7 881.3 21.3L900 19L900 0L881.3 0C862.7 0 825.3 0 787.8 0C750.3 0 712.7 0 675.2 0C637.7 0 600.3 0 562.8 0C525.3 0 487.7 0 450.2 0C412.7 0 375.3 0 337.8 0C300.3 0 262.7 0 225.2 0C187.7 0 150.3 0 112.8 0C75.3 0 37.7 0 18.8 0L0 0Z" fill="#243dc7"></path></svg>