<svg id="visual" viewBox="0 0 960 540" width="960" height="540" xmlns="http://www.w3.org/2000/svg" xmlns:xlink="http://www.w3.org/1999/xlink" version="1.1"><rect x="0" y="0" width="960" height="540" fill="#002233"></rect><path d="M170 0L155.5 5.3C141 10.7 112 21.3 100.8 32C89.7 42.7 96.3 53.3 118.7 63.8C141 74.3 179 84.7 208.8 95.2C238.7 105.7 260.3 116.3 264.8 127C269.3 137.7 256.7 148.3 257.2 159C257.7 169.7 271.3 180.3 281.7 190.8C292 201.3 299 211.7 296.8 222.2C294.7 232.7 283.3 243.3 267.8 254C252.3 264.7 232.7 275.3 214.8 286C197 296.7 181 307.3 177.3 317.8C173.7 328.3 182.3 338.7 203.7 349.2C225 359.7 259 370.3 269.7 381C280.3 391.7 267.7 402.3 241.7 413C215.7 423.7 176.3 434.3 154.5 444.8C132.7 455.3 128.3 465.7 155 476.2C181.7 486.7 239.3 497.3 254 508C268.7 518.7 240.3 529.3 226.2 534.7L212 540" fill="none" stroke-linecap="round" stroke-linejoin="miter" stroke="#292b78" stroke-width="40"></path></svg>